<svg xmlns="http://www.w3.org/2000/svg" width="1920" height="1080"><path d="M-177,-242L324,-245L609,-264Z" fill="#99edd6" stroke="#99edd6" stroke-width="1.51"/><path d="M609,-264L877,-257L1021,-262Z" fill="#b7f3e2" stroke="#b7f3e2" stroke-width="1.51"/><path d="M743,1317L615,1334L1238,1339Z" fill="#ffd49d" stroke="#ffd49d" stroke-width="1.51"/><path d="M1021,-262L1219,-239L1666,-233Z" fill="#b9f3e2" stroke="#b9f3e2" stroke-width="1.51"/><path d="M1219,-239L1432,-205L1666,-233Z" fill="#bdefd9" stroke="#bdefd9" stroke-width="1.51"/><path d="M1779,1310L1238,1339L1888,1333Z" fill="#fec67a" stroke="#fec67a" stroke-width="1.51"/><path d="M1983,786L1891,963L2054,786Z" fill="#ffdaa8" stroke="#ffdaa8" stroke-width="1.51"/><path d="M1986,216L2035,352L2067,202Z" fill="#ffd9a7" stroke="#ffd9a7" stroke-width="1.51"/><path d="M1966,500L1901,685L2083,731Z" fill="#ffdbad" stroke="#ffdbad" stroke-width="1.51"/><path d="M2035,352L1985,397L2085,493Z" fill="#ffd8a6" stroke="#ffd8a6" stroke-width="1.51"/><path d="M1966,500L2083,731L2085,493Z" fill="#ffd8a5" stroke="#ffd8a5" stroke-width="1.51"/><path d="M2067,202L2035,352L2085,493Z" fill="#ffd7a3" stroke="#ffd7a3" stroke-width="1.51"/><path d="M1021,-262L1666,-233L2101,-250Z" fill="#bde6c3" stroke="#bde6c3" stroke-width="1.51"/><path d="M1666,-233L1900,-207L2101,-250Z" fill="#c6d69f" stroke="#c6d69f" stroke-width="1.51"/><path d="M1900,-207L1928,-43L2101,-250Z" fill="#cfd397" stroke="#cfd397" stroke-width="1.51"/><path d="M1879,1123L2083,1157L2110,1035Z" fill="#fec271" stroke="#fec271" stroke-width="1.51"/><path d="M2054,786L1891,963L2110,1035Z" fill="#ffd094" stroke="#ffd094" stroke-width="1.51"/><path d="M2083,731L2054,786L2110,1035Z" fill="#ffd39a" stroke="#ffd39a" stroke-width="1.51"/><path d="M2085,493L2083,731L2110,1035Z" fill="#ffd59f" stroke="#ffd59f" stroke-width="1.51"/><path d="M2101,-250L1928,-43L2114,-22Z" fill="#d7d091" stroke="#d7d091" stroke-width="1.51"/><path d="M1928,-43L2042,85L2114,-22Z" fill="#e5d499" stroke="#e5d499" stroke-width="1.51"/><path d="M2042,85L2067,202L2114,-22Z" fill="#eed398" stroke="#eed398" stroke-width="1.51"/><path d="M2067,202L2085,493L2114,-22Z" fill="#fed59d" stroke="#fed59d" stroke-width="1.51"/><path d="M2085,493L2110,1035L2114,-22Z" fill="#ffd59e" stroke="#ffd59e" stroke-width="1.51"/><path d="M1891,963L1879,1123L2110,1035Z" fill="#ffcb86" stroke="#ffcb86" stroke-width="1.51"/><path d="M2042,85L1986,216L2067,202Z" fill="#f8d7a2" stroke="#f8d7a2" stroke-width="1.51"/><path d="M1901,685L1983,786L2083,731Z" fill="#ffdbac" stroke="#ffdbac" stroke-width="1.51"/><path d="M1879,1123L2029,1280L2083,1157Z" fill="#febd65" stroke="#febd65" stroke-width="1.51"/><path d="M1985,397L1966,500L2085,493Z" fill="#ffdaa9" stroke="#ffdaa9" stroke-width="1.51"/><path d="M1983,786L2054,786L2083,731Z" fill="#ffd8a6" stroke="#ffd8a6" stroke-width="1.51"/><path d="M1643,1262L1238,1339L1779,1310Z" fill="#ffcc89" stroke="#ffcc89" stroke-width="1.51"/><path d="M1516,1250L1238,1339L1643,1262Z" fill="#ffd398" stroke="#ffd398" stroke-width="1.51"/><path d="M1882,141L1986,216L2042,85Z" fill="#f6daa9" stroke="#f6daa9" stroke-width="1.51"/><path d="M1879,1123L1888,1333L2029,1280Z" fill="#febc62" stroke="#febc62" stroke-width="1.51"/><path d="M1986,216L1985,397L2035,352Z" fill="#ffdaab" stroke="#ffdaab" stroke-width="1.51"/><path d="M1928,-43L1882,141L2042,85Z" fill="#ebdaa6" stroke="#ebdaa6" stroke-width="1.51"/><path d="M1666,-233L1781,-181L1900,-207Z" fill="#c7ddad" stroke="#c7ddad" stroke-width="1.51"/><path d="M1799,496L1901,685L1966,500Z" fill="#ffe1ba" stroke="#ffe1ba" stroke-width="1.51"/><path d="M1768,865L1891,963L1983,786Z" fill="#ffddb0" stroke="#ffddb0" stroke-width="1.51"/><path d="M1805,730L1768,865L1983,786Z" fill="#ffe3be" stroke="#ffe3be" stroke-width="1.51"/><path d="M1730,442L1799,496L1985,397Z" fill="#ffe4c0" stroke="#ffe4c0" stroke-width="1.51"/><path d="M1748,205L1730,442L1985,397Z" fill="#ffe5c2" stroke="#ffe5c2" stroke-width="1.51"/><path d="M1799,496L1966,500L1985,397Z" fill="#ffdfb6" stroke="#ffdfb6" stroke-width="1.51"/><path d="M1748,205L1985,397L1986,216Z" fill="#ffe0b7" stroke="#ffe0b7" stroke-width="1.51"/><path d="M1882,141L1748,205L1986,216Z" fill="#f9e0b7" stroke="#f9e0b7" stroke-width="1.51"/><path d="M1901,685L1805,730L1983,786Z" fill="#ffe0b9" stroke="#ffe0b9" stroke-width="1.51"/><path d="M1900,-207L1789,-92L1928,-43Z" fill="#d5daa7" stroke="#d5daa7" stroke-width="1.51"/><path d="M1686,396L1730,442L1748,205Z" fill="#ffeacf" stroke="#ffeacf" stroke-width="1.51"/><path d="M1789,-92L1734,146L1882,141Z" fill="#e9e2b9" stroke="#e9e2b9" stroke-width="1.51"/><path d="M1879,1123L1779,1310L1888,1333Z" fill="#febf6b" stroke="#febf6b" stroke-width="1.51"/><path d="M1768,865L1833,966L1891,963Z" fill="#ffdbab" stroke="#ffdbab" stroke-width="1.51"/><path d="M1833,966L1879,1123L1891,963Z" fill="#ffd196" stroke="#ffd196" stroke-width="1.51"/><path d="M1781,-181L1789,-92L1900,-207Z" fill="#cedcab" stroke="#cedcab" stroke-width="1.51"/><path d="M1789,-92L1882,141L1928,-43Z" fill="#e3ddae" stroke="#e3ddae" stroke-width="1.51"/><path d="M1799,496L1682,647L1805,730Z" fill="#ffe8ca" stroke="#ffe8ca" stroke-width="1.51"/><path d="M1833,966L1781,1113L1879,1123Z" fill="#ffcf92" stroke="#ffcf92" stroke-width="1.51"/><path d="M1781,1113L1779,1310L1879,1123Z" fill="#ffc77e" stroke="#ffc77e" stroke-width="1.51"/><path d="M1799,496L1805,730L1901,685Z" fill="#ffe4c0" stroke="#ffe4c0" stroke-width="1.51"/><path d="M1668,-37L1734,146L1789,-92Z" fill="#e1e4c0" stroke="#e1e4c0" stroke-width="1.51"/><path d="M1734,146L1748,205L1882,141Z" fill="#f5e4c1" stroke="#f5e4c1" stroke-width="1.51"/><path d="M1643,1262L1779,1310L1781,1113Z" fill="#ffc77f" stroke="#ffc77f" stroke-width="1.51"/><path d="M1667,1024L1781,1113L1833,966Z" fill="#ffd6a0" stroke="#ffd6a0" stroke-width="1.51"/><path d="M1768,865L1667,1024L1833,966Z" fill="#ffddb1" stroke="#ffddb1" stroke-width="1.51"/><path d="M1730,442L1624,538L1799,496Z" fill="#ffead0" stroke="#ffead0" stroke-width="1.51"/><path d="M1624,538L1682,647L1799,496Z" fill="#ffebd2" stroke="#ffebd2" stroke-width="1.51"/><path d="M1671,840L1768,865L1805,730Z" fill="#ffe9cc" stroke="#ffe9cc" stroke-width="1.51"/><path d="M1682,647L1671,840L1805,730Z" fill="#ffead0" stroke="#ffead0" stroke-width="1.51"/><path d="M1631,219L1686,396L1748,205Z" fill="#ffecd4" stroke="#ffecd4" stroke-width="1.51"/><path d="M1595,1183L1643,1262L1781,1113Z" fill="#ffce90" stroke="#ffce90" stroke-width="1.51"/><path d="M1671,840L1667,1024L1768,865Z" fill="#ffe3c0" stroke="#ffe3c0" stroke-width="1.51"/><path d="M1666,-233L1668,-37L1781,-181Z" fill="#cce2bb" stroke="#cce2bb" stroke-width="1.51"/><path d="M1781,-181L1668,-37L1789,-92Z" fill="#d3e1b8" stroke="#d3e1b8" stroke-width="1.51"/><path d="M1668,-37L1592,101L1734,146Z" fill="#e8e9cc" stroke="#e8e9cc" stroke-width="1.51"/><path d="M1667,1024L1595,1183L1781,1113Z" fill="#ffd49e" stroke="#ffd49e" stroke-width="1.51"/><path d="M1734,146L1631,219L1748,205Z" fill="#f7eacd" stroke="#f7eacd" stroke-width="1.51"/><path d="M1686,396L1624,538L1730,442Z" fill="#ffecd5" stroke="#ffecd5" stroke-width="1.51"/><path d="M1592,101L1631,219L1734,146Z" fill="#f3ecd2" stroke="#f3ecd2" stroke-width="1.51"/><path d="M1666,-233L1523,-114L1668,-37Z" fill="#cee7c7" stroke="#cee7c7" stroke-width="1.51"/><path d="M126,1261L-197,1298L615,1334Z" fill="#e5d295" stroke="#e5d295" stroke-width="1.51"/><path d="M1456,672L1465,834L1671,840Z" fill="#fff5e8" stroke="#fff5e8" stroke-width="1.51"/><path d="M1499,996L1667,1024L1671,840Z" fill="#ffe5c3" stroke="#ffe5c3" stroke-width="1.51"/><path d="M1456,672L1671,840L1682,647Z" fill="#fff1df" stroke="#fff1df" stroke-width="1.51"/><path d="M1464,440L1624,538L1686,396Z" fill="#fff1e0" stroke="#fff1e0" stroke-width="1.51"/><path d="M1498,278L1464,440L1686,396Z" fill="#fff4e6" stroke="#fff4e6" stroke-width="1.51"/><path d="M1631,219L1498,278L1686,396Z" fill="#fff1de" stroke="#fff1de" stroke-width="1.51"/><path d="M1465,834L1499,996L1671,840Z" fill="#ffeed8" stroke="#ffeed8" stroke-width="1.51"/><path d="M1624,538L1456,672L1682,647Z" fill="#fff2e1" stroke="#fff2e1" stroke-width="1.51"/><path d="M1499,996L1595,1183L1667,1024Z" fill="#ffddb1" stroke="#ffddb1" stroke-width="1.51"/><path d="M1484,68L1592,101L1668,-37Z" fill="#e3eed5" stroke="#e3eed5" stroke-width="1.51"/><path d="M1523,-114L1484,68L1668,-37Z" fill="#daedd4" stroke="#daedd4" stroke-width="1.51"/><path d="M1432,-205L1523,-114L1666,-233Z" fill="#c5eace" stroke="#c5eace" stroke-width="1.51"/><path d="M1499,996L1457,1133L1595,1183Z" fill="#ffdeb3" stroke="#ffdeb3" stroke-width="1.51"/><path d="M1446,590L1456,672L1624,538Z" fill="#fff6eb" stroke="#fff6eb" stroke-width="1.51"/><path d="M1595,1183L1516,1250L1643,1262Z" fill="#ffd092" stroke="#ffd092" stroke-width="1.51"/><path d="M1592,101L1498,278L1631,219Z" fill="#f8f1df" stroke="#f8f1df" stroke-width="1.51"/><path d="M1464,440L1446,590L1624,538Z" fill="#fff6eb" stroke="#fff6eb" stroke-width="1.51"/><path d="M1297,1260L1238,1339L1516,1250Z" fill="#ffd8a6" stroke="#ffd8a6" stroke-width="1.51"/><path d="M1484,68L1498,278L1592,101Z" fill="#f1f3e2" stroke="#f1f3e2" stroke-width="1.51"/><path d="M1457,1133L1516,1250L1595,1183Z" fill="#ffd7a3" stroke="#ffd7a3" stroke-width="1.51"/><path d="M1456,672L1378,787L1465,834Z" fill="#fffbf5" stroke="#fffbf5" stroke-width="1.51"/><path d="M1484,68L1311,274L1498,278Z" fill="#f8faf2" stroke="#f8faf2" stroke-width="1.51"/><path d="M1351,342L1464,440L1498,278Z" fill="#fffaf4" stroke="#fffaf4" stroke-width="1.51"/><path d="M1368,-43L1484,68L1523,-114Z" fill="#d9f3e1" stroke="#d9f3e1" stroke-width="1.51"/><path d="M1432,-205L1368,-43L1523,-114Z" fill="#ccf2de" stroke="#ccf2de" stroke-width="1.51"/><path d="M1296,57L1311,274L1484,68Z" fill="#eefcf7" stroke="#eefcf7" stroke-width="1.51"/><path d="M1465,834L1335,1009L1499,996Z" fill="#fff0dc" stroke="#fff0dc" stroke-width="1.51"/><path d="M1457,1133L1297,1260L1516,1250Z" fill="#ffdbaa" stroke="#ffdbaa" stroke-width="1.51"/><path d="M1068,1277L743,1317L1238,1339Z" fill="#ffd6a0" stroke="#ffd6a0" stroke-width="1.51"/><path d="M1335,1009L1457,1133L1499,996Z" fill="#ffe8c9" stroke="#ffe8c9" stroke-width="1.51"/><path d="M1311,274L1351,342L1498,278Z" fill="#fffdfb" stroke="#fffdfb" stroke-width="1.51"/><path d="M1299,497L1446,590L1464,440Z" fill="#fffcf9" stroke="#fffcf9" stroke-width="1.51"/><path d="M1378,787L1335,1009L1465,834Z" fill="#fff8ee" stroke="#fff8ee" stroke-width="1.51"/><path d="M1368,-43L1296,57L1484,68Z" fill="#dff8ee" stroke="#dff8ee" stroke-width="1.51"/><path d="M1219,-239L1320,-170L1432,-205Z" fill="#bff4e5" stroke="#bff4e5" stroke-width="1.51"/><path d="M1320,-170L1368,-43L1432,-205Z" fill="#c9f5e6" stroke="#c9f5e6" stroke-width="1.51"/><path d="M1335,1009L1300,1113L1457,1133Z" fill="#ffe8cb" stroke="#ffe8cb" stroke-width="1.51"/><path d="M1300,1113L1297,1260L1457,1133Z" fill="#ffe2bc" stroke="#ffe2bc" stroke-width="1.51"/><path d="M1351,342L1299,497L1464,440Z" fill="#fffefd" stroke="#fffefd" stroke-width="1.51"/><path d="M1446,590L1308,735L1456,672Z" fill="#fffcf9" stroke="#fffcf9" stroke-width="1.51"/><path d="M1308,735L1378,787L1456,672Z" fill="#fffefc" stroke="#fffefc" stroke-width="1.51"/><path d="M840,1281L743,1317L1068,1277Z" fill="#ffd7a4" stroke="#ffd7a4" stroke-width="1.51"/><path d="M1299,497L1308,735L1446,590Z" fill="#ffffff" stroke="#ffffff" stroke-width="1.51"/><path d="M1299,497L1156,699L1308,735Z" fill="#ffffff" stroke="#ffffff" stroke-width="1.51"/><path d="M1296,57L1204,112L1311,274Z" fill="#f0fdf8" stroke="#f0fdf8" stroke-width="1.51"/><path d="M1211,382L1299,497L1351,342Z" fill="#ffffff" stroke="#ffffff" stroke-width="1.51"/><path d="M1159,839L1335,1009L1378,787Z" fill="#fff9f3" stroke="#fff9f3" stroke-width="1.51"/><path d="M1308,735L1159,839L1378,787Z" fill="#ffffff" stroke="#ffffff" stroke-width="1.51"/><path d="M1159,839L1225,1037L1335,1009Z" fill="#fff3e3" stroke="#fff3e3" stroke-width="1.51"/><path d="M1320,-170L1167,-67L1368,-43Z" fill="#cff7eb" stroke="#cff7eb" stroke-width="1.51"/><path d="M1167,-67L1296,57L1368,-43Z" fill="#d9f9ef" stroke="#d9f9ef" stroke-width="1.51"/><path d="M1209,1153L1297,1260L1300,1113Z" fill="#ffe1ba" stroke="#ffe1ba" stroke-width="1.51"/><path d="M1204,112L1164,184L1311,274Z" fill="#f5fefa" stroke="#f5fefa" stroke-width="1.51"/><path d="M1311,274L1211,382L1351,342Z" fill="#ffffff" stroke="#ffffff" stroke-width="1.51"/><path d="M1130,507L1156,699L1299,497Z" fill="#ffffff" stroke="#ffffff" stroke-width="1.51"/><path d="M1225,1037L1300,1113L1335,1009Z" fill="#ffebd1" stroke="#ffebd1" stroke-width="1.51"/><path d="M1219,-239L1167,-67L1320,-170Z" fill="#c6f5e7" stroke="#c6f5e7" stroke-width="1.51"/><path d="M1156,699L1159,839L1308,735Z" fill="#ffffff" stroke="#ffffff" stroke-width="1.51"/><path d="M1164,184L1211,382L1311,274Z" fill="#ffffff" stroke="#ffffff" stroke-width="1.51"/><path d="M1167,-67L1204,112L1296,57Z" fill="#e0faf2" stroke="#e0faf2" stroke-width="1.51"/><path d="M1211,382L1130,507L1299,497Z" fill="#ffffff" stroke="#ffffff" stroke-width="1.51"/><path d="M1225,1037L1209,1153L1300,1113Z" fill="#ffe7c8" stroke="#ffe7c8" stroke-width="1.51"/><path d="M1209,1153L1238,1339L1297,1260Z" fill="#ffdbac" stroke="#ffdbac" stroke-width="1.51"/><path d="M-177,-242L-24,-221L324,-245Z" fill="#82eacf" stroke="#82eacf" stroke-width="1.51"/><path d="M609,-264L755,-242L877,-257Z" fill="#b8f3e2" stroke="#b8f3e2" stroke-width="1.51"/><path d="M1130,507L1072,663L1156,699Z" fill="#ffffff" stroke="#ffffff" stroke-width="1.51"/><path d="M1087,1168L1068,1277L1209,1153Z" fill="#ffdfb6" stroke="#ffdfb6" stroke-width="1.51"/><path d="M1164,184L1016,241L1211,382Z" fill="#ffffff" stroke="#ffffff" stroke-width="1.51"/><path d="M1159,839L1033,1022L1225,1037Z" fill="#fff2e2" stroke="#fff2e2" stroke-width="1.51"/><path d="M1209,1153L1068,1277L1238,1339Z" fill="#ffdaab" stroke="#ffdaab" stroke-width="1.51"/><path d="M1167,-67L1045,-59L1204,112Z" fill="#dbf9f0" stroke="#dbf9f0" stroke-width="1.51"/><path d="M1021,-262L1167,-67L1219,-239Z" fill="#c1f5e5" stroke="#c1f5e5" stroke-width="1.51"/><path d="M1087,1168L1209,1153L1225,1037Z" fill="#ffe6c5" stroke="#ffe6c5" stroke-width="1.51"/><path d="M1033,1022L1087,1168L1225,1037Z" fill="#ffe9cd" stroke="#ffe9cd" stroke-width="1.51"/><path d="M1021,-262L1045,-59L1167,-67Z" fill="#caf6e9" stroke="#caf6e9" stroke-width="1.51"/><path d="M1016,241L1029,444L1211,382Z" fill="#ffffff" stroke="#ffffff" stroke-width="1.51"/><path d="M1045,-59L1002,135L1204,112Z" fill="#e4fbf3" stroke="#e4fbf3" stroke-width="1.51"/><path d="M1029,444L1130,507L1211,382Z" fill="#ffffff" stroke="#ffffff" stroke-width="1.51"/><path d="M1002,135L1164,184L1204,112Z" fill="#effdf8" stroke="#effdf8" stroke-width="1.51"/><path d="M1066,510L1072,663L1130,507Z" fill="#ffffff" stroke="#ffffff" stroke-width="1.51"/><path d="M1072,663L1017,834L1156,699Z" fill="#ffffff" stroke="#ffffff" stroke-width="1.51"/><path d="M1156,699L1017,834L1159,839Z" fill="#ffffff" stroke="#ffffff" stroke-width="1.51"/><path d="M1017,834L1033,1022L1159,839Z" fill="#fff8ef" stroke="#fff8ef" stroke-width="1.51"/><path d="M1002,135L1016,241L1164,184Z" fill="#f5fefa" stroke="#f5fefa" stroke-width="1.51"/><path d="M1029,444L1066,510L1130,507Z" fill="#ffffff" stroke="#ffffff" stroke-width="1.51"/><path d="M1016,241L925,278L1029,444Z" fill="#ffffff" stroke="#ffffff" stroke-width="1.51"/><path d="M884,-24L1002,135L1045,-59Z" fill="#defaf1" stroke="#defaf1" stroke-width="1.51"/><path d="M835,1143L840,1281L1068,1277Z" fill="#ffdcaf" stroke="#ffdcaf" stroke-width="1.51"/><path d="M839,730L1017,834L1072,663Z" fill="#ffffff" stroke="#ffffff" stroke-width="1.51"/><path d="M1066,510L834,521L1072,663Z" fill="#ffffff" stroke="#ffffff" stroke-width="1.51"/><path d="M1033,1022L915,1017L1087,1168Z" fill="#ffeace" stroke="#ffeace" stroke-width="1.51"/><path d="M915,1017L835,1143L1087,1168Z" fill="#ffe6c7" stroke="#ffe6c7" stroke-width="1.51"/><path d="M835,1143L1068,1277L1087,1168Z" fill="#ffe0b6" stroke="#ffe0b6" stroke-width="1.51"/><path d="M1017,834L915,1017L1033,1022Z" fill="#fff3e3" stroke="#fff3e3" stroke-width="1.51"/><path d="M1021,-262L877,-257L1045,-59Z" fill="#c1f4e5" stroke="#c1f4e5" stroke-width="1.51"/><path d="M877,-257L884,-24L1045,-59Z" fill="#ccf7ea" stroke="#ccf7ea" stroke-width="1.51"/><path d="M834,521L839,730L1072,663Z" fill="#ffffff" stroke="#ffffff" stroke-width="1.51"/><path d="M1029,444L834,521L1066,510Z" fill="#ffffff" stroke="#ffffff" stroke-width="1.51"/><path d="M293,1251L126,1261L615,1334Z" fill="#f2d59e" stroke="#f2d59e" stroke-width="1.51"/><path d="M839,730L844,798L1017,834Z" fill="#ffffff" stroke="#ffffff" stroke-width="1.51"/><path d="M925,278L831,412L1029,444Z" fill="#ffffff" stroke="#ffffff" stroke-width="1.51"/><path d="M844,798L915,1017L1017,834Z" fill="#fff9f2" stroke="#fff9f2" stroke-width="1.51"/><path d="M831,412L834,521L1029,444Z" fill="#ffffff" stroke="#ffffff" stroke-width="1.51"/><path d="M1002,135L925,278L1016,241Z" fill="#f9fefc" stroke="#f9fefc" stroke-width="1.51"/><path d="M884,-24L829,141L1002,135Z" fill="#e7fbf5" stroke="#e7fbf5" stroke-width="1.51"/><path d="M829,141L925,278L1002,135Z" fill="#f5fefa" stroke="#f5fefa" stroke-width="1.51"/><path d="M755,-242L721,-103L877,-257Z" fill="#c0f4e5" stroke="#c0f4e5" stroke-width="1.51"/><path d="M877,-257L721,-103L884,-24Z" fill="#caf6e9" stroke="#caf6e9" stroke-width="1.51"/><path d="M771,55L829,141L884,-24Z" fill="#e4fbf3" stroke="#e4fbf3" stroke-width="1.51"/><path d="M844,798L732,1035L915,1017Z" fill="#fff3e5" stroke="#fff3e5" stroke-width="1.51"/><path d="M728,247L831,412L925,278Z" fill="#ffffff" stroke="#ffffff" stroke-width="1.51"/><path d="M829,141L728,247L925,278Z" fill="#fafefc" stroke="#fafefc" stroke-width="1.51"/><path d="M732,1035L835,1143L915,1017Z" fill="#ffeacf" stroke="#ffeacf" stroke-width="1.51"/><path d="M834,521L714,691L839,730Z" fill="#ffffff" stroke="#ffffff" stroke-width="1.51"/><path d="M835,1143L761,1184L840,1281Z" fill="#ffdfb5" stroke="#ffdfb5" stroke-width="1.51"/><path d="M691,794L732,1035L844,798Z" fill="#fffaf3" stroke="#fffaf3" stroke-width="1.51"/><path d="M721,-103L771,55L884,-24Z" fill="#d8f8ef" stroke="#d8f8ef" stroke-width="1.51"/><path d="M744,440L751,499L831,412Z" fill="#ffffff" stroke="#ffffff" stroke-width="1.51"/><path d="M728,247L744,440L831,412Z" fill="#ffffff" stroke="#ffffff" stroke-width="1.51"/><path d="M831,412L751,499L834,521Z" fill="#ffffff" stroke="#ffffff" stroke-width="1.51"/><path d="M751,499L714,691L834,521Z" fill="#ffffff" stroke="#ffffff" stroke-width="1.51"/><path d="M732,1035L761,1184L835,1143Z" fill="#ffe6c5" stroke="#ffe6c5" stroke-width="1.51"/><path d="M761,1184L743,1317L840,1281Z" fill="#ffdaaa" stroke="#ffdaaa" stroke-width="1.51"/><path d="M839,730L691,794L844,798Z" fill="#ffffff" stroke="#ffffff" stroke-width="1.51"/><path d="M714,691L691,794L839,730Z" fill="#ffffff" stroke="#ffffff" stroke-width="1.51"/><path d="M691,794L625,832L732,1035Z" fill="#fff9f1" stroke="#fff9f1" stroke-width="1.51"/><path d="M728,247L640,362L744,440Z" fill="#ffffff" stroke="#ffffff" stroke-width="1.51"/><path d="M771,55L728,247L829,141Z" fill="#f0fdf8" stroke="#f0fdf8" stroke-width="1.51"/><path d="M601,-25L632,58L721,-103Z" fill="#d8f8ef" stroke="#d8f8ef" stroke-width="1.51"/><path d="M625,832L606,991L732,1035Z" fill="#fff3e4" stroke="#fff3e4" stroke-width="1.51"/><path d="M587,679L714,691L751,499Z" fill="#ffffff" stroke="#ffffff" stroke-width="1.51"/><path d="M531,528L587,679L751,499Z" fill="#ffffff" stroke="#ffffff" stroke-width="1.51"/><path d="M630,1172L743,1317L761,1184Z" fill="#ffddb1" stroke="#ffddb1" stroke-width="1.51"/><path d="M732,1035L630,1172L761,1184Z" fill="#ffe5c3" stroke="#ffe5c3" stroke-width="1.51"/><path d="M632,58L728,247L771,55Z" fill="#ecfcf7" stroke="#ecfcf7" stroke-width="1.51"/><path d="M721,-103L632,58L771,55Z" fill="#dcf9f0" stroke="#dcf9f0" stroke-width="1.51"/><path d="M632,58L613,258L728,247Z" fill="#f5fefa" stroke="#f5fefa" stroke-width="1.51"/><path d="M630,1172L615,1334L743,1317Z" fill="#ffd9a7" stroke="#ffd9a7" stroke-width="1.51"/><path d="M609,-264L721,-103L755,-242Z" fill="#bff4e5" stroke="#bff4e5" stroke-width="1.51"/><path d="M744,440L531,528L751,499Z" fill="#ffffff" stroke="#ffffff" stroke-width="1.51"/><path d="M613,258L640,362L728,247Z" fill="#ffffff" stroke="#ffffff" stroke-width="1.51"/><path d="M640,362L531,528L744,440Z" fill="#ffffff" stroke="#ffffff" stroke-width="1.51"/><path d="M473,1257L293,1251L615,1334Z" fill="#fcd7a2" stroke="#fcd7a2" stroke-width="1.51"/><path d="M606,991L630,1172L732,1035Z" fill="#ffeacf" stroke="#ffeacf" stroke-width="1.51"/><path d="M609,-264L601,-25L721,-103Z" fill="#caf6e9" stroke="#caf6e9" stroke-width="1.51"/><path d="M587,679L691,794L714,691Z" fill="#ffffff" stroke="#ffffff" stroke-width="1.51"/><path d="M587,679L625,832L691,794Z" fill="#ffffff" stroke="#ffffff" stroke-width="1.51"/><path d="M442,-175L601,-25L609,-264Z" fill="#c5f5e7" stroke="#c5f5e7" stroke-width="1.51"/><path d="M587,679L423,737L625,832Z" fill="#fefffe" stroke="#fefffe" stroke-width="1.51"/><path d="M446,894L606,991L625,832Z" fill="#fff7ed" stroke="#fff7ed" stroke-width="1.51"/><path d="M606,991L452,1002L630,1172Z" fill="#ffebd1" stroke="#ffebd1" stroke-width="1.51"/><path d="M452,1002L393,1099L630,1172Z" fill="#fce7c8" stroke="#fce7c8" stroke-width="1.51"/><path d="M473,1257L615,1334L630,1172Z" fill="#ffdaab" stroke="#ffdaab" stroke-width="1.51"/><path d="M464,70L613,258L632,58Z" fill="#edfcf7" stroke="#edfcf7" stroke-width="1.51"/><path d="M613,258L455,370L640,362Z" fill="#ffffff" stroke="#ffffff" stroke-width="1.51"/><path d="M455,370L531,528L640,362Z" fill="#fefffe" stroke="#fefffe" stroke-width="1.51"/><path d="M442,-175L471,-13L601,-25Z" fill="#cdf6ea" stroke="#cdf6ea" stroke-width="1.51"/><path d="M393,1099L473,1257L630,1172Z" fill="#fee0b8" stroke="#fee0b8" stroke-width="1.51"/><path d="M601,-25L464,70L632,58Z" fill="#e0faf2" stroke="#e0faf2" stroke-width="1.51"/><path d="M464,70L384,245L613,258Z" fill="#effdf8" stroke="#effdf8" stroke-width="1.51"/><path d="M471,-13L464,70L601,-25Z" fill="#d8f9ee" stroke="#d8f9ee" stroke-width="1.51"/><path d="M324,-245L442,-175L609,-264Z" fill="#b2f2df" stroke="#b2f2df" stroke-width="1.51"/><path d="M423,737L446,894L625,832Z" fill="#fafefb" stroke="#fafefb" stroke-width="1.51"/><path d="M446,894L452,1002L606,991Z" fill="#faf1e0" stroke="#faf1e0" stroke-width="1.51"/><path d="M384,245L455,370L613,258Z" fill="#f8fefc" stroke="#f8fefc" stroke-width="1.51"/><path d="M-24,-221L181,-204L324,-245Z" fill="#92edd4" stroke="#92edd4" stroke-width="1.51"/><path d="M531,528L423,737L587,679Z" fill="#fbfffd" stroke="#fbfffd" stroke-width="1.51"/><path d="M455,370L413,495L531,528Z" fill="#f7fefb" stroke="#f7fefb" stroke-width="1.51"/><path d="M413,495L423,737L531,528Z" fill="#f6fefb" stroke="#f6fefb" stroke-width="1.51"/><path d="M296,518L297,665L413,495Z" fill="#ebfcf6" stroke="#ebfcf6" stroke-width="1.51"/><path d="M413,495L297,665L423,737Z" fill="#effcf8" stroke="#effcf8" stroke-width="1.51"/><path d="M329,72L384,245L464,70Z" fill="#defaf1" stroke="#defaf1" stroke-width="1.51"/><path d="M442,-175L246,-95L471,-13Z" fill="#bef4e4" stroke="#bef4e4" stroke-width="1.51"/><path d="M246,-95L329,72L471,-13Z" fill="#c6f6e7" stroke="#c6f6e7" stroke-width="1.51"/><path d="M329,72L464,70L471,-13Z" fill="#d5f8ed" stroke="#d5f8ed" stroke-width="1.51"/><path d="M393,1099L290,1182L473,1257Z" fill="#f5deb2" stroke="#f5deb2" stroke-width="1.51"/><path d="M290,1182L293,1251L473,1257Z" fill="#f3daa8" stroke="#f3daa8" stroke-width="1.51"/><path d="M423,737L237,832L446,894Z" fill="#eefcf6" stroke="#eefcf6" stroke-width="1.51"/><path d="M446,894L317,1004L452,1002Z" fill="#f2f0dc" stroke="#f2f0dc" stroke-width="1.51"/><path d="M317,1004L393,1099L452,1002Z" fill="#f2eace" stroke="#f2eace" stroke-width="1.51"/><path d="M252,389L413,495L455,370Z" fill="#eefcf7" stroke="#eefcf7" stroke-width="1.51"/><path d="M384,245L252,389L455,370Z" fill="#edfcf7" stroke="#edfcf7" stroke-width="1.51"/><path d="M324,-245L246,-95L442,-175Z" fill="#aef1de" stroke="#aef1de" stroke-width="1.51"/><path d="M237,832L317,1004L446,894Z" fill="#ebf4e3" stroke="#ebf4e3" stroke-width="1.51"/><path d="M252,389L296,518L413,495Z" fill="#e9fcf5" stroke="#e9fcf5" stroke-width="1.51"/><path d="M297,665L237,832L423,737Z" fill="#e9fcf5" stroke="#e9fcf5" stroke-width="1.51"/><path d="M329,72L250,226L384,245Z" fill="#defaf0" stroke="#defaf0" stroke-width="1.51"/><path d="M250,226L252,389L384,245Z" fill="#e7fbf4" stroke="#e7fbf4" stroke-width="1.51"/><path d="M317,1004L290,1182L393,1099Z" fill="#eee5c0" stroke="#eee5c0" stroke-width="1.51"/><path d="M-60,1243L-197,1298L126,1261Z" fill="#d2d193" stroke="#d2d193" stroke-width="1.51"/><path d="M147,744L237,832L297,665Z" fill="#e1faf2" stroke="#e1faf2" stroke-width="1.51"/><path d="M296,518L148,587L297,665Z" fill="#e3faf3" stroke="#e3faf3" stroke-width="1.51"/><path d="M237,832L89,945L317,1004Z" fill="#e1f0dc" stroke="#e1f0dc" stroke-width="1.51"/><path d="M118,1125L290,1182L317,1004Z" fill="#e7e2bb" stroke="#e7e2bb" stroke-width="1.51"/><path d="M181,-204L246,-95L324,-245Z" fill="#a3efda" stroke="#a3efda" stroke-width="1.51"/><path d="M139,64L250,226L329,72Z" fill="#cef7ea" stroke="#cef7ea" stroke-width="1.51"/><path d="M246,-95L139,64L329,72Z" fill="#bff4e4" stroke="#bff4e4" stroke-width="1.51"/><path d="M89,945L118,1125L317,1004Z" fill="#dfe8c8" stroke="#dfe8c8" stroke-width="1.51"/><path d="M147,744L173,811L237,832Z" fill="#ddf9f0" stroke="#ddf9f0" stroke-width="1.51"/><path d="M149,-85L139,64L246,-95Z" fill="#b1f2df" stroke="#b1f2df" stroke-width="1.51"/><path d="M250,226L147,251L252,389Z" fill="#e0faf1" stroke="#e0faf1" stroke-width="1.51"/><path d="M290,1182L126,1261L293,1251Z" fill="#e9d8a3" stroke="#e9d8a3" stroke-width="1.51"/><path d="M252,389L143,426L296,518Z" fill="#e1faf2" stroke="#e1faf2" stroke-width="1.51"/><path d="M148,587L147,744L297,665Z" fill="#def9f1" stroke="#def9f1" stroke-width="1.51"/><path d="M143,426L148,587L296,518Z" fill="#def9f1" stroke="#def9f1" stroke-width="1.51"/><path d="M118,1125L126,1261L290,1182Z" fill="#e4dba9" stroke="#e4dba9" stroke-width="1.51"/><path d="M173,811L89,945L237,832Z" fill="#dcf5e7" stroke="#dcf5e7" stroke-width="1.51"/><path d="M181,-204L149,-85L246,-95Z" fill="#a5f0db" stroke="#a5f0db" stroke-width="1.51"/><path d="M139,64L147,251L250,226Z" fill="#d1f7eb" stroke="#d1f7eb" stroke-width="1.51"/><path d="M147,251L143,426L252,389Z" fill="#dcf9f0" stroke="#dcf9f0" stroke-width="1.51"/><path d="M89,945L18,1001L118,1125Z" fill="#d6e6c4" stroke="#d6e6c4" stroke-width="1.51"/><path d="M8,73L14,242L139,64Z" fill="#bdf4e3" stroke="#bdf4e3" stroke-width="1.51"/><path d="M14,242L143,426L147,251Z" fill="#d5f8ed" stroke="#d5f8ed" stroke-width="1.51"/><path d="M139,64L14,242L147,251Z" fill="#caf6e9" stroke="#caf6e9" stroke-width="1.51"/><path d="M28,570L147,744L148,587Z" fill="#d5f8ed" stroke="#d5f8ed" stroke-width="1.51"/><path d="M143,426L28,570L148,587Z" fill="#d5f8ed" stroke="#d5f8ed" stroke-width="1.51"/><path d="M-24,-221L149,-85L181,-204Z" fill="#94edd5" stroke="#94edd5" stroke-width="1.51"/><path d="M28,570L-30,642L147,744Z" fill="#d0f7eb" stroke="#d0f7eb" stroke-width="1.51"/><path d="M8,73L139,64L149,-85Z" fill="#b1f2df" stroke="#b1f2df" stroke-width="1.51"/><path d="M147,744L-13,894L173,811Z" fill="#d5f8ed" stroke="#d5f8ed" stroke-width="1.51"/><path d="M-13,894L89,945L173,811Z" fill="#d4f2df" stroke="#d4f2df" stroke-width="1.51"/><path d="M118,1125L38,1150L126,1261Z" fill="#dcdaa8" stroke="#dcdaa8" stroke-width="1.51"/><path d="M-23,436L28,570L143,426Z" fill="#d0f7eb" stroke="#d0f7eb" stroke-width="1.51"/><path d="M14,242L-23,436L143,426Z" fill="#cff7eb" stroke="#cff7eb" stroke-width="1.51"/><path d="M-44,-107L8,73L149,-85Z" fill="#a3f0da" stroke="#a3f0da" stroke-width="1.51"/><path d="M-24,-221L-44,-107L149,-85Z" fill="#91ecd4" stroke="#91ecd4" stroke-width="1.51"/><path d="M-30,642L-13,894L147,744Z" fill="#cef7eb" stroke="#cef7eb" stroke-width="1.51"/><path d="M18,1001L38,1150L118,1125Z" fill="#d6e1b7" stroke="#d6e1b7" stroke-width="1.51"/><path d="M38,1150L-60,1243L126,1261Z" fill="#d8d69e" stroke="#d8d69e" stroke-width="1.51"/><path d="M-30,642L-154,798L-13,894Z" fill="#c5f5e7" stroke="#c5f5e7" stroke-width="1.51"/><path d="M-13,894L18,1001L89,945Z" fill="#d0ecd1" stroke="#d0ecd1" stroke-width="1.51"/><path d="M-44,-107L-116,-79L8,73Z" fill="#99eed6" stroke="#99eed6" stroke-width="1.51"/><path d="M-169,372L-23,436L14,242Z" fill="#c5f5e7" stroke="#c5f5e7" stroke-width="1.51"/><path d="M8,73L-131,203L14,242Z" fill="#bbf3e3" stroke="#bbf3e3" stroke-width="1.51"/><path d="M-115,973L-187,1119L18,1001Z" fill="#c7e3bd" stroke="#c7e3bd" stroke-width="1.51"/><path d="M18,1001L-187,1119L38,1150Z" fill="#cddfb4" stroke="#cddfb4" stroke-width="1.51"/><path d="M-187,1119L-60,1243L38,1150Z" fill="#ced9a4" stroke="#ced9a4" stroke-width="1.51"/><path d="M-207,501L-30,642L-23,436Z" fill="#c3f5e6" stroke="#c3f5e6" stroke-width="1.51"/><path d="M-131,203L-169,372L14,242Z" fill="#c2f5e6" stroke="#c2f5e6" stroke-width="1.51"/><path d="M-13,894L-115,973L18,1001Z" fill="#caeacd" stroke="#caeacd" stroke-width="1.51"/><path d="M-23,436L-30,642L28,570Z" fill="#caf6e9" stroke="#caf6e9" stroke-width="1.51"/><path d="M-172,142L-131,203L8,73Z" fill="#aff1df" stroke="#aff1df" stroke-width="1.51"/><path d="M-116,-79L-172,142L8,73Z" fill="#a1efd9" stroke="#a1efd9" stroke-width="1.51"/><path d="M-207,501L-190,658L-30,642Z" fill="#bdf4e4" stroke="#bdf4e4" stroke-width="1.51"/><path d="M-190,658L-154,798L-30,642Z" fill="#bff4e5" stroke="#bff4e5" stroke-width="1.51"/><path d="M-154,798L-115,973L-13,894Z" fill="#c3efd8" stroke="#c3efd8" stroke-width="1.51"/><path d="M-177,-242L-116,-79L-44,-107Z" fill="#80eace" stroke="#80eace" stroke-width="1.51"/><path d="M-177,-242L-44,-107L-24,-221Z" fill="#7ce9cd" stroke="#7ce9cd" stroke-width="1.51"/><path d="M-169,372L-207,501L-23,436Z" fill="#bef4e4" stroke="#bef4e4" stroke-width="1.51"/><path d="M-187,1119L-197,1298L-60,1243Z" fill="#c9d498" stroke="#c9d498" stroke-width="1.51"/><path d="M-177,-242L-172,142L-116,-79Z" fill="#89ebd1" stroke="#89ebd1" stroke-width="1.51"/><path d="M-154,798L-187,1119L-115,973Z" fill="#c0e8c7" stroke="#c0e8c7" stroke-width="1.51"/><path d="M-172,142L-169,372L-131,203Z" fill="#b8f3e2" stroke="#b8f3e2" stroke-width="1.51"/><path d="M-190,658L-187,1119L-154,798Z" fill="#bbf0da" stroke="#bbf0da" stroke-width="1.51"/><path d="M-177,-242L-207,501L-172,142Z" fill="#a5f0db" stroke="#a5f0db" stroke-width="1.51"/><path d="M-172,142L-207,501L-169,372Z" fill="#b9f3e2" stroke="#b9f3e2" stroke-width="1.51"/><path d="M-190,658L-207,501L-187,1119Z" fill="#b8f3e2" stroke="#b8f3e2" stroke-width="1.51"/><path d="M-207,501L-197,1298L-187,1119Z" fill="#bce6c4" stroke="#bce6c4" stroke-width="1.51"/></svg>