<svg xmlns="http://www.w3.org/2000/svg" width="1920" height="1080"><path d="M1088,1432L851,1456L1886,1406Z" fill="#568ba6" stroke="#568ba6" stroke-width="1.51"/><path d="M1369,1404L1088,1432L1886,1406Z" fill="#5d94b0" stroke="#5d94b0" stroke-width="1.51"/><path d="M1784,-260L1987,-266L2173,-339Z" fill="#88a4b4" stroke="#88a4b4" stroke-width="1.51"/><path d="M953,-333L1784,-260L2173,-339Z" fill="#7a92a0" stroke="#7a92a0" stroke-width="1.51"/><path d="M2156,1037L2172,1327L2259,789Z" fill="#669fbd" stroke="#669fbd" stroke-width="1.51"/><path d="M2207,632L2259,789L2290,456Z" fill="#4c7e98" stroke="#4c7e98" stroke-width="1.51"/><path d="M2035,-67L2193,187L2328,-51Z" fill="#7598ad" stroke="#7598ad" stroke-width="1.51"/><path d="M2173,-339L2035,-67L2328,-51Z" fill="#84a5b8" stroke="#84a5b8" stroke-width="1.51"/><path d="M2193,187L2290,456L2328,-51Z" fill="#6890a7" stroke="#6890a7" stroke-width="1.51"/><path d="M953,-333L1173,-226L1784,-260Z" fill="#687c89" stroke="#687c89" stroke-width="1.51"/><path d="M2010,927L2156,1037L2259,789Z" fill="#5a90ac" stroke="#5a90ac" stroke-width="1.51"/><path d="M2012,514L2207,632L2290,456Z" fill="#44738b" stroke="#44738b" stroke-width="1.51"/><path d="M2193,187L2012,514L2290,456Z" fill="#527d95" stroke="#527d95" stroke-width="1.51"/><path d="M2156,1037L2023,1078L2172,1327Z" fill="#69a3c1" stroke="#69a3c1" stroke-width="1.51"/><path d="M1987,-266L2035,-67L2173,-339Z" fill="#86a4b5" stroke="#86a4b5" stroke-width="1.51"/><path d="M2033,164L2012,514L2193,187Z" fill="#577f95" stroke="#577f95" stroke-width="1.51"/><path d="M2035,-67L2033,164L2193,187Z" fill="#6a8ea2" stroke="#6a8ea2" stroke-width="1.51"/><path d="M2100,667L2010,927L2259,789Z" fill="#5285a0" stroke="#5285a0" stroke-width="1.51"/><path d="M2207,632L2100,667L2259,789Z" fill="#4e809b" stroke="#4e809b" stroke-width="1.51"/><path d="M2012,514L2100,667L2207,632Z" fill="#45748d" stroke="#45748d" stroke-width="1.51"/><path d="M2023,1078L1886,1406L2172,1327Z" fill="#6da8c7" stroke="#6da8c7" stroke-width="1.51"/><path d="M2010,927L2023,1078L2156,1037Z" fill="#5d94b1" stroke="#5d94b1" stroke-width="1.51"/><path d="M1846,1063L1886,1406L2023,1078Z" fill="#629ab7" stroke="#629ab7" stroke-width="1.51"/><path d="M1864,505L2012,514L2033,164Z" fill="#497188" stroke="#497188" stroke-width="1.51"/><path d="M1730,221L1864,505L2033,164Z" fill="#4e7388" stroke="#4e7388" stroke-width="1.51"/><path d="M1856,-5L2033,164L2035,-67Z" fill="#6a8c9f" stroke="#6a8c9f" stroke-width="1.51"/><path d="M2012,514L1788,637L2100,667Z" fill="#3f6d85" stroke="#3f6d85" stroke-width="1.51"/><path d="M1788,637L2010,927L2100,667Z" fill="#487891" stroke="#487891" stroke-width="1.51"/><path d="M1671,1326L1369,1404L1886,1406Z" fill="#639bb9" stroke="#639bb9" stroke-width="1.51"/><path d="M1784,-260L1856,-5L1987,-266Z" fill="#7996a7" stroke="#7996a7" stroke-width="1.51"/><path d="M1788,637L1767,957L2010,927Z" fill="#497a93" stroke="#497a93" stroke-width="1.51"/><path d="M1864,505L1788,637L2012,514Z" fill="#38647b" stroke="#38647b" stroke-width="1.51"/><path d="M2010,927L1846,1063L2023,1078Z" fill="#5a8fab" stroke="#5a8fab" stroke-width="1.51"/><path d="M1987,-266L1856,-5L2035,-67Z" fill="#7795a8" stroke="#7795a8" stroke-width="1.51"/><path d="M1856,-5L1730,221L2033,164Z" fill="#5d7f93" stroke="#5d7f93" stroke-width="1.51"/><path d="M1173,-226L1573,-165L1784,-260Z" fill="#6c8492" stroke="#6c8492" stroke-width="1.51"/><path d="M1767,957L1846,1063L2010,927Z" fill="#5387a2" stroke="#5387a2" stroke-width="1.51"/><path d="M1846,1063L1671,1326L1886,1406Z" fill="#629bb8" stroke="#629bb8" stroke-width="1.51"/><path d="M1173,-226L1352,-158L1573,-165Z" fill="#637987" stroke="#637987" stroke-width="1.51"/><path d="M1620,727L1767,957L1788,637Z" fill="#406d86" stroke="#406d86" stroke-width="1.51"/><path d="M1784,-260L1604,-130L1856,-5Z" fill="#6f8b9c" stroke="#6f8b9c" stroke-width="1.51"/><path d="M1730,221L1584,345L1864,505Z" fill="#42677c" stroke="#42677c" stroke-width="1.51"/><path d="M1584,345L1788,637L1864,505Z" fill="#375e74" stroke="#375e74" stroke-width="1.51"/><path d="M1491,1120L1671,1326L1846,1063Z" fill="#568ba7" stroke="#568ba7" stroke-width="1.51"/><path d="M1604,-130L1730,221L1856,-5Z" fill="#607e90" stroke="#607e90" stroke-width="1.51"/><path d="M1767,957L1491,1120L1846,1063Z" fill="#50829d" stroke="#50829d" stroke-width="1.51"/><path d="M1620,727L1522,943L1767,957Z" fill="#427089" stroke="#427089" stroke-width="1.51"/><path d="M1522,943L1491,1120L1767,957Z" fill="#497992" stroke="#497992" stroke-width="1.51"/><path d="M1573,-165L1604,-130L1784,-260Z" fill="#6f8999" stroke="#6f8999" stroke-width="1.51"/><path d="M1584,345L1620,727L1788,637Z" fill="#30596f" stroke="#30596f" stroke-width="1.51"/><path d="M1355,15L1488,282L1604,-130Z" fill="#536e80" stroke="#536e80" stroke-width="1.51"/><path d="M1604,-130L1488,282L1730,221Z" fill="#537182" stroke="#537182" stroke-width="1.51"/><path d="M1488,282L1584,345L1730,221Z" fill="#446579" stroke="#446579" stroke-width="1.51"/><path d="M1584,345L1298,650L1620,727Z" fill="#2a5166" stroke="#2a5166" stroke-width="1.51"/><path d="M1425,1309L1369,1404L1671,1326Z" fill="#5a90ac" stroke="#5a90ac" stroke-width="1.51"/><path d="M1491,1120L1425,1309L1671,1326Z" fill="#568aa5" stroke="#568aa5" stroke-width="1.51"/><path d="M1488,282L1289,348L1584,345Z" fill="#3a5a6e" stroke="#3a5a6e" stroke-width="1.51"/><path d="M1289,348L1298,650L1584,345Z" fill="#2c4f62" stroke="#2c4f62" stroke-width="1.51"/><path d="M1573,-165L1355,15L1604,-130Z" fill="#627a8a" stroke="#627a8a" stroke-width="1.51"/><path d="M1298,650L1522,943L1620,727Z" fill="#356076" stroke="#356076" stroke-width="1.51"/><path d="M1352,-158L1355,15L1573,-165Z" fill="#5e7785" stroke="#5e7785" stroke-width="1.51"/><path d="M1298,650L1217,871L1522,943Z" fill="#335d73" stroke="#335d73" stroke-width="1.51"/><path d="M1355,15L1268,143L1488,282Z" fill="#476274" stroke="#476274" stroke-width="1.51"/><path d="M1236,1009L1491,1120L1522,943Z" fill="#427189" stroke="#427189" stroke-width="1.51"/><path d="M1217,871L1236,1009L1522,943Z" fill="#39657c" stroke="#39657c" stroke-width="1.51"/><path d="M1268,143L1289,348L1488,282Z" fill="#3c5a6b" stroke="#3c5a6b" stroke-width="1.51"/><path d="M1236,1009L1425,1309L1491,1120Z" fill="#497992" stroke="#497992" stroke-width="1.51"/><path d="M337,-323L629,-269L953,-333Z" fill="#6e7b83" stroke="#6e7b83" stroke-width="1.51"/><path d="M1168,1052L1088,1432L1369,1404Z" fill="#4b7c96" stroke="#4b7c96" stroke-width="1.51"/><path d="M1168,1052L1369,1404L1425,1309Z" fill="#4d7e99" stroke="#4d7e99" stroke-width="1.51"/><path d="M1236,1009L1168,1052L1425,1309Z" fill="#43718a" stroke="#43718a" stroke-width="1.51"/><path d="M1289,348L1107,331L1298,650Z" fill="#274759" stroke="#274759" stroke-width="1.51"/><path d="M1352,-158L1173,-226L1355,15Z" fill="#5b717f" stroke="#5b717f" stroke-width="1.51"/><path d="M1022,-128L1268,143L1355,15Z" fill="#4c6472" stroke="#4c6472" stroke-width="1.51"/><path d="M1173,-226L1022,-128L1355,15Z" fill="#556a78" stroke="#556a78" stroke-width="1.51"/><path d="M1107,331L1104,697L1298,650Z" fill="#1c4052" stroke="#1c4052" stroke-width="1.51"/><path d="M1268,143L1107,331L1289,348Z" fill="#365263" stroke="#365263" stroke-width="1.51"/><path d="M1104,697L1217,871L1298,650Z" fill="#284f63" stroke="#284f63" stroke-width="1.51"/><path d="M925,439L1104,697L1107,331Z" fill="#1c3b4c" stroke="#1c3b4c" stroke-width="1.51"/><path d="M869,1212L1088,1432L1168,1052Z" fill="#406d86" stroke="#406d86" stroke-width="1.51"/><path d="M987,251L1107,331L1268,143Z" fill="#354f5f" stroke="#354f5f" stroke-width="1.51"/><path d="M1022,-128L987,251L1268,143Z" fill="#405767" stroke="#405767" stroke-width="1.51"/><path d="M991,994L1168,1052L1217,871Z" fill="#335d73" stroke="#335d73" stroke-width="1.51"/><path d="M1217,871L1168,1052L1236,1009Z" fill="#376279" stroke="#376279" stroke-width="1.51"/><path d="M1104,697L991,994L1217,871Z" fill="#2b5368" stroke="#2b5368" stroke-width="1.51"/><path d="M822,164L987,251L1022,-128Z" fill="#3b515f" stroke="#3b515f" stroke-width="1.51"/><path d="M991,994L869,1212L1168,1052Z" fill="#366076" stroke="#366076" stroke-width="1.51"/><path d="M953,-333L1022,-128L1173,-226Z" fill="#596b77" stroke="#596b77" stroke-width="1.51"/><path d="M788,40L822,164L1022,-128Z" fill="#455966" stroke="#455966" stroke-width="1.51"/><path d="M869,1212L851,1456L1088,1432Z" fill="#46758e" stroke="#46758e" stroke-width="1.51"/><path d="M925,439L765,679L1104,697Z" fill="#19394b" stroke="#19394b" stroke-width="1.51"/><path d="M762,868L991,994L1104,697Z" fill="#264c60" stroke="#264c60" stroke-width="1.51"/><path d="M765,679L762,868L1104,697Z" fill="#254759" stroke="#254759" stroke-width="1.51"/><path d="M987,251L925,439L1107,331Z" fill="#284253" stroke="#284253" stroke-width="1.51"/><path d="M953,-333L629,-269L1022,-128Z" fill="#5c6b76" stroke="#5c6b76" stroke-width="1.51"/><path d="M629,-269L788,40L1022,-128Z" fill="#546571" stroke="#546571" stroke-width="1.51"/><path d="M629,-269L611,-102L788,40Z" fill="#5b6b76" stroke="#5b6b76" stroke-width="1.51"/><path d="M762,868L647,1114L869,1212Z" fill="#3f657a" stroke="#3f657a" stroke-width="1.51"/><path d="M822,164L925,439L987,251Z" fill="#2d4655" stroke="#2d4655" stroke-width="1.51"/><path d="M762,868L869,1212L991,994Z" fill="#355c71" stroke="#355c71" stroke-width="1.51"/><path d="M435,1309L177,1445L851,1456Z" fill="#658ea4" stroke="#658ea4" stroke-width="1.51"/><path d="M822,164L583,358L925,439Z" fill="#324958" stroke="#324958" stroke-width="1.51"/><path d="M583,358L765,679L925,439Z" fill="#243f4f" stroke="#243f4f" stroke-width="1.51"/><path d="M582,1285L435,1309L851,1456Z" fill="#59839a" stroke="#59839a" stroke-width="1.51"/><path d="M582,1285L851,1456L869,1212Z" fill="#4e7990" stroke="#4e7990" stroke-width="1.51"/><path d="M647,1114L582,1285L869,1212Z" fill="#4b7389" stroke="#4b7389" stroke-width="1.51"/><path d="M701,836L762,868L765,679Z" fill="#2f5062" stroke="#2f5062" stroke-width="1.51"/><path d="M583,358L444,578L765,679Z" fill="#2a4353" stroke="#2a4353" stroke-width="1.51"/><path d="M788,40L607,89L822,164Z" fill="#475a67" stroke="#475a67" stroke-width="1.51"/><path d="M607,89L583,358L822,164Z" fill="#415663" stroke="#415663" stroke-width="1.51"/><path d="M701,836L647,1114L762,868Z" fill="#3b5e71" stroke="#3b5e71" stroke-width="1.51"/><path d="M444,578L533,712L765,679Z" fill="#314c5d" stroke="#314c5d" stroke-width="1.51"/><path d="M611,-102L607,89L788,40Z" fill="#52646f" stroke="#52646f" stroke-width="1.51"/><path d="M533,712L701,836L765,679Z" fill="#314f61" stroke="#314f61" stroke-width="1.51"/><path d="M335,932L647,1114L701,836Z" fill="#456579" stroke="#456579" stroke-width="1.51"/><path d="M533,712L335,932L701,836Z" fill="#3f5c6e" stroke="#3f5c6e" stroke-width="1.51"/><path d="M270,161L583,358L607,89Z" fill="#4c5e6a" stroke="#4c5e6a" stroke-width="1.51"/><path d="M335,932L416,1144L647,1114Z" fill="#507286" stroke="#507286" stroke-width="1.51"/><path d="M416,1144L582,1285L647,1114Z" fill="#53788d" stroke="#53788d" stroke-width="1.51"/><path d="M281,-101L607,89L611,-102Z" fill="#5f6e78" stroke="#5f6e78" stroke-width="1.51"/><path d="M337,-323L611,-102L629,-269Z" fill="#6e7b83" stroke="#6e7b83" stroke-width="1.51"/><path d="M-103,1337L-392,1325L177,1445Z" fill="#87a8bb" stroke="#87a8bb" stroke-width="1.51"/><path d="M281,-101L270,161L607,89Z" fill="#5e6d78" stroke="#5e6d78" stroke-width="1.51"/><path d="M337,-323L281,-101L611,-102Z" fill="#707c85" stroke="#707c85" stroke-width="1.51"/><path d="M416,1144L435,1309L582,1285Z" fill="#5c8196" stroke="#5c8196" stroke-width="1.51"/><path d="M279,500L444,578L583,358Z" fill="#384e5c" stroke="#384e5c" stroke-width="1.51"/><path d="M270,161L279,500L583,358Z" fill="#465a67" stroke="#465a67" stroke-width="1.51"/><path d="M444,578L335,932L533,712Z" fill="#3e596a" stroke="#3e596a" stroke-width="1.51"/><path d="M270,161L156,240L279,500Z" fill="#51636f" stroke="#51636f" stroke-width="1.51"/><path d="M181,527L55,665L335,932Z" fill="#4a6271" stroke="#4a6271" stroke-width="1.51"/><path d="M416,1144L150,1191L435,1309Z" fill="#628599" stroke="#628599" stroke-width="1.51"/><path d="M181,527L335,932L444,578Z" fill="#415a69" stroke="#415a69" stroke-width="1.51"/><path d="M279,500L181,527L444,578Z" fill="#3b515e" stroke="#3b515e" stroke-width="1.51"/><path d="M150,1191L177,1445L435,1309Z" fill="#6e91a6" stroke="#6e91a6" stroke-width="1.51"/><path d="M123,983L150,1191L335,932Z" fill="#5f7d8e" stroke="#5f7d8e" stroke-width="1.51"/><path d="M335,932L150,1191L416,1144Z" fill="#5c7c8f" stroke="#5c7c8f" stroke-width="1.51"/><path d="M156,240L181,527L279,500Z" fill="#495c69" stroke="#495c69" stroke-width="1.51"/><path d="M145,37L270,161L281,-101Z" fill="#68757f" stroke="#68757f" stroke-width="1.51"/><path d="M55,665L123,983L335,932Z" fill="#556f80" stroke="#556f80" stroke-width="1.51"/><path d="M58,-250L281,-101L337,-323Z" fill="#7e898f" stroke="#7e898f" stroke-width="1.51"/><path d="M55,665L-41,794L123,983Z" fill="#597180" stroke="#597180" stroke-width="1.51"/><path d="M22,-186L145,37L281,-101Z" fill="#77828a" stroke="#77828a" stroke-width="1.51"/><path d="M58,-250L22,-186L281,-101Z" fill="#808a91" stroke="#808a91" stroke-width="1.51"/><path d="M145,37L156,240L270,161Z" fill="#61707a" stroke="#61707a" stroke-width="1.51"/><path d="M123,983L-50,1024L150,1191Z" fill="#688596" stroke="#688596" stroke-width="1.51"/><path d="M145,37L-82,137L156,240Z" fill="#68767f" stroke="#68767f" stroke-width="1.51"/><path d="M150,1191L-103,1337L177,1445Z" fill="#799baf" stroke="#799baf" stroke-width="1.51"/><path d="M156,240L39,525L181,527Z" fill="#4c5f6b" stroke="#4c5f6b" stroke-width="1.51"/><path d="M39,525L55,665L181,527Z" fill="#485c69" stroke="#485c69" stroke-width="1.51"/><path d="M-82,137L39,525L156,240Z" fill="#5c6c77" stroke="#5c6c77" stroke-width="1.51"/><path d="M22,-186L-130,30L145,37Z" fill="#7a858d" stroke="#7a858d" stroke-width="1.51"/><path d="M-50,1024L-103,1337L150,1191Z" fill="#7592a4" stroke="#7592a4" stroke-width="1.51"/><path d="M-130,30L-82,137L145,37Z" fill="#737f87" stroke="#737f87" stroke-width="1.51"/><path d="M-41,794L-50,1024L123,983Z" fill="#637d8d" stroke="#637d8d" stroke-width="1.51"/><path d="M-206,1057L-103,1337L-50,1024Z" fill="#7895a6" stroke="#7895a6" stroke-width="1.51"/><path d="M-82,137L-150,571L39,525Z" fill="#596975" stroke="#596975" stroke-width="1.51"/><path d="M39,525L-150,571L55,665Z" fill="#4f626f" stroke="#4f626f" stroke-width="1.51"/><path d="M-193,-170L22,-186L58,-250Z" fill="#8b9399" stroke="#8b9399" stroke-width="1.51"/><path d="M-193,-170L-130,30L22,-186Z" fill="#879096" stroke="#879096" stroke-width="1.51"/><path d="M-150,571L-41,794L55,665Z" fill="#566a78" stroke="#566a78" stroke-width="1.51"/><path d="M-225,123L-150,571L-82,137Z" fill="#697780" stroke="#697780" stroke-width="1.51"/><path d="M-225,123L-315,549L-150,571Z" fill="#62717b" stroke="#62717b" stroke-width="1.51"/><path d="M-415,487L-315,549L-225,123Z" fill="#697780" stroke="#697780" stroke-width="1.51"/><path d="M-150,571L-364,887L-41,794Z" fill="#627785" stroke="#627785" stroke-width="1.51"/><path d="M-206,1057L-50,1024L-41,794Z" fill="#6b8494" stroke="#6b8494" stroke-width="1.51"/><path d="M-364,887L-206,1057L-41,794Z" fill="#6e8593" stroke="#6e8593" stroke-width="1.51"/><path d="M-315,549L-364,887L-150,571Z" fill="#627581" stroke="#627581" stroke-width="1.51"/><path d="M-206,1057L-392,1325L-103,1337Z" fill="#86a3b4" stroke="#86a3b4" stroke-width="1.51"/><path d="M-130,30L-225,123L-82,137Z" fill="#78838b" stroke="#78838b" stroke-width="1.51"/><path d="M-193,-170L-282,56L-130,30Z" fill="#868f95" stroke="#868f95" stroke-width="1.51"/><path d="M-282,56L-225,123L-130,30Z" fill="#7e888f" stroke="#7e888f" stroke-width="1.51"/><path d="M-282,56L-415,487L-225,123Z" fill="#77828a" stroke="#77828a" stroke-width="1.51"/><path d="M-364,887L-392,1325L-206,1057Z" fill="#819aa9" stroke="#819aa9" stroke-width="1.51"/><path d="M-415,487L-364,887L-315,549Z" fill="#657682" stroke="#657682" stroke-width="1.51"/><path d="M-415,487L-392,1325L-364,887Z" fill="#788d9a" stroke="#788d9a" stroke-width="1.51"/></svg>