<svg xmlns="http://www.w3.org/2000/svg" width="1920" height="1080"><path d="M291,1627L-22,1640L671,1643Z" fill="#b5f2e0" stroke="#b5f2e0" stroke-width="1.51"/><path d="M439,-596L721,-558L1606,-586Z" fill="#f2fdf9" stroke="#f2fdf9" stroke-width="1.51"/><path d="M1661,1398L1239,1535L2049,1409Z" fill="#96edd5" stroke="#96edd5" stroke-width="1.51"/><path d="M2216,-562L2045,-343L2245,-54Z" fill="#aff1de" stroke="#aff1de" stroke-width="1.51"/><path d="M2045,-343L2068,-165L2245,-54Z" fill="#97eed6" stroke="#97eed6" stroke-width="1.51"/><path d="M2216,-562L2245,-54L2341,288Z" fill="#9ceed7" stroke="#9ceed7" stroke-width="1.51"/><path d="M2049,1409L1239,1535L2377,1403Z" fill="#98eed6" stroke="#98eed6" stroke-width="1.51"/><path d="M1239,1535L671,1643L2377,1403Z" fill="#b8f3e2" stroke="#b8f3e2" stroke-width="1.51"/><path d="M2216,-562L2341,288L2488,1032Z" fill="#c8f6e8" stroke="#c8f6e8" stroke-width="1.51"/><path d="M2041,1064L2377,1403L2488,1032Z" fill="#9ceed8" stroke="#9ceed8" stroke-width="1.51"/><path d="M2342,631L2041,1064L2488,1032Z" fill="#b7f3e1" stroke="#b7f3e1" stroke-width="1.51"/><path d="M2341,288L2342,631L2488,1032Z" fill="#e2fbf3" stroke="#e2fbf3" stroke-width="1.51"/><path d="M2341,288L1985,446L2342,631Z" fill="#d5f8ed" stroke="#d5f8ed" stroke-width="1.51"/><path d="M1985,446L2041,637L2342,631Z" fill="#d3f8ec" stroke="#d3f8ec" stroke-width="1.51"/><path d="M2041,637L2041,1064L2342,631Z" fill="#baf4e2" stroke="#baf4e2" stroke-width="1.51"/><path d="M2041,1064L2049,1409L2377,1403Z" fill="#9fefd8" stroke="#9fefd8" stroke-width="1.51"/><path d="M2245,-54L1985,446L2341,288Z" fill="#b5f3e0" stroke="#b5f3e0" stroke-width="1.51"/><path d="M1666,259L1985,446L2068,-165Z" fill="#90ecd3" stroke="#90ecd3" stroke-width="1.51"/><path d="M2068,-165L1985,446L2245,-54Z" fill="#96edd5" stroke="#96edd5" stroke-width="1.51"/><path d="M1606,-586L2045,-343L2216,-562Z" fill="#b1f2df" stroke="#b1f2df" stroke-width="1.51"/><path d="M1666,1060L1661,1398L2041,1064Z" fill="#5de5c4" stroke="#5de5c4" stroke-width="1.51"/><path d="M1666,1060L2041,1064L2041,637Z" fill="#8eecd3" stroke="#8eecd3" stroke-width="1.51"/><path d="M2041,1064L1661,1398L2049,1409Z" fill="#83eacf" stroke="#83eacf" stroke-width="1.51"/><path d="M2045,-343L1438,-53L2068,-165Z" fill="#77e9cc" stroke="#77e9cc" stroke-width="1.51"/><path d="M1438,-53L1666,259L2068,-165Z" fill="#65e6c7" stroke="#65e6c7" stroke-width="1.51"/><path d="M1415,793L1666,1060L2041,637Z" fill="#90ecd3" stroke="#90ecd3" stroke-width="1.51"/><path d="M1606,-586L1438,-53L2045,-343Z" fill="#8aecd2" stroke="#8aecd2" stroke-width="1.51"/><path d="M1985,446L1415,793L2041,637Z" fill="#adf1de" stroke="#adf1de" stroke-width="1.51"/><path d="M1666,259L1415,793L1985,446Z" fill="#b5f2e1" stroke="#b5f2e1" stroke-width="1.51"/><path d="M721,-558L1234,-450L1606,-586Z" fill="#dbf9ef" stroke="#dbf9ef" stroke-width="1.51"/><path d="M1234,-450L1438,-53L1606,-586Z" fill="#adf1dd" stroke="#adf1dd" stroke-width="1.51"/><path d="M1129,1083L1239,1535L1661,1398Z" fill="#a7f0db" stroke="#a7f0db" stroke-width="1.51"/><path d="M1438,-53L1180,347L1666,259Z" fill="#a5f0da" stroke="#a5f0da" stroke-width="1.51"/><path d="M1180,347L1415,793L1666,259Z" fill="#cbf6e9" stroke="#cbf6e9" stroke-width="1.51"/><path d="M1129,1083L1661,1398L1666,1060Z" fill="#80eace" stroke="#80eace" stroke-width="1.51"/><path d="M1415,793L1129,1083L1666,1060Z" fill="#9ceed7" stroke="#9ceed7" stroke-width="1.51"/><path d="M1166,84L1180,347L1438,-53Z" fill="#aef2de" stroke="#aef2de" stroke-width="1.51"/><path d="M1171,866L1129,1083L1415,793Z" fill="#b6f3e1" stroke="#b6f3e1" stroke-width="1.51"/><path d="M1180,347L1171,866L1415,793Z" fill="#d4f8ed" stroke="#d4f8ed" stroke-width="1.51"/><path d="M1234,-450L1166,84L1438,-53Z" fill="#9deed8" stroke="#9deed8" stroke-width="1.51"/><path d="M734,805L1171,866L1180,347Z" fill="#e9fcf5" stroke="#e9fcf5" stroke-width="1.51"/><path d="M624,-26L1166,84L1234,-450Z" fill="#b8f3e2" stroke="#b8f3e2" stroke-width="1.51"/><path d="M721,-558L624,-26L1234,-450Z" fill="#cff7eb" stroke="#cff7eb" stroke-width="1.51"/><path d="M1129,1083L774,1238L1239,1535Z" fill="#bef4e4" stroke="#bef4e4" stroke-width="1.51"/><path d="M774,1238L671,1643L1239,1535Z" fill="#d8f9ee" stroke="#d8f9ee" stroke-width="1.51"/><path d="M734,805L1129,1083L1171,866Z" fill="#ccf6e9" stroke="#ccf6e9" stroke-width="1.51"/><path d="M1166,84L626,315L1180,347Z" fill="#d8f9ef" stroke="#d8f9ef" stroke-width="1.51"/><path d="M626,315L734,805L1180,347Z" fill="#effdf8" stroke="#effdf8" stroke-width="1.51"/><path d="M624,-26L626,315L1166,84Z" fill="#bdf4e3" stroke="#bdf4e3" stroke-width="1.51"/><path d="M734,805L774,1238L1129,1083Z" fill="#b8f3e2" stroke="#b8f3e2" stroke-width="1.51"/><path d="M439,-596L624,-26L721,-558Z" fill="#bbf3e3" stroke="#bbf3e3" stroke-width="1.51"/><path d="M626,315L427,412L734,805Z" fill="#daf9ef" stroke="#daf9ef" stroke-width="1.51"/><path d="M233,845L265,1269L734,805Z" fill="#91edd4" stroke="#91edd4" stroke-width="1.51"/><path d="M734,805L265,1269L774,1238Z" fill="#92ecd4" stroke="#92ecd4" stroke-width="1.51"/><path d="M265,1269L671,1643L774,1238Z" fill="#adf1dd" stroke="#adf1dd" stroke-width="1.51"/><path d="M624,-26L378,70L626,315Z" fill="#a1efd9" stroke="#a1efd9" stroke-width="1.51"/><path d="M265,1269L291,1627L671,1643Z" fill="#aef2de" stroke="#aef2de" stroke-width="1.51"/><path d="M427,412L233,845L734,805Z" fill="#bef4e4" stroke="#bef4e4" stroke-width="1.51"/><path d="M439,-596L378,70L624,-26Z" fill="#92edd4" stroke="#92edd4" stroke-width="1.51"/><path d="M-30,-124L378,70L439,-596Z" fill="#7de9ce" stroke="#7de9ce" stroke-width="1.51"/><path d="M378,70L427,412L626,315Z" fill="#aef1de" stroke="#aef1de" stroke-width="1.51"/><path d="M233,845L74,1101L265,1269Z" fill="#63e6c6" stroke="#63e6c6" stroke-width="1.51"/><path d="M378,70L-73,395L427,412Z" fill="#99eed6" stroke="#99eed6" stroke-width="1.51"/><path d="M-73,395L233,845L427,412Z" fill="#b5f3e1" stroke="#b5f3e1" stroke-width="1.51"/><path d="M95,-596L-30,-124L439,-596Z" fill="#95edd5" stroke="#95edd5" stroke-width="1.51"/><path d="M-30,-124L-73,395L378,70Z" fill="#7ce9cd" stroke="#7ce9cd" stroke-width="1.51"/><path d="M-73,395L-188,819L233,845Z" fill="#b1f2df" stroke="#b1f2df" stroke-width="1.51"/><path d="M265,1269L-22,1640L291,1627Z" fill="#95edd5" stroke="#95edd5" stroke-width="1.51"/><path d="M74,1101L-22,1640L265,1269Z" fill="#7ee9ce" stroke="#7ee9ce" stroke-width="1.51"/><path d="M-188,819L74,1101L233,845Z" fill="#8aebd1" stroke="#8aebd1" stroke-width="1.51"/><path d="M-329,-96L-73,395L-30,-124Z" fill="#8fecd3" stroke="#8fecd3" stroke-width="1.51"/><path d="M-557,1238L-334,1605L74,1101Z" fill="#a6f0db" stroke="#a6f0db" stroke-width="1.51"/><path d="M-334,1605L-22,1640L74,1101Z" fill="#a6f0db" stroke="#a6f0db" stroke-width="1.51"/><path d="M-306,-498L-30,-124L95,-596Z" fill="#a9f0dc" stroke="#a9f0dc" stroke-width="1.51"/><path d="M-350,657L-188,819L-73,395Z" fill="#ccf7e9" stroke="#ccf7e9" stroke-width="1.51"/><path d="M-188,819L-557,1238L74,1101Z" fill="#93edd5" stroke="#93edd5" stroke-width="1.51"/><path d="M-306,-498L-329,-96L-30,-124Z" fill="#a1efd9" stroke="#a1efd9" stroke-width="1.51"/><path d="M-329,-96L-560,459L-73,395Z" fill="#bdf4e3" stroke="#bdf4e3" stroke-width="1.51"/><path d="M-560,459L-350,657L-73,395Z" fill="#defaf1" stroke="#defaf1" stroke-width="1.51"/><path d="M-350,657L-557,1238L-188,819Z" fill="#b8f3e2" stroke="#b8f3e2" stroke-width="1.51"/><path d="M-560,459L-557,1238L-350,657Z" fill="#d3f8ec" stroke="#d3f8ec" stroke-width="1.51"/><path d="M-560,459L-329,-96L-306,-498Z" fill="#9cefd7" stroke="#9cefd7" stroke-width="1.51"/></svg>