<svg xmlns="http://www.w3.org/2000/svg" width="1920" height="1080"><path d="M2260,-435L1935,-435L2260,-110Z" fill="#f9fffc" stroke="#f9fffc" stroke-width="1.51"/><path d="M1935,-435L1935,-110L2260,-110Z" fill="#ffffff" stroke="#ffffff" stroke-width="1.51"/><path d="M2260,-110L1935,-110L2260,215Z" fill="#f8fffb" stroke="#f8fffb" stroke-width="1.51"/><path d="M1935,-110L1935,215L2260,215Z" fill="#f8ffef" stroke="#f8ffef" stroke-width="1.51"/><path d="M1935,865L2260,865L2260,540Z" fill="#e3fff8" stroke="#e3fff8" stroke-width="1.51"/><path d="M1935,540L1935,865L2260,540Z" fill="#f4fffc" stroke="#f4fffc" stroke-width="1.51"/><path d="M2260,215L1935,215L2260,540Z" fill="#eeffe5" stroke="#eeffe5" stroke-width="1.51"/><path d="M1935,215L1935,540L2260,540Z" fill="#f9fff2" stroke="#f9fff2" stroke-width="1.51"/><path d="M2260,865L1935,865L2260,1190Z" fill="#ecfffa" stroke="#ecfffa" stroke-width="1.51"/><path d="M1935,865L1935,1190L2260,1190Z" fill="#fdfffe" stroke="#fdfffe" stroke-width="1.51"/><path d="M2260,1190L1935,1190L2260,1515Z" fill="#fafffd" stroke="#fafffd" stroke-width="1.51"/><path d="M1935,1190L1935,1515L2260,1515Z" fill="#feffff" stroke="#feffff" stroke-width="1.51"/><path d="M1935,-435L1610,-435L1935,-110Z" fill="#fffffd" stroke="#fffffd" stroke-width="1.51"/><path d="M1610,-435L1610,-110L1935,-110Z" fill="#ffffff" stroke="#ffffff" stroke-width="1.51"/><path d="M1935,-110L1610,-110L1935,215Z" fill="#fefffc" stroke="#fefffc" stroke-width="1.51"/><path d="M1610,-110L1610,215L1935,215Z" fill="#f8ffef" stroke="#f8ffef" stroke-width="1.51"/><path d="M1935,215L1610,215L1935,540Z" fill="#f3ffe7" stroke="#f3ffe7" stroke-width="1.51"/><path d="M1610,215L1610,540L1935,540Z" fill="#f9fff2" stroke="#f9fff2" stroke-width="1.51"/><path d="M1610,1190L1935,1190L1935,865Z" fill="#fdfffe" stroke="#fdfffe" stroke-width="1.51"/><path d="M1610,865L1610,1190L1935,865Z" fill="#f1fffc" stroke="#f1fffc" stroke-width="1.51"/><path d="M1935,540L1610,540L1935,865Z" fill="#f4fffc" stroke="#f4fffc" stroke-width="1.51"/><path d="M1610,540L1610,865L1935,865Z" fill="#e9fffa" stroke="#e9fffa" stroke-width="1.51"/><path d="M1935,1190L1610,1190L1935,1515Z" fill="#ffffff" stroke="#ffffff" stroke-width="1.51"/><path d="M1610,1190L1610,1515L1935,1515Z" fill="#feffff" stroke="#feffff" stroke-width="1.51"/><path d="M1610,-435L1285,-435L1610,-110Z" fill="#f0fffa" stroke="#f0fffa" stroke-width="1.51"/><path d="M1285,-435L1285,-110L1610,-110Z" fill="#e8fff9" stroke="#e8fff9" stroke-width="1.51"/><path d="M1610,-110L1285,-110L1610,215Z" fill="#effff8" stroke="#effff8" stroke-width="1.51"/><path d="M1285,-110L1285,215L1610,215Z" fill="#e0ffea" stroke="#e0ffea" stroke-width="1.51"/><path d="M1610,215L1285,215L1610,540Z" fill="#e5ffe3" stroke="#e5ffe3" stroke-width="1.51"/><path d="M1285,215L1285,540L1610,540Z" fill="#e2ffed" stroke="#e2ffed" stroke-width="1.51"/><path d="M1610,540L1285,540L1610,865Z" fill="#e5fff9" stroke="#e5fff9" stroke-width="1.51"/><path d="M1285,540L1285,865L1610,865Z" fill="#d1fff4" stroke="#d1fff4" stroke-width="1.51"/><path d="M1610,865L1285,865L1610,1190Z" fill="#e2fff8" stroke="#e2fff8" stroke-width="1.51"/><path d="M1285,865L1285,1190L1610,1190Z" fill="#e5fff9" stroke="#e5fff9" stroke-width="1.51"/><path d="M1610,1190L1285,1190L1610,1515Z" fill="#f0fffb" stroke="#f0fffb" stroke-width="1.51"/><path d="M1285,1190L1285,1515L1610,1515Z" fill="#e7fff9" stroke="#e7fff9" stroke-width="1.51"/><path d="M1285,-435L960,-435L1285,-110Z" fill="#eefff9" stroke="#eefff9" stroke-width="1.51"/><path d="M960,-435L960,-110L1285,-110Z" fill="#f7fffd" stroke="#f7fffd" stroke-width="1.51"/><path d="M1285,-110L960,-110L1285,215Z" fill="#edfff8" stroke="#edfff8" stroke-width="1.51"/><path d="M960,-110L960,215L1285,215Z" fill="#efffee" stroke="#efffee" stroke-width="1.51"/><path d="M1285,215L960,215L1285,540Z" fill="#e3ffe3" stroke="#e3ffe3" stroke-width="1.51"/><path d="M960,215L960,540L1285,540Z" fill="#f1fff1" stroke="#f1fff1" stroke-width="1.51"/><path d="M1285,540L960,540L1285,865Z" fill="#e3fff8" stroke="#e3fff8" stroke-width="1.51"/><path d="M960,540L960,865L1285,865Z" fill="#e0fff8" stroke="#e0fff8" stroke-width="1.51"/><path d="M1285,865L960,865L1285,1190Z" fill="#e0fff8" stroke="#e0fff8" stroke-width="1.51"/><path d="M960,865L960,1190L1285,1190Z" fill="#f4fffc" stroke="#f4fffc" stroke-width="1.51"/><path d="M1285,1190L960,1190L1285,1515Z" fill="#eefffb" stroke="#eefffb" stroke-width="1.51"/><path d="M960,1190L960,1515L1285,1515Z" fill="#f6fffd" stroke="#f6fffd" stroke-width="1.51"/><path d="M635,1515L960,1515L960,1190Z" fill="#fafff5" stroke="#fafff5" stroke-width="1.51"/><path d="M635,1190L635,1515L960,1190Z" fill="#f6ffec" stroke="#f6ffec" stroke-width="1.51"/><path d="M635,1190L960,1190L960,865Z" fill="#f8fff5" stroke="#f8fff5" stroke-width="1.51"/><path d="M635,865L635,1190L960,865Z" fill="#e8ffe9" stroke="#e8ffe9" stroke-width="1.51"/><path d="M635,865L960,865L960,540Z" fill="#e5fff1" stroke="#e5fff1" stroke-width="1.51"/><path d="M635,540L635,865L960,540Z" fill="#ebffea" stroke="#ebffea" stroke-width="1.51"/><path d="M635,540L960,540L960,215Z" fill="#f5ffe9" stroke="#f5ffe9" stroke-width="1.51"/><path d="M635,215L635,540L960,215Z" fill="#eaffd4" stroke="#eaffd4" stroke-width="1.51"/><path d="M635,215L960,215L960,-110Z" fill="#f3ffe6" stroke="#f3ffe6" stroke-width="1.51"/><path d="M635,-110L635,215L960,-110Z" fill="#f5ffe9" stroke="#f5ffe9" stroke-width="1.51"/><path d="M635,-110L960,-110L960,-435Z" fill="#fbfff5" stroke="#fbfff5" stroke-width="1.51"/><path d="M635,-435L635,-110L960,-435Z" fill="#f6ffea" stroke="#f6ffea" stroke-width="1.51"/><path d="M310,1515L635,1515L635,1190Z" fill="#f1ffe5" stroke="#f1ffe5" stroke-width="1.51"/><path d="M310,1190L310,1515L635,1190Z" fill="#f7ffee" stroke="#f7ffee" stroke-width="1.51"/><path d="M635,-435L310,-435L635,-110Z" fill="#f2ffe3" stroke="#f2ffe3" stroke-width="1.51"/><path d="M310,-435L310,-110L635,-110Z" fill="#f7ffee" stroke="#f7ffee" stroke-width="1.51"/><path d="M635,-110L310,-110L635,215Z" fill="#f1ffe2" stroke="#f1ffe2" stroke-width="1.51"/><path d="M310,-110L310,215L635,215Z" fill="#f0ffdf" stroke="#f0ffdf" stroke-width="1.51"/><path d="M635,215L310,215L635,540Z" fill="#e6ffcc" stroke="#e6ffcc" stroke-width="1.51"/><path d="M310,215L310,540L635,540Z" fill="#f1ffe2" stroke="#f1ffe2" stroke-width="1.51"/><path d="M310,1190L635,1190L635,865Z" fill="#f0ffe4" stroke="#f0ffe4" stroke-width="1.51"/><path d="M310,865L310,1190L635,865Z" fill="#e9ffeb" stroke="#e9ffeb" stroke-width="1.51"/><path d="M635,540L310,540L635,865Z" fill="#e8ffe2" stroke="#e8ffe2" stroke-width="1.51"/><path d="M310,540L310,865L635,865Z" fill="#e1ffe9" stroke="#e1ffe9" stroke-width="1.51"/><path d="M310,-110L-15,-110L310,215Z" fill="#fefffc" stroke="#fefffc" stroke-width="1.51"/><path d="M-15,-110L-15,215L310,215Z" fill="#f8ffef" stroke="#f8ffef" stroke-width="1.51"/><path d="M-15,-110L310,-110L310,-435Z" fill="#ffffff" stroke="#ffffff" stroke-width="1.51"/><path d="M-15,-435L-15,-110L310,-435Z" fill="#fffffd" stroke="#fffffd" stroke-width="1.51"/><path d="M-15,1515L310,1515L310,1190Z" fill="#feffff" stroke="#feffff" stroke-width="1.51"/><path d="M-15,1190L-15,1515L310,1190Z" fill="#ffffff" stroke="#ffffff" stroke-width="1.51"/><path d="M310,865L-15,865L310,1190Z" fill="#f1fffc" stroke="#f1fffc" stroke-width="1.51"/><path d="M-15,865L-15,1190L310,1190Z" fill="#fdfffe" stroke="#fdfffe" stroke-width="1.51"/><path d="M310,215L-15,215L310,540Z" fill="#f3ffe7" stroke="#f3ffe7" stroke-width="1.51"/><path d="M-15,215L-15,540L310,540Z" fill="#f9fff2" stroke="#f9fff2" stroke-width="1.51"/><path d="M-15,865L310,865L310,540Z" fill="#e9fffa" stroke="#e9fffa" stroke-width="1.51"/><path d="M-15,540L-15,865L310,540Z" fill="#f4fffc" stroke="#f4fffc" stroke-width="1.51"/><path d="M-15,-435L-340,-435L-15,-110Z" fill="#fffffd" stroke="#fffffd" stroke-width="1.51"/><path d="M-340,-435L-340,-110L-15,-110Z" fill="#fcfff7" stroke="#fcfff7" stroke-width="1.51"/><path d="M-15,-110L-340,-110L-15,215Z" fill="#fefffc" stroke="#fefffc" stroke-width="1.51"/><path d="M-340,-110L-340,215L-15,215Z" fill="#f4ffe8" stroke="#f4ffe8" stroke-width="1.51"/><path d="M-15,215L-340,215L-15,540Z" fill="#f3ffe7" stroke="#f3ffe7" stroke-width="1.51"/><path d="M-340,215L-340,540L-15,540Z" fill="#f6ffeb" stroke="#f6ffeb" stroke-width="1.51"/><path d="M-15,540L-340,540L-15,865Z" fill="#f4fffc" stroke="#f4fffc" stroke-width="1.51"/><path d="M-340,540L-340,865L-15,865Z" fill="#e6fff3" stroke="#e6fff3" stroke-width="1.51"/><path d="M-15,865L-340,865L-15,1190Z" fill="#f1fffc" stroke="#f1fffc" stroke-width="1.51"/><path d="M-340,865L-340,1190L-15,1190Z" fill="#f9fff7" stroke="#f9fff7" stroke-width="1.51"/><path d="M-15,1190L-340,1190L-15,1515Z" fill="#ffffff" stroke="#ffffff" stroke-width="1.51"/><path d="M-340,1190L-340,1515L-15,1515Z" fill="#fbfff7" stroke="#fbfff7" stroke-width="1.51"/></svg>