<svg xmlns="http://www.w3.org/2000/svg" width="1920" height="1080"><path d="M2300,-465L1965,-465L2300,-130Z" fill="#e2e2f9" stroke="#e2e2f9" stroke-width="1.51"/><path d="M1965,-465L1965,-130L2300,-130Z" fill="#e5e6f9" stroke="#e5e6f9" stroke-width="1.51"/><path d="M2300,-130L1965,-130L2300,205Z" fill="#e3edf9" stroke="#e3edf9" stroke-width="1.51"/><path d="M1965,-130L1965,205L2300,205Z" fill="#e6f0f9" stroke="#e6f0f9" stroke-width="1.51"/><path d="M1965,875L2300,875L2300,540Z" fill="#dffff7" stroke="#dffff7" stroke-width="1.51"/><path d="M1965,540L1965,875L2300,540Z" fill="#e4fff8" stroke="#e4fff8" stroke-width="1.51"/><path d="M2300,205L1965,205L2300,540Z" fill="#e4f8f8" stroke="#e4f8f8" stroke-width="1.51"/><path d="M1965,205L1965,540L2300,540Z" fill="#e7fbf9" stroke="#e7fbf9" stroke-width="1.51"/><path d="M2300,875L1965,875L2300,1210Z" fill="#d8fff5" stroke="#d8fff5" stroke-width="1.51"/><path d="M1965,875L1965,1210L2300,1210Z" fill="#d7fef5" stroke="#d7fef5" stroke-width="1.51"/><path d="M2300,1210L1965,1210L2300,1545Z" fill="#cefef3" stroke="#cefef3" stroke-width="1.51"/><path d="M1965,1210L1965,1545L2300,1545Z" fill="#cdfef3" stroke="#cdfef3" stroke-width="1.51"/><path d="M1965,-465L1630,-465L1965,-130Z" fill="#e9e2fa" stroke="#e9e2fa" stroke-width="1.51"/><path d="M1630,-465L1630,-130L1965,-130Z" fill="#ebe6fb" stroke="#ebe6fb" stroke-width="1.51"/><path d="M1965,-130L1630,-130L1965,205Z" fill="#eaedfa" stroke="#eaedfa" stroke-width="1.51"/><path d="M1630,-130L1630,205L1965,205Z" fill="#edf0fb" stroke="#edf0fb" stroke-width="1.51"/><path d="M1965,205L1630,205L1965,540Z" fill="#ebf8fa" stroke="#ebf8fa" stroke-width="1.51"/><path d="M1630,205L1630,540L1965,540Z" fill="#eefbfb" stroke="#eefbfb" stroke-width="1.51"/><path d="M1630,1210L1965,1210L1965,875Z" fill="#dcfef6" stroke="#dcfef6" stroke-width="1.51"/><path d="M1630,875L1630,1210L1965,875Z" fill="#e2fff8" stroke="#e2fff8" stroke-width="1.51"/><path d="M1965,540L1630,540L1965,875Z" fill="#e9fff9" stroke="#e9fff9" stroke-width="1.51"/><path d="M1630,540L1630,875L1965,875Z" fill="#e8fff9" stroke="#e8fff9" stroke-width="1.51"/><path d="M1965,1210L1630,1210L1965,1545Z" fill="#d6fef4" stroke="#d6fef4" stroke-width="1.51"/><path d="M1630,1210L1630,1545L1965,1545Z" fill="#d5fef5" stroke="#d5fef5" stroke-width="1.51"/><path d="M1630,-465L1295,-465L1630,-130Z" fill="#f0e2fc" stroke="#f0e2fc" stroke-width="1.51"/><path d="M1295,-465L1295,-130L1630,-130Z" fill="#f2e6fd" stroke="#f2e6fd" stroke-width="1.51"/><path d="M1630,-130L1295,-130L1630,205Z" fill="#f1edfc" stroke="#f1edfc" stroke-width="1.51"/><path d="M1295,-130L1295,205L1630,205Z" fill="#f4f1fd" stroke="#f4f1fd" stroke-width="1.51"/><path d="M1630,205L1295,205L1630,540Z" fill="#f2f8fc" stroke="#f2f8fc" stroke-width="1.51"/><path d="M1295,205L1295,540L1630,540Z" fill="#f5fcfd" stroke="#f5fcfd" stroke-width="1.51"/><path d="M1630,540L1295,540L1630,875Z" fill="#f0fffb" stroke="#f0fffb" stroke-width="1.51"/><path d="M1295,540L1295,875L1630,875Z" fill="#f0fffb" stroke="#f0fffb" stroke-width="1.51"/><path d="M1630,875L1295,875L1630,1210Z" fill="#e7fff9" stroke="#e7fff9" stroke-width="1.51"/><path d="M1295,875L1295,1210L1630,1210Z" fill="#e6fff8" stroke="#e6fff8" stroke-width="1.51"/><path d="M1630,1210L1295,1210L1630,1545Z" fill="#ddfff6" stroke="#ddfff6" stroke-width="1.51"/><path d="M1295,1210L1295,1545L1630,1545Z" fill="#dcfff6" stroke="#dcfff6" stroke-width="1.51"/><path d="M1295,-465L960,-465L1295,-130Z" fill="#f7e2fe" stroke="#f7e2fe" stroke-width="1.51"/><path d="M960,-465L960,-130L1295,-130Z" fill="#f9e6ff" stroke="#f9e6ff" stroke-width="1.51"/><path d="M1295,-130L960,-130L1295,205Z" fill="#f8edfe" stroke="#f8edfe" stroke-width="1.51"/><path d="M960,-130L960,205L1295,205Z" fill="#fbf1ff" stroke="#fbf1ff" stroke-width="1.51"/><path d="M1295,205L960,205L1295,540Z" fill="#faf8fe" stroke="#faf8fe" stroke-width="1.51"/><path d="M960,205L960,540L1295,540Z" fill="#fcfcff" stroke="#fcfcff" stroke-width="1.51"/><path d="M1295,540L960,540L1295,875Z" fill="#f8fffd" stroke="#f8fffd" stroke-width="1.51"/><path d="M960,540L960,875L1295,875Z" fill="#f7fffd" stroke="#f7fffd" stroke-width="1.51"/><path d="M1295,875L960,875L1295,1210Z" fill="#eefffb" stroke="#eefffb" stroke-width="1.51"/><path d="M960,875L960,1210L1295,1210Z" fill="#edfffa" stroke="#edfffa" stroke-width="1.51"/><path d="M1295,1210L960,1210L1295,1545Z" fill="#e5fff8" stroke="#e5fff8" stroke-width="1.51"/><path d="M960,1210L960,1545L1295,1545Z" fill="#e4fff8" stroke="#e4fff8" stroke-width="1.51"/><path d="M625,1545L960,1545L960,1210Z" fill="#e6fcf9" stroke="#e6fcf9" stroke-width="1.51"/><path d="M625,1210L625,1545L960,1210Z" fill="#e9f9f9" stroke="#e9f9f9" stroke-width="1.51"/><path d="M625,1210L960,1210L960,875Z" fill="#effcfb" stroke="#effcfb" stroke-width="1.51"/><path d="M625,875L625,1210L960,875Z" fill="#f2fafc" stroke="#f2fafc" stroke-width="1.51"/><path d="M625,875L960,875L960,540Z" fill="#f9fcfe" stroke="#f9fcfe" stroke-width="1.51"/><path d="M625,540L625,875L960,540Z" fill="#fcfafe" stroke="#fcfafe" stroke-width="1.51"/><path d="M625,540L960,540L960,205Z" fill="#fef9ff" stroke="#fef9ff" stroke-width="1.51"/><path d="M625,205L625,540L960,205Z" fill="#fef2ff" stroke="#fef2ff" stroke-width="1.51"/><path d="M625,205L960,205L960,-130Z" fill="#fdeeff" stroke="#fdeeff" stroke-width="1.51"/><path d="M625,-130L625,205L960,-130Z" fill="#fce8ff" stroke="#fce8ff" stroke-width="1.51"/><path d="M625,-130L960,-130L960,-465Z" fill="#fbe3ff" stroke="#fbe3ff" stroke-width="1.51"/><path d="M625,-465L625,-130L960,-465Z" fill="#faddff" stroke="#faddff" stroke-width="1.51"/><path d="M290,1545L625,1545L625,1210Z" fill="#e5f4f9" stroke="#e5f4f9" stroke-width="1.51"/><path d="M290,1210L290,1545L625,1210Z" fill="#e8f1fa" stroke="#e8f1fa" stroke-width="1.51"/><path d="M625,-465L290,-465L625,-130Z" fill="#f9d7ff" stroke="#f9d7ff" stroke-width="1.51"/><path d="M290,-465L290,-130L625,-130Z" fill="#f9d8ff" stroke="#f9d8ff" stroke-width="1.51"/><path d="M625,-130L290,-130L625,205Z" fill="#fbe2ff" stroke="#fbe2ff" stroke-width="1.51"/><path d="M290,-130L290,205L625,205Z" fill="#fbe3ff" stroke="#fbe3ff" stroke-width="1.51"/><path d="M625,205L290,205L625,540Z" fill="#fdedff" stroke="#fdedff" stroke-width="1.51"/><path d="M290,205L290,540L625,540Z" fill="#fdeeff" stroke="#fdeeff" stroke-width="1.51"/><path d="M290,1210L625,1210L625,875Z" fill="#eff4fb" stroke="#eff4fb" stroke-width="1.51"/><path d="M290,875L290,1210L625,875Z" fill="#f1f1fc" stroke="#f1f1fc" stroke-width="1.51"/><path d="M625,540L290,540L625,875Z" fill="#fbf4fe" stroke="#fbf4fe" stroke-width="1.51"/><path d="M290,540L290,875L625,875Z" fill="#f7f1fe" stroke="#f7f1fe" stroke-width="1.51"/><path d="M290,-130L-45,-130L290,205Z" fill="#fadaff" stroke="#fadaff" stroke-width="1.51"/><path d="M-45,-130L-45,205L290,205Z" fill="#fadaff" stroke="#fadaff" stroke-width="1.51"/><path d="M-45,-130L290,-130L290,-465Z" fill="#f8d3ff" stroke="#f8d3ff" stroke-width="1.51"/><path d="M-45,-465L-45,-130L290,-465Z" fill="#f7ccff" stroke="#f7ccff" stroke-width="1.51"/><path d="M-45,1545L290,1545L290,1210Z" fill="#e4ecf9" stroke="#e4ecf9" stroke-width="1.51"/><path d="M-45,1210L-45,1545L290,1210Z" fill="#e7e9fa" stroke="#e7e9fa" stroke-width="1.51"/><path d="M290,875L-45,875L290,1210Z" fill="#f0ecfc" stroke="#f0ecfc" stroke-width="1.51"/><path d="M-45,875L-45,1210L290,1210Z" fill="#ede8fb" stroke="#ede8fb" stroke-width="1.51"/><path d="M290,205L-45,205L290,540Z" fill="#fbe5ff" stroke="#fbe5ff" stroke-width="1.51"/><path d="M-45,205L-45,540L290,540Z" fill="#fbe5ff" stroke="#fbe5ff" stroke-width="1.51"/><path d="M-45,875L290,875L290,540Z" fill="#f7ecfe" stroke="#f7ecfe" stroke-width="1.51"/><path d="M-45,540L-45,875L290,540Z" fill="#f9e9fe" stroke="#f9e9fe" stroke-width="1.51"/><path d="M-45,-465L-380,-465L-45,-130Z" fill="#f6c6ff" stroke="#f6c6ff" stroke-width="1.51"/><path d="M-380,-465L-380,-130L-45,-130Z" fill="#f6c7ff" stroke="#f6c7ff" stroke-width="1.51"/><path d="M-45,-130L-380,-130L-45,205Z" fill="#f8d1ff" stroke="#f8d1ff" stroke-width="1.51"/><path d="M-380,-130L-380,205L-45,205Z" fill="#f8d2ff" stroke="#f8d2ff" stroke-width="1.51"/><path d="M-45,205L-380,205L-45,540Z" fill="#fadcff" stroke="#fadcff" stroke-width="1.51"/><path d="M-380,205L-380,540L-45,540Z" fill="#faddff" stroke="#faddff" stroke-width="1.51"/><path d="M-45,540L-380,540L-45,875Z" fill="#f8e3fe" stroke="#f8e3fe" stroke-width="1.51"/><path d="M-380,540L-380,875L-45,875Z" fill="#f5e0fe" stroke="#f5e0fe" stroke-width="1.51"/><path d="M-45,875L-380,875L-45,1210Z" fill="#efe3fc" stroke="#efe3fc" stroke-width="1.51"/><path d="M-380,875L-380,1210L-45,1210Z" fill="#ece0fb" stroke="#ece0fb" stroke-width="1.51"/><path d="M-45,1210L-380,1210L-45,1545Z" fill="#e7e3fa" stroke="#e7e3fa" stroke-width="1.51"/><path d="M-380,1210L-380,1545L-45,1545Z" fill="#e3e0f9" stroke="#e3e0f9" stroke-width="1.51"/></svg>