<?xml version="1.0" standalone="no"?> <!DOCTYPE svg PUBLIC "-//W3C//DTD SVG 1.1//EN" "http://www.w3.org/Graphics/SVG/1.1/DTD/svg11.dtd" > <svg xmlns="http://www.w3.org/2000/svg" xmlns:xlink="http://www.w3.org/1999/xlink" version="1.1" viewBox="0 0 1024 1024">  <g transform="matrix(1 0 0 -1 0 880)">  <path fill="currentColor" d="M621 605q-10 -47 -10 -104v-19q10 -9 19 10q29 9 38 -19q-19 9 -38 4.5t-19 -33.5q-9 -104 -9 -222.5t-114 -166.5h-28.5h-18.5v19q57 0 104 48q57 161 19 322q-85 -9 -142 -57q28 -38 57 -95q-48 -9 -67 29t-47 47q-48 0 -90.5 -9.5t-70.5 9.5q0 29 28 19q29 -9 67 0 q123 57 256 67q37 38 32.5 80.5t-4.5 80.5q-19 28 -47 28q-19 0 -28.5 5t9.5 14q66 19 104 -57zM820 473q-66 19 -133 9q57 38 124 19q9 -9 9 -28z" />  </g> </svg>