<?xml version="1.0" standalone="no"?> <!DOCTYPE svg PUBLIC "-//W3C//DTD SVG 1.1//EN" "http://www.w3.org/Graphics/SVG/1.1/DTD/svg11.dtd" > <svg xmlns="http://www.w3.org/2000/svg" xmlns:xlink="http://www.w3.org/1999/xlink" version="1.1" viewBox="0 0 1024 1024">  <g transform="matrix(1 0 0 -1 0 880)">  <path fill="currentColor" d="M512 648q9 -28 47 -38q38 0 48 -47q-38 -10 -76 -10h-57q0 29 19 38q-47 57 -28 114q19 19 19 -9q9 -19 28 -48zM834 430q-85 0 -161 -9q-28 -10 -37.5 -38.5t-28.5 -47.5q19 -9 42.5 -23.5t42.5 -42.5q-47 -190 -227 -256q-19 0 -33.5 9.5t-14.5 18.5q0 29 14.5 57.5 t14.5 47.5q-29 -10 -48 -29t-47 -28l208 265v38h-47q-152 -85 -313 -95q-9 10 -9 19q0 10 9 10q0 19 14.5 14t32.5 -14q275 133 588 114v-10zM626 222l9 37q-57 48 -95 10t-66 -85q-28 -57 -9 -133q104 66 161 171z" />  </g> </svg>