<?xml version="1.0" standalone="no"?> <!DOCTYPE svg PUBLIC "-//W3C//DTD SVG 1.1//EN" "http://www.w3.org/Graphics/SVG/1.1/DTD/svg11.dtd" > <svg xmlns="http://www.w3.org/2000/svg" xmlns:xlink="http://www.w3.org/1999/xlink" version="1.1" viewBox="0 0 1024 1024">  <g transform="matrix(1 0 0 -1 0 880)">  <path fill="currentColor" d="M650 657q0 -19 -9.5 -42.5t9.5 -52.5q9 10 23.5 14.5t23.5 -14.5q-66 -9 -80.5 -70.5t-33.5 -118.5h266v-10h-10q-9 0 -9 -9q-180 19 -322 -76h-76q-38 -29 -33.5 -76t-4.5 -95q-29 10 -29 29t-9 28v76q0 9 9 9l-170 -56q-19 18 -10 28l247 95q-19 47 -19 95q0 56 -48 47 q-9 9 -9 18.5t14 9.5t33 19q19 29 29 48q-10 19 -10 38t19 28h19q0 -28 -4.5 -56.5t14.5 -57.5q47 38 104 48q19 57 28 114q-19 9 -33 23.5t14 23.5q48 0 67 -57zM517 363q0 38 23.5 66.5t14.5 56.5h-19l-76 -37q-28 -19 -18.5 -52.5t18.5 -61.5q29 9 57 28zM783 145 q9 -19 4.5 -42.5t-4.5 -52.5q-19 0 -28.5 -9.5t-19.5 -18.5q-9 38 0.5 66.5t-0.5 56.5q-28 48 -66 48q28 37 61.5 13.5t52.5 -61.5z" />  </g> </svg>