<?xml version="1.0" standalone="no"?> <!DOCTYPE svg PUBLIC "-//W3C//DTD SVG 1.1//EN" "http://www.w3.org/Graphics/SVG/1.1/DTD/svg11.dtd" > <svg xmlns="http://www.w3.org/2000/svg" xmlns:xlink="http://www.w3.org/1999/xlink" version="1.1" viewBox="0 0 1024 1024">  <g transform="matrix(1 0 0 -1 0 880)">  <path fill="currentColor" d="M603 658q-19 -9 -29 -19v-9q19 -10 47.5 -0.5t66.5 9.5q38 10 80.5 10t80.5 -38q-123 -114 -208 -256q28 -10 52 4.5t62 4.5v-9l9 -10q-66 -9 -114 -38q-19 -57 38 -66q38 0 33.5 -23.5t-23.5 -42.5q-29 -10 -48 -33.5t0 -52.5q86 0 180 -28q-9 0 -9 -5v-14 q-180 28 -341 -48q-29 10 -38 29q28 47 85 66q38 10 23.5 38.5t-33.5 37.5q29 48 76 66q38 10 28.5 33.5t-28.5 33.5q-57 -19 -113 -19q-10 19 0 28q0 10 19 0q18 -9 32.5 10t42.5 0q0 19 19 19t38 9q0 19 -9 19q-19 10 0 19q-29 10 -48 -9q-9 -19 -28 -19q-95 132 -57 275 q19 9 10 -10q0 -19 18 -28q19 9 38 19q-9 38 10 66.5t0 56.5q0 9 9 9q19 -9 33.5 -32.5t-4.5 -52.5zM375 649q10 -38 0.5 -76t9.5 -86q19 10 28 29q19 19 38 -10q-19 -28 -57 -42t-28 -62q-29 -9 -19.5 -33t9.5 -52q19 0 28.5 -14.5t28.5 -33.5q-9 -9 -23.5 -4.5t-23.5 14.5 q-29 19 -38 -19q-29 -47 -43 -104t-52 -95v9q85 171 104 351q-9 19 -19 19q-9 0 -9 -9q38 38 38 94.5v104.5q-19 9 -29 9q-9 29 19 38q29 0 38 -28zM773 611q-132 -10 -256 -29q-28 -85 29 -170q47 47 66 104q-19 9 -19 -0.5v-18.5q-28 -10 -57 0q-9 28 10 38q19 0 38 9 q28 10 56.5 10t57.5 -29h-10l-57 -75h38q57 75 104 161zM243 355q-10 -10 -19 -10q-19 0 -10 10q-19 28 -28.5 56.5t9.5 47.5q19 -9 24 -42.5t24 -61.5zM612 175q-38 0 -57 -29q10 -9 19 -19q19 0 28.5 19t9.5 29z" />  </g> </svg>