<?xml version="1.0" standalone="no"?> <!DOCTYPE svg PUBLIC "-//W3C//DTD SVG 1.1//EN" "http://www.w3.org/Graphics/SVG/1.1/DTD/svg11.dtd" > <svg xmlns="http://www.w3.org/2000/svg" xmlns:xlink="http://www.w3.org/1999/xlink" version="1.1" viewBox="0 0 1024 1024">  <g transform="matrix(1 0 0 -1 0 880)">  <path fill="currentColor" d="M365 743q0 -9 -5 -23.5t5 -33.5q19 0 42.5 19t52.5 19q-10 19 -5 38t33 19q-9 -76 10 -161q-10 0 -10 -10q-28 29 -38 57q-66 -57 -114 -142q19 9 48 19q38 9 47 -29q-57 -18 -85 -66q9 -38 -5 -80.5t-5 -90.5q67 86 124 181q-29 -124 -95 -247q-10 -9 -29 -9t-19 9 q-37 47 -23 94.5t14 95.5l-152 -180q48 104 114 189q-38 -9 -66.5 -23.5t-56.5 -4.5q9 38 37.5 42.5t57.5 23.5q19 48 47 90.5t19 89.5q9 57 19 114q-38 19 -47 38v19h9q19 -10 47 -10q29 -9 29 -47zM877 696q-48 -10 -95 -14.5t-85 -33.5q-29 -9 -48 -19v-9q19 0 48 9 q28 10 38 -28q-19 -10 -33.5 -10t-23.5 -19q9 -28 9 -66q10 -38 57 -28q0 -10 10 -10q-29 -19 -57.5 -42.5t-18.5 -61.5q28 -19 71 4.5t80 -23.5q-56 -19 -113 -19q-67 -19 -38 -95q-19 -152 -29 -313q-9 161 -19 323v37q-47 19 -89.5 -9t-71.5 0q0 28 19 28q29 10 48 19 q37 48 75 86q10 9 19 9q-47 10 -80 -14t-71 -33q-19 38 9 57q38 9 48 38q19 38 19 75q-29 0 -38 19q19 29 56.5 43t37.5 52q-9 19 -18.5 33.5t-19.5 23.5q-37 0 -66 -9v-10v19q161 114 351 38q9 -19 19 -47zM782 724q-47 29 -95 19q-19 -9 -42.5 -4.5t-33.5 -23.5l19 -19 q29 -48 67 -14.5t85 42.5zM204 563h57q-10 38 19 47q0 -28 -19 -52t-48 -33q-19 9 -28 19q-10 19 9 28q-9 29 0.5 52.5t37.5 23.5q0 -47 -28 -85zM365 629h-10v19h10v-19zM640 553q-48 -38 -57 -94h19q38 -10 38 38v56z" />  </g> </svg>