<?xml version="1.0" standalone="no"?> <!DOCTYPE svg PUBLIC "-//W3C//DTD SVG 1.1//EN" "http://www.w3.org/Graphics/SVG/1.1/DTD/svg11.dtd" > <svg xmlns="http://www.w3.org/2000/svg" xmlns:xlink="http://www.w3.org/1999/xlink" version="1.1" viewBox="0 0 1024 1024">  <g transform="matrix(1 0 0 -1 0 880)">  <path fill="currentColor" d="M384 696q-38 -95 -19 -199q10 9 19 28q29 10 38 -19q-57 -19 -66.5 -80.5l-18.5 -118.5h19q28 38 57 66q9 10 19 10q-38 -85 -95 -152v-208q-29 75 -38 142q-19 -10 -28.5 -24t-19.5 -33l-27.5 14t-9.5 14q56 124 85 256q-85 -47 -180 -47q-10 9 -10 19q0 9 10 19 q104 19 189 76q0 142 57 265q10 -19 19 -28zM726 554q-105 -86 -124 -218q29 -10 67 -19.5t57 -47.5q-10 -28 -38 -66q-19 -29 19 -57q113 -29 208 -123v-10q-123 57 -237 104q-19 10 -28 10q-76 -57 -152 -38q-28 19 -38 38q66 -19 133 19q-67 47 -133 47q-28 -38 0 -85 h-19q-19 218 57 408l9 -10l-37 -218v-38q28 -28 75.5 -33t85.5 -33q19 19 28.5 38l18.5 38q-38 19 -71 19t-52 28q0 104 66 190q-19 28 -33 18.5t-24 -28.5q29 48 67 86q57 47 95 -19z" />  </g> </svg>