<?xml version="1.0" standalone="no"?> <!DOCTYPE svg PUBLIC "-//W3C//DTD SVG 1.1//EN" "http://www.w3.org/Graphics/SVG/1.1/DTD/svg11.dtd" > <svg xmlns="http://www.w3.org/2000/svg" xmlns:xlink="http://www.w3.org/1999/xlink" version="1.1" viewBox="0 0 1024 1024">  <g transform="matrix(1 0 0 -1 0 880)">  <path fill="currentColor" d="M668 601h76q47 0 57 -48q9 -19 42.5 -23.5t42.5 -42.5q-85 38 -161 -19q-28 0 -19 -19q10 -19 29 -28q-19 -19 -43 -33.5t-24 -52.5q19 0 38 9.5t38 -18.5q-19 -29 -47 -38q-38 -10 -38 -48q19 10 47.5 19.5t56.5 -19.5q-38 -28 -85 -47q-48 -28 -29 -85 q67 -29 147.5 -24t156.5 -33v-19q-247 -29 -446 95q-28 0 -33 -19t-14 -38q-48 -38 -95 -38q-19 28 9 28q19 10 38 19l19.5 38t28.5 29q-29 19 -48 9.5l-38 -19.5q-38 -28 -61.5 -66t-61.5 -57v199q-28 -19 -57 -19q-19 9 -14 18.5t14 19.5q76 57 95 152q-76 66 -123 -10 q-29 -76 -95 -104q133 161 208 351q-9 9 -9 19q0 28 19 28t38 -9q9 -10 -0.5 -33.5t-9.5 -42.5q29 -10 62 -10t52 -38q-66 10 -123 10q-10 0 -19.5 -9.5t-28 -38t9.5 -56.5q28 -10 57 9q28 28 57 -9q-10 -38 -33.5 -66.5t-33.5 -66.5l38 18.5t38 -18.5q-123 -57 -104 -190 q28 19 52 47.5t52 47.5q0 -10 10 -19h38h9q-9 104 10 190q-19 0 -33.5 -9.5t-23.5 -0.5q19 38 47.5 52.5l65.5 32.5q29 -9 52.5 5t61.5 14v57q-19 19 -42.5 14.5t-23.5 14.5q9 19 28 19q38 0 48 28q-19 67 19 123q19 -28 14 -61t-5 -71zM725 553h-38t-19 -28q-9 0 0 -10 q0 -9 19 -9q10 9 19.5 23.5t18.5 23.5zM621 421q-29 9 -57.5 -0.5t-37.5 -37.5q-28 -48 -37.5 -105t37.5 -104q28 28 47 57l-9 9q-19 10 -29 10q0 38 24 57t33 47q-19 0 -38 -9.5t-28 0.5q9 38 37.5 47.5t57.5 28.5zM621 127l-19 19q-10 0 -10 -5t5 -9.5t9.5 -4.5h14.5z" />  </g> </svg>