<?xml version="1.0" standalone="no"?> <!DOCTYPE svg PUBLIC "-//W3C//DTD SVG 1.1//EN" "http://www.w3.org/Graphics/SVG/1.1/DTD/svg11.dtd" > <svg xmlns="http://www.w3.org/2000/svg" xmlns:xlink="http://www.w3.org/1999/xlink" version="1.1" viewBox="0 0 1024 1024">  <g transform="matrix(1 0 0 -1 0 880)">  <path fill="currentColor" d="M622 672q-57 -28 -95 -85q0 -19 19 -19q19 -19 9 -38q-76 -29 -142 -67l-9 -9l-171 -275q-10 -19 -19 -47h-19q142 218 218 464q-9 10 -9 14.5v9.5t4.5 9.5t14.5 -4.5q9 -19 9 -57l10 -10q66 48 104 114q-38 9 -66.5 -9.5t-56.5 0.5l-38 37t0 38q38 -66 113 -28 q86 47 124 -38zM830 274q-57 38 -95 66q-142 48 -284 57q47 38 104 28.5t114 -28.5l85.5 -42.5t75.5 -80.5zM536 236l-94 -57q0 19 14 33t14 24q-19 19 -38 28q-9 10 0 19v19q10 -28 57 -19q38 0 47 -47zM517 -1v-10v-9q-47 76 -104 123q-9 29 10 29t38 -19q47 -48 56 -114z " />  </g> </svg>