<?xml version="1.0" standalone="no"?> <!DOCTYPE svg PUBLIC "-//W3C//DTD SVG 1.1//EN" "http://www.w3.org/Graphics/SVG/1.1/DTD/svg11.dtd" > <svg xmlns="http://www.w3.org/2000/svg" xmlns:xlink="http://www.w3.org/1999/xlink" version="1.1" viewBox="0 0 1024 1024">  <g transform="matrix(1 0 0 -1 0 880)">  <path fill="currentColor" d="M579 771q-10 -10 -29 -10q-19 10 -28 10h-52.5t-33.5 -29q10 -113 10 -246q-10 -47 -10 -114q19 19 28.5 38l19.5 38q19 -9 57 0q0 10 9 19h10q-19 28 -47.5 37.5t-38.5 19.5q38 19 95 4.5t67 52.5q-10 19 0 19q9 9 0 9q-57 -28 -114 -47q66 57 132 104q29 -9 33.5 -37.5 t-4.5 -66.5q-38 -19 -29 -57q19 -10 52.5 -14.5t52.5 -42.5q-57 0 -114 23.5t-85 -42.5q-38 0 -52.5 -28.5t-14.5 -66.5v-76q38 19 62 57t52 67q10 9 19.5 4.5t18.5 -23.5v-10q-66 -57 -114 -142q171 -57 361 -114q-10 0 -10 -9v-10q-209 29 -389 86q-28 -114 -38 -247 q0 180 -9 341v38q-29 0 -47.5 -19t-37.5 -9q-19 0 -24 -14.5t5 -33.5q19 0 42.5 -4.5t51.5 4.5q-56 -104 -123 -208q-19 0 -28.5 4.5t5 42.5t52.5 95q-38 0 -71.5 -23.5t-61.5 14.5q28 38 66 66t57 76q10 19 33.5 23.5t32.5 23.5q0 19 5 38t-5 29q-37 -29 -70.5 -67 t-80.5 -47q-19 28 4.5 42.5t33.5 33.5q-29 161 28 313q-19 19 -38 9q-28 -19 -47 -19q-29 10 -57.5 5t-37.5 14q9 38 38 29q28 -19 66 -10q76 38 161.5 66.5t180.5 -9.5zM408 667q9 28 -19 38q-19 9 -28 19q-19 -19 -19 -43t19 -28.5t19 -14.5v-9h18q-9 0 -9 -10 q-19 -47 -28 -104q19 0 19 -23.5v-52.5q28 57 23 114t5 114zM323 562h9v38z" />  </g> </svg>