<svg height="169px" id="Layer_1" version="1.1" width="175px" xml:space="preserve" xmlns="http://www.w3.org/2000/svg" xmlns:xlink="http://www.w3.org/1999/xlink">
    <g id="PathID_1" opacity="1" transform="matrix(1.00443, 0, 0, 1.00443, 88.2, 111.6)">
        <path d="M35.8 -3.2Q33.9 17.1 19.95 32.1L11.8 33.45L0.2 34.3L-11.65 33.55Q-21.25 32.05 -30.5 28.7L-31.4 27.7Q-34.3 24.05 -35.65 19.7L-36 18.45Q-17.2 25.4 1.55 17.95Q20.8 10.4 28.45 -8.65Q33.65 -21.6 27.65 -34.25Q37.5 -20.2 35.8 -3.2" style="fill:#006AAA;fill-opacity:1">
        </path>
    </g>
    <g id="PathID_2" opacity="1" transform="matrix(1.00443, 0, 0, 1.00443, 116.5, 98.05)">
        <path d="M29.1 -1.3Q27.9 4.35 26.3 9.95Q24.6 15.65 21.95 21Q17.6 29.7 11.55 37.45L10.3 37.95Q6 39.65 1.35 39.55L0.1 39.5Q12.5 23.75 11.25 3.65Q10 -17.05 -5.75 -30.2Q-16.45 -39.15 -30.35 -37.4Q-14 -42.35 1.7 -35.55Q20.4 -27.45 30.35 -9.55Q29.95 -5.35 29.1 -1.3" style="fill:#22497D;fill-opacity:1">
        </path>
    </g>
    <g id="PathID_3" opacity="1" transform="matrix(1.00443, 0, 0, 1.00443, 103.2, 59.2)">
        <path d="M29.55 -7.1Q36.5 -0.3 42 7.85L42.1 9.2Q42.35 13.8 40.85 18.2L40.45 19.4Q29.3 2.75 9.75 -2.3Q-10.3 -7.5 -27.7 3.4Q-39.5 10.8 -42.1 24.6Q-41.75 7.45 -30.45 -5.35Q-16.95 -20.6 3.2 -24.55Q7 -22.85 10.55 -20.85L20.4 -14.75Q25.35 -11.3 29.55 -7.1" style="fill:#0153A4;fill-opacity:1">
        </path>
    </g>
    <g id="PathID_4" opacity="1" transform="matrix(1.00443, 0, 0, 1.00443, 69, 72.2)">
        <path d="M26.9 -37.5Q7.6 -32.05 -3.2 -15.05Q-14.35 2.45 -9.35 22.35Q-5.95 35.85 6.35 42.6Q-9.8 37 -18.5 22.25Q-28.9 4.7 -26.4 -15.65L-20.6 -21.5Q-16.25 -25.45 -11.7 -29Q-6.95 -32.65 -1.65 -35.4Q7 -39.85 16.4 -42.55L17.7 -42.25Q22.2 -41.05 25.9 -38.3L26.9 -37.5" style="fill:#77C5F2;fill-opacity:1">
        </path>
    </g>
    <g id="PathID_5" opacity="1" transform="matrix(1.00443, 0, 0, 1.00443, 70.25, 98)">
        <path d="M-38.9 -23.1L-38.2 -24.25Q-35.65 -28.15 -31.85 -30.85L-30.85 -31.55Q-31.6 -11.5 -18.75 4.05Q-5.6 20.05 14.9 21.45Q28.8 22.35 39 12.75Q28.65 26.4 11.95 30.1Q-7.95 34.55 -26.5 25.9L-30.35 18.6L-34.7 7.8Q-36.65 2.15 -37.65 -3.75Q-39.2 -13.3 -38.9 -23.1" style="fill:#159AEA;fill-opacity:1">
        </path>
    </g>
    <g id="PathID_20" opacity="1" transform="">
    </g>
    <g id="PathID_21" opacity="1" transform="matrix(0.269469, 0, 0, 0.302246, 68.6, 69.5)">
        <path d="M136.8 36.6L140.3 43.4Q142.15 46.9 138.4 49.65Q134.3 51.65 132.2 47.15L128.7 41.3Q125.6 35.35 129.7 33.45Q133.7 31.25 136.8 36.6M127.45 31.6L121.25 31L116.25 26Q113.15 22.25 116.25 19.4Q119.6 16.3 122.75 19.4L128.1 25Q131.2 29.1 127.45 31.6M102.45 23.5Q113.75 44.05 113.75 75.05Q113.75 105.65 102.45 126.2L99.7 130.95L118.1 118.1Q136.15 100.05 136.15 75.05Q135.9 67.8 142.75 67.8Q150 67.8 150 75.05Q150 105.65 128.1 127.8Q105.55 149.75 74.95 149.75Q43.7 149.75 21.9 127.8Q0 105.65 0 75.05Q0 43.8 21.9 21.9Q43.7 0 74.95 0Q79.65 0 81.3 3.1Q93.35 6.35 102.45 23.5M95.6 30.35Q88.75 15.3 79.65 12.55L79.65 45.9L101.2 45.9L95.6 30.35M102.2 50.25L79.65 50.25L79.65 72.55L104.3 72.55L102.2 50.25M137.4 63.1L135.9 56.6Q134.7 51.9 139.3 50.65Q143.75 49.65 144.65 53.75L146.5 61Q147.5 64.1 143 65.6Q138.65 66.95 137.4 63.1M48.65 45.9L70.3 45.9L70.3 14.05L66.2 14.4Q59.6 18.8 54.4 30.35L48.65 45.9M50.05 19.05Q39.95 23.5 31.85 31.85Q25 38.2 20.9 45.9L39.3 45.9Q42.2 33.45 47.4 23.5L50.05 19.05M13.7 72.55L36.2 72.55L38.45 50.25L18.8 50.25Q14.05 60.6 13.7 72.55M13.7 77.15Q14.05 89.1 18.8 99.45L38.45 99.45L36.2 77.15L13.7 77.15M70.3 72.55L70.3 50.25L47.8 50.25L45.3 72.55L70.3 72.55M45.3 77.15L47.4 99.45L70.3 99.45L70.3 77.15L45.3 77.15M47.4 126.2Q42.2 116.25 39.3 103.8L20.9 103.8L31.85 118.1Q39.95 126.2 50.05 130.95L47.4 126.2M70.3 103.8L48.65 103.8L54.4 119.35Q59.6 130.7 66.2 135.3L70.3 135.65L70.3 103.8M79.65 135.65L83.75 135.3Q90.25 130.7 95.6 119.35L101.2 103.8L79.65 103.8L79.65 135.65M79.65 77.15L79.65 99.45L102.2 99.45L104.3 77.15L79.65 77.15" style="fill:#25ADDA;fill-opacity:1">
        </path>
    </g>
</svg>