<?xml version="1.0" encoding="utf-8"?>
<svg version="1.1" id="Layer_1"
xmlns="http://www.w3.org/2000/svg"
xmlns:xlink="http://www.w3.org/1999/xlink"
width="175px" height="169px"
xml:space="preserve">
<g id="PathID_1" transform="matrix(1.00443, 0, 0, 1.00443, 88.2, 111.6)" opacity="1">
<path style="fill:#006AAA;fill-opacity:1" d="M35.8 -3.2Q33.9 17.1 19.95 32.1L11.8 33.45L0.2 34.3L-11.65 33.55Q-21.25 32.05 -30.5 28.7L-31.4 27.7Q-34.3 24.05 -35.65 19.7L-36 18.45Q-17.2 25.4 1.55 17.95Q20.8 10.4 28.45 -8.65Q33.65 -21.6 27.65 -34.25Q37.5 -20.2 35.8 -3.2" />
</g>
<g id="PathID_2" transform="matrix(1.00443, 0, 0, 1.00443, 116.5, 98.05)" opacity="1">
<path style="fill:#22497D;fill-opacity:1" d="M29.1 -1.3Q27.9 4.35 26.3 9.95Q24.6 15.65 21.95 21Q17.6 29.7 11.55 37.45L10.3 37.95Q6 39.65 1.35 39.55L0.1 39.5Q12.5 23.75 11.25 3.65Q10 -17.05 -5.75 -30.2Q-16.45 -39.15 -30.35 -37.4Q-14 -42.35 1.7 -35.55Q20.4 -27.45 30.35 -9.55Q29.95 -5.35 29.1 -1.3" />
</g>
<g id="PathID_3" transform="matrix(1.00443, 0, 0, 1.00443, 103.2, 59.2)" opacity="1">
<path style="fill:#0153A4;fill-opacity:1" d="M29.55 -7.1Q36.5 -0.3 42 7.85L42.1 9.2Q42.35 13.8 40.85 18.2L40.45 19.4Q29.3 2.75 9.75 -2.3Q-10.3 -7.5 -27.7 3.4Q-39.5 10.8 -42.1 24.6Q-41.75 7.45 -30.45 -5.35Q-16.95 -20.6 3.2 -24.55Q7 -22.85 10.55 -20.85L20.4 -14.75Q25.35 -11.3 29.55 -7.1" />
</g>
<g id="PathID_4" transform="matrix(1.00443, 0, 0, 1.00443, 69, 72.2)" opacity="1">
<path style="fill:#77C5F2;fill-opacity:1" d="M26.9 -37.5Q7.6 -32.05 -3.2 -15.05Q-14.35 2.45 -9.35 22.35Q-5.95 35.85 6.35 42.6Q-9.8 37 -18.5 22.25Q-28.9 4.7 -26.4 -15.65L-20.6 -21.5Q-16.25 -25.45 -11.7 -29Q-6.95 -32.65 -1.65 -35.4Q7 -39.85 16.4 -42.55L17.7 -42.25Q22.2 -41.05 25.9 -38.3L26.9 -37.5" />
</g>
<g id="PathID_5" transform="matrix(1.00443, 0, 0, 1.00443, 70.25, 98)" opacity="1">
<path style="fill:#159AEA;fill-opacity:1" d="M-38.9 -23.1L-38.2 -24.25Q-35.65 -28.15 -31.85 -30.85L-30.85 -31.55Q-31.6 -11.5 -18.75 4.05Q-5.6 20.05 14.9 21.45Q28.8 22.35 39 12.75Q28.65 26.4 11.95 30.1Q-7.95 34.55 -26.5 25.9L-30.35 18.6L-34.7 7.8Q-36.65 2.15 -37.65 -3.75Q-39.2 -13.3 -38.9 -23.1" />
</g>
<g id="PathID_6" transform="matrix(1.06284, 0, 0, 1.01162, 0.05, 0)" opacity="1">
<path style="fill:#0153A4;fill-opacity:1" d="M128.5 22.9Q119.4 15.65 106.95 11.15L115.55 6.95Q128.6 12.85 138.35 21.9L128.5 22.9M148.3 45.9Q142.1 34.7 132.25 25.85L141.75 25.3Q152.05 36.05 157.75 48.85L148.3 45.9M102.3 9.75Q90.2 6.25 76.6 7.3L82.95 0Q97.9 0.25 111.15 5.1L102.3 9.75M150.45 50.1L159.55 53.3Q164.75 66.9 165.1 79.8L157.4 73.45Q156.05 61.8 150.45 50.1M43.95 17.8Q32.95 24.4 24.25 34.95L23.45 25.3Q34.1 14.4 46.9 8.3L43.95 17.8M78.2 0.15L71.85 7.85Q60.15 9.45 48.25 15.45L51.3 6.25Q64.8 0.8 78.2 0.15M21.3 38.8Q14.25 48.75 10.3 61.2L5.9 52.7Q11.3 39.1 20.15 28.9L21.3 38.8M7.35 91.95L0 85.9Q-0.35 70.95 4.3 57.25L9.05 66Q6 78.55 7.35 91.95M8.05 96.7Q9.95 108.6 16.1 120.15L6.9 117.4Q1.25 104.05 0.2 90.7L8.05 96.7M39.1 146.3Q48.6 153.25 60.6 156.85L52.25 161.6Q39.55 156.5 29.2 147.8L39.1 146.3M35.25 143.5L25.8 144.6Q15.3 134.55 8.95 121.75L18.45 124.2Q25.05 135.2 35.25 143.5M65.15 158.1Q77.25 161.15 90.05 159.8L84.05 167.4Q69.8 167.75 56.65 163.2L65.15 158.1M141.2 142.7Q130.75 153.25 118.65 159L121.25 149.25Q131.9 142.9 140.3 132.95L141.2 142.7M155.45 103.35Q158.65 91.25 157.85 78.1L165.2 84.45Q165.1 99.2 160.2 112.2L155.45 103.35M143.1 129.2Q150.15 119.9 154.1 107.8L158.5 116.5Q152.85 129.8 144.35 139.3L143.1 129.2M114.45 160.95Q101.5 166.4 88.7 167.3L94.7 159.25Q106.6 157.2 117.25 151.55L114.45 160.95" />
</g>
<g id="PathID_7" transform="matrix(0.357088, -0.246211, 0.206165, 0.426451, 43.9, 43.6)" opacity="1">
<path style="fill:#1A80E6;fill-opacity:1" d="M18.3 -14.5L18.3 -12.75L23.7 -13.15Q25.75 -12.6 25.75 -10.95Q25.15 -9.8 23.2 -9.8Q20.95 -9.8 18.3 -9.45L18.3 -2.85Q18.3 -1.65 16.3 -1.15Q13.3 -0.75 13.3 -3.2L13.3 -9Q7.7 -8.6 4.15 -7.05Q2.05 -7.05 1.55 -9.1Q2 -11.85 3.95 -12.35Q7.95 -11.95 13.3 -12.3L13.3 -14.5Q9.6 -14.5 6.7 -13.7Q4.3 -15.15 5.15 -17.6L6.8 -19.25Q8.65 -21.15 9.8 -23.9Q8.05 -23.9 6.1 -23.15Q3.9 -22.7 3.9 -24.4Q3.9 -27.05 6.75 -28.45Q8.45 -27.65 11.15 -27.65Q12.15 -29.65 12.55 -31.6Q13.1 -33.15 15.55 -32.7Q18.65 -31.3 16.7 -27.65Q25.35 -27.65 25.35 -25.95Q25.35 -24.85 23.7 -24.3L14.9 -24.3Q12.35 -21 10.85 -17.65Q10.85 -17.05 13.3 -17.4Q13.3 -19.4 13.7 -21.05Q14.65 -22.95 16.25 -22.95Q17.8 -22.4 18.3 -20.9L18.3 -17.45L22.5 -17.45Q24.15 -16.85 23.75 -15.65Q23.75 -14.1 18.3 -14.5M30.05 -22.1Q32.6 -22.55 33.2 -20.9L33.2 -16.8Q43.5 -9.15 50.45 -6.15Q44 2 39.9 -3.95Q35.8 -9.9 32.45 -12.55Q28.7 -4.75 23.3 -3.1Q19.35 -1.95 18.4 -4.7Q18.4 -5.5 22.65 -7.2Q24.45 -8.3 26.35 -10.55Q28.2 -13.95 28.2 -16.55L28.2 -20.1Q28.2 -21.65 30.05 -22.1M27.8 -31.15Q28.35 -32.75 30.3 -32.75Q33.6 -32.25 33.15 -29.4Q31.6 -26.1 33.8 -26.1Q38.05 -26.1 40.9 -26.85Q43.75 -25.9 43.35 -22.65Q40.45 -18.15 36.3 -16.05Q33.7 -16.05 35.8 -18.85Q36.9 -20.35 37.65 -21.8Q38 -22.7 35.75 -22.7Q31.75 -22.7 30.4 -23.1Q29.5 -22.45 28.3 -21.3Q26.3 -19.3 23.8 -18.05Q21.8 -17.6 20.75 -19.45Q24.05 -21.6 26.3 -25.35Q27.8 -28.45 27.8 -31.15" />
</g>
<g id="PathID_8" transform="matrix(0.408317, -0.068532, 0.0573852, 0.487631, 65.85, 28.45)" opacity="1">
<path style="fill:#1A80E6;fill-opacity:1" d="M28.2 -22.35L22.6 -22.35Q20.3 -21.2 16.75 -20Q14.9 -19.6 14.9 -21.5Q18.15 -24 20.25 -26.45Q21.55 -28.05 22.85 -29.85Q24.4 -30.8 25.95 -29.85Q28.1 -27.5 25.35 -25.7L28.2 -25.7L28.2 -29.1Q28.2 -31.35 29.25 -31.9Q31.1 -32.75 32.5 -31.9Q33.85 -31.45 34.75 -29.1Q34.35 -27.85 34.35 -25.7L42.1 -25.7Q45.35 -24.55 42.6 -22.35L34.35 -22.35L34.35 -18.2Q42.85 -17.45 49.75 -17.85Q50.45 -17.05 49.2 -14.35Q47.05 -10.15 42.6 -11.8Q38.8 -13.7 34.35 -13.7L34.35 -5.55Q35.15 -0.85 31.45 -0.4Q27.8 0 28.2 -5.2L28.2 -13.7Q20.6 -14.1 16.75 -11.75Q14.5 -11.35 14.5 -13.4Q14.5 -15.6 15.8 -16.9Q17.1 -18.2 18.95 -18.6Q21.35 -17.45 28.2 -18.2L28.2 -22.35M18.65 -29.35Q17 -26.45 13.95 -23.8L13.95 -6.35Q13.95 -4.35 13.55 -2.6Q12.1 -1.15 10.15 -1.15Q8.2 -1.15 8.2 -3.65Q9.4 -15.75 8.7 -21.55Q4.15 -19.2 2.8 -21.8Q1.95 -23 1.55 -25.25Q2.1 -26.4 5.2 -26.85Q11.25 -28 17.1 -31.15Q19.05 -31.55 18.65 -29.35" />
</g>
<g id="PathID_9" transform="matrix(0.40332, 0.10238, -0.0857282, 0.481662, 90.85, 23.85)" opacity="1">
<path style="fill:#1A80E6;fill-opacity:1" d="M4.9 -23.7Q6.45 -22.95 8.6 -23.25L8.6 -29.5Q8.6 -32.75 11.9 -32.35Q14.3 -31.85 14.75 -29.45Q14.35 -27.85 14.35 -25.55Q13.95 -23.7 14.65 -23.7Q16.2 -23.35 18.1 -23.7Q19.65 -23.7 20.1 -22.2Q20.45 -24.3 21.3 -25.15Q22.65 -26.45 24.65 -26.05Q25.7 -25.3 27.95 -25.65Q28.6 -28 29 -31.6Q30.1 -33.55 31.65 -32.7Q35.15 -32.25 34.35 -28.2L33.6 -25.05Q34.7 -24.5 36.85 -24.9Q39.55 -25.7 40.5 -24.35Q43 -22.6 41.4 -19.4Q45.95 -15.75 50.45 -12.85Q50 -11.2 49.1 -10.3Q46.35 -7.8 43.75 -10.65Q41.2 -13.55 40.2 -16.45Q39.85 -14.45 39.05 -11.7Q38.25 -8.95 37.05 -6.1Q36.25 -4.55 34.6 -2.45Q30.35 0.4 26.45 -1.25Q24.8 -2.9 23.5 -4.6Q23.5 -6.45 26.15 -5.25Q30.4 -4.1 32.6 -9Q33.75 -11.6 34.5 -13.95Q35.3 -16.3 35.7 -18.25Q36.45 -19.85 35.15 -20.4L32.4 -21.55Q32.4 -20.8 31.2 -17.6Q30 -14.4 27.55 -10.3Q26.05 -8.05 24 -5.6Q20.25 -1.95 17.55 -2.75Q14.5 -4.3 15.85 -5.55Q17 -6.75 18.95 -7.9Q21.25 -10.2 23.35 -13.15Q26.65 -17.9 27.05 -21.6Q25.25 -21.95 22.7 -20.85Q20.6 -20.05 20.1 -21.95L20.25 -22.1Q20.25 -22.2 20.1 -22.2L20 -22L20.1 -21.95Q20.2 -19.6 18.05 -19.6Q15.75 -20 14.35 -19.7Q13.95 -12.25 14.35 -4.65Q14.35 -1.2 11.05 -0.75Q7.8 -0.35 8.2 -5.25Q8.6 -12.25 8.6 -19.6Q6.1 -19.2 3.8 -18.4Q1.55 -17.6 1.55 -20.55Q2.45 -23.25 4.9 -23.7M19.7 -17.25L21.3 -19.7Q23.75 -20.6 22.95 -15.55Q22.55 -14 21.3 -12.3Q20 -11.05 18.65 -10.6Q16.05 -10.15 16.05 -13.15Q16.95 -14.9 19.7 -17.25" />
</g>
<g id="PathID_10" transform="matrix(0.349676, 0.260944, -0.218502, 0.417598, 115.55, 30.55)" opacity="1">
<path style="fill:#1A80E6;fill-opacity:1" d="M38.9 -12.15L23.75 -12.15Q24.95 -12.05 24.45 -10.35Q22.8 -9.5 20.85 -7.6Q19.05 -6 24.7 -5.7Q27.35 -5.7 29 -7.05L26.8 -8.3Q25.85 -9.4 27.15 -11.8Q27.8 -12.35 29.2 -11.9Q30.6 -11.5 32.25 -9.85Q36.55 -5.95 38.2 -4.25Q38.7 -2.35 36.85 -2.35Q33.55 -3.55 31.95 -5.05Q28.6 -1.15 24.3 -1.15Q20.7 -1.95 18 -3.5Q15.9 -3.5 13.95 -2.7Q11.75 -2.7 11.75 -4.3Q11.35 -7.1 13.3 -7.65Q15.55 -8 18.15 -10.25Q20 -12.05 19.55 -12.15Q14.3 -12.15 11.15 -10.95Q9.4 -10.95 9.4 -12.15Q9 -13.55 10.3 -14.9Q12.55 -16.65 13.8 -16.25Q15.05 -15.9 17.4 -15.9Q22.1 -16.25 27.15 -16.25Q30.3 -16.25 37.1 -15.45Q39.95 -15.05 41.05 -13.95Q40.5 -12.15 38.9 -12.15M26.85 -30.5Q27.3 -29.4 26.5 -28.85Q42.6 -21.35 49.65 -20.05Q45.4 -13.3 41 -15.35Q32.7 -21.25 24.05 -26.25Q16.1 -20.45 9.75 -17.3Q5.55 -15.65 4.6 -16.1Q2.55 -16.5 1.25 -18.2Q0.35 -20.05 4.7 -20.95Q15.1 -23.65 23.3 -32.25Q24.95 -33.15 26.85 -30.5M30.3 -18L16.4 -18Q15.25 -18.7 16.15 -20.6Q17.05 -22.55 18.95 -22.15L24.4 -22.15L30.45 -21.35L32.4 -20.4Q32.4 -18 30.3 -18" />
</g>
<g id="PathID_11" transform="matrix(0.132068, 0.283221, -0.283221, 0.132068, 13.55, 105.15)" opacity="1">
<path style="fill:#005796;fill-opacity:1" d="M23.2 -25.2Q22.8 -22 22.4 -19.6Q20.8 -11.6 11.2 -11.6L11.6 -8.8Q28 -8.4 38.4 -8.4Q39.6 -8.8 40 -14.4Q36.4 -10.8 33.6 -10.8Q27.6 -11.2 26 -17.2Q25.6 -20.4 26.8 -25.2L23.2 -25.2M30.8 -24.8Q29.6 -23.2 29.6 -18.4Q30.4 -15.2 34.4 -15.2Q37.6 -15.6 40 -16.8L40 -23.6Q40.4 -24.8 30.8 -24.8M10.8 -23.6L10.8 -13.6Q16.8 -15.2 18.8 -21.2Q19.6 -23.6 19.2 -25.2Q10.8 -25.6 10.8 -23.6M9.6 -29.6Q11.2 -29.2 12.8 -28.4Q31.6 -26.8 40 -28.8Q42 -30 43.2 -28.8Q45.6 -26.8 45.2 -25.6Q44 -16.4 43.2 -5.6Q43.2 -2 39.6 -2.8Q38.4 -3.6 36.8 -4.4Q25.2 -6.8 12.8 -4.4Q11.2 -2.8 9.6 -3.2Q7.2 -3.6 7.2 -6.8Q8 -18.4 5.6 -24Q4.8 -27.2 6.8 -28.8Q8.4 -30 9.6 -29.6" />
</g>
<g id="PathID_12" transform="matrix(0.200871, 0.239389, -0.239389, 0.200871, 22.35, 123.15)" opacity="1">
<path style="fill:#005796;fill-opacity:1" d="M19.6 -29.2Q20 -26.8 20.4 -23.6L20.4 -20.4Q19.6 -11.2 14 -5.6Q9.6 -2 6.8 -2Q4.4 -1.6 2.4 -3.6Q1.6 -4.8 1.2 -6Q1.2 -6.4 4 -6.4Q10.4 -6.8 15.2 -14Q16.4 -16.8 16.8 -19.6Q16.8 -22 16 -24Q15.6 -25.6 14.8 -27.6Q14 -28.8 14 -29.6Q14 -30.8 14.8 -31.6Q16 -32.4 17.2 -32Q18.8 -31.2 19.6 -29.2M28 -30.8Q29.6 -30.8 30.8 -29.6Q31.6 -28.4 31.6 -27.6Q31.6 -25.2 31.2 -21.6L31.2 -6Q31.2 -4.4 30 -3.2Q29.2 -2.4 27.6 -2.4Q26.4 -2.8 26.4 -4.4Q27.2 -8.4 27.2 -12.4L27.2 -22Q27.2 -24.8 26.8 -27.6Q26.8 -30.4 28 -30.8M39.6 -2.4Q38.8 -25.2 38.4 -28.4Q38.4 -30.8 39.6 -31.6Q41.6 -33.2 43.2 -31.6Q44 -30.8 44.4 -29.6Q44.4 -28 44 -26Q43.6 -20.8 43.6 -16L44.4 -2.8Q44 -0.8 41.6 -0.8Q40.4 -0.8 39.6 -2.4" />
</g>
<g id="PathID_13" transform="matrix(0.252818, 0.183683, -0.183683, 0.252818, 35.4, 138.35)" opacity="1">
<path style="fill:#005796;fill-opacity:1" d="M18.8 -30.4Q17.6 -28 14 -24L14 -5.6Q14.4 -3.6 13.6 -2Q12.4 -0.8 10.8 -0.8Q9.6 -0.8 9.6 -2.8L9.6 -20.4Q6.8 -18 3.6 -20Q0.4 -22 1.2 -23.2Q10 -25.6 17.6 -31.6Q18.8 -32 18.8 -30.4M34 -28.8Q35.6 -27.6 32.8 -27.2L30 -27.2Q24 -27.6 24.8 -29.6Q26.4 -33.2 28 -32.4Q29.2 -31.2 34 -28.8M21.6 -25.2Q26.4 -25.6 30.8 -25.6Q47.2 -25.2 50.4 -24.4Q49.6 -22.8 48 -20.8Q46.4 -19.2 44 -20Q38.4 -21.6 32.8 -22.4Q30.4 -22.8 25.6 -22.4Q20 -21.6 17.6 -20.8Q15.6 -20.8 16 -22.8Q17.2 -24.8 19.2 -25.6Q20 -25.6 21.6 -25.2M25.6 -20.8Q27.2 -20.4 28.8 -20.4L34 -20.4Q36 -20.4 38 -20Q39.2 -18 35.6 -18.4L27.6 -18.4L23.6 -17.6Q22 -17.6 22.8 -19.6Q24.4 -21.6 25.6 -20.8M25.2 -16.8Q28.8 -16.4 37.2 -16.4Q40.4 -16 40 -15.2Q40 -14 39.2 -14Q34 -14.4 27.2 -14.4L22.8 -13.6Q21.2 -13.2 22 -15.6Q22.4 -16.4 25.2 -16.8M25.6 -11.6Q29.2 -12.4 31.6 -12L35.6 -11.2Q37.6 -12 40 -11.2Q41.2 -10.4 40.8 -8Q40.4 -6 40.4 -3.6Q40 -2 38.8 -1.6Q37.6 -1.2 35.6 -2Q31.6 -2.8 28 -2.8Q25.6 -2 23.2 -1.6Q20.8 -0.8 20.4 -3.6L19.6 -9.6Q19.6 -12 22.4 -12Q24 -11.6 25.6 -11.6M34.8 -8.8Q30.4 -9.6 26.4 -9.2Q25.2 -9.2 24.4 -8Q24 -5.6 26 -5.2Q36.4 -5.2 35.6 -5.6Q36.8 -8 34.8 -8.8" />
</g>
<g id="PathID_14" transform="matrix(0.291744, 0.11199, -0.11199, 0.291744, 51.85, 149.75)" opacity="1">
<path style="fill:#005796;fill-opacity:1" d="M13.6 -14Q12 -13.6 12 -15.6Q12 -20.8 11.2 -26.8Q11.6 -30.4 16 -28.8Q17.6 -28.4 19.6 -28.8Q21.2 -29.6 22 -31.6Q22.8 -33.6 24.8 -33.2Q26.8 -32.4 26.8 -31.2Q26.4 -29.6 24.4 -28.8Q31.2 -28 35.2 -28.8Q39.6 -30.4 40 -26.8Q38.8 -22 39.2 -16.8Q38.8 -12.8 34.4 -14.8Q26 -15.6 16.4 -14.8Q15.6 -14.4 13.6 -14M15.6 -12.8Q18.8 -11.6 22.4 -10.8Q24 -11.6 25.2 -13.6Q27.2 -15.6 29.2 -13.6Q30.4 -11.6 24.4 -10Q26.8 -9.2 29.6 -8.8Q32.4 -10.4 34 -12.8Q35.2 -14.4 37.2 -13.6Q39.2 -12.4 37.2 -10.8Q34.4 -8.8 31.2 -8.4Q42.4 -5.2 49.2 -9.6Q48.4 -6.4 47.2 -4.8Q43.6 0.4 34.8 -2Q32.4 -2.8 30.4 -4Q23.6 -7.6 16 -9.6Q14 -9.6 13.2 -8.8Q11.2 -8.4 12.4 -11.2Q14 -13.6 15.6 -12.8M16.4 -24.8L34.8 -24.8Q35.2 -26 34 -26.4L16.8 -26.4Q15.2 -26 16.4 -24.8M16.4 -21.2L34.4 -21.2Q35.6 -21.6 34.8 -22.8L16.4 -22.8Q15.2 -22 16.4 -21.2M34.8 -17.2Q35.6 -18.4 34.8 -19.2L16.4 -19.2Q14.8 -18.4 16 -17.2L34.8 -17.2M8.4 -13.6Q10 -15.2 10.4 -14Q10.8 -8.4 8 -4.8Q5.6 -2.4 3.2 -3.2Q1.2 -4.4 2.8 -7.2Q6 -9.6 8.4 -13.6" />
</g>
<g id="PathID_15" transform="matrix(0.310171, 0.0380842, -0.0380842, 0.310171, 70.65, 156.7)" opacity="1">
<path style="fill:#005796;fill-opacity:1" d="M17.6 -26.8Q14 -27.6 12.4 -26.8Q11.2 -24.8 12.4 -23.2Q14.4 -22.8 17.6 -23.2Q18.4 -24.8 17.6 -26.8M17.2 -12.4Q18 -14.4 17.2 -15.2Q15.2 -15.6 12 -15.2Q11.6 -13.6 12.4 -12Q14 -11.6 17.2 -12.4M8.4 -31.2Q11.2 -30 21.6 -30.4Q24.8 -30.4 24.8 -29.2Q25.6 -27.6 24 -27.2L22 -27.2Q21.2 -18 22 -2.4Q21.2 -0.8 18.4 -0.8Q17.2 -0.8 17.2 -2.4Q17.2 -6.4 17.6 -9.6Q16.4 -8.8 13.6 -8.4L9.2 -7.6Q6.4 -7.2 4 -6.4Q1.2 -5.6 1.6 -8.8Q2.4 -10.8 4.4 -11.2L8 -11.6Q8.8 -19.6 8 -26.4Q6.8 -26.8 5.2 -26Q3.2 -26 4 -28Q5.6 -30.8 8.4 -31.2M31.6 -29.2Q35.6 -30 39.2 -29.6Q40.4 -30.4 42 -30.8Q43.2 -30.8 44.4 -30Q46.4 -28.8 45.6 -27.2L44.8 -23.6Q44.4 -20.4 44 -18Q44 -16.4 42 -16Q41.2 -15.6 38.8 -16.8Q36.8 -17.2 34 -16.8Q31.2 -16.4 29.2 -16Q26.8 -15.2 26.8 -17.2Q26.8 -22.8 26 -26.4Q25.6 -28 26 -28Q26.4 -29.2 27.6 -29.6Q30 -30.8 31.6 -29.2M31.6 -26Q30 -24.8 31.6 -20.4Q36.8 -19.6 39.6 -20.8Q40.8 -22.8 40.4 -25.6Q39.2 -27.2 31.6 -26M31.2 -13.6Q32 -14.4 32.4 -12.8Q32.4 -11.6 31.6 -10Q31.2 -8.8 29.2 -6.4Q26 -2.8 23.2 -4Q21.6 -6 22.8 -6.8Q27.2 -8.8 31.2 -13.6M38.4 -13.6Q40 -13.2 41.6 -11.6Q44.4 -8.4 50 -5.2Q50.4 -4 48.8 -2.8Q46.8 -1.2 44.8 -2Q43.2 -3.2 40.4 -7.6Q38.8 -10.4 37.6 -12.8Q38 -13.6 38.4 -13.6M12.4 -20.4Q11.6 -18.4 12.4 -17.6Q15.6 -17.2 17.2 -18Q18 -19.2 17.2 -20.8Q14.8 -20.8 12.4 -20.4" />
</g>
<g id="PathID_16" transform="matrix(0.310171, -0.0380842, 0.0380842, 0.310171, 90.6, 158.65)" opacity="1">
<path style="fill:#005796;fill-opacity:1" d="M20.4 -30.8Q22.8 -30.8 22.4 -26.8L22.4 -9.2L26.4 -9.2L26.4 -29.2Q26.8 -32 30 -31.2Q32 -30.4 31.6 -27.2Q31.2 -24.4 31.2 -9.2Q43.2 -8.8 50.4 -8.4Q47.6 -2.8 44 -1.6Q42.4 -1.2 40 -2Q33.6 -4.8 23.2 -5.2Q10.8 -5.6 3.6 -2.4Q1.6 -2 1.6 -3.6Q2 -8.4 6.8 -8.8L17.6 -9.2L17.6 -26.4Q17.2 -28.8 18 -30Q18.8 -31.2 20.4 -30.8M8.4 -25.6Q10 -26 10.8 -24.8Q13.2 -18 16.8 -12.4Q16.4 -11.2 15.2 -11.6Q8 -16 6.8 -22.4Q6.4 -24.8 8.4 -25.6M40.8 -24.4Q44 -22 42 -19.2Q38.4 -14.4 32.8 -12Q32 -11.6 31.6 -12.4Q36.4 -18 38.8 -24Q39.2 -24.8 40.8 -24.4" />
</g>
<g id="PathID_17" transform="matrix(0.289745, -0.117065, 0.117065, 0.289745, 110.35, 155.55)" opacity="1">
<path style="fill:#005796;fill-opacity:1" d="M36 -11.6Q41.2 -8.8 45.2 -8Q49.2 -7.2 50 -6.8Q49.6 -5.6 47.2 -3.2Q43.6 -0.4 40.4 -3.6Q38.4 -6 34 -8.8Q30.4 -6.4 27.2 -5.2Q23.6 -3.2 20.8 -3.6Q18 -4.8 17.6 -6.4Q16.4 -4 14.4 -2.8Q10.8 -0.8 6.8 -2Q2.4 -4 2 -6.4Q1.6 -7.6 2.8 -6.8Q6 -5.2 9.6 -5.6Q12.8 -6 13.2 -8L13.2 -15.2Q10.8 -14.4 7.6 -13.6Q5.6 -13.2 5.2 -14.8Q5.2 -16.8 6.8 -17.2L13.2 -18L13.2 -22.8Q9.2 -23.2 7.2 -22Q5.2 -21.2 5.2 -23.2Q6.4 -26 8.4 -26.4Q10 -25.2 13.2 -25.2Q13.2 -29.2 12.8 -31.2Q13.6 -32.8 14.8 -32.8Q17.6 -32.8 18 -29.6Q17.2 -27.6 17.6 -25.2L20 -25.2Q20.8 -25.2 21.6 -24.4Q22 -23.2 20 -22.8L17.6 -22.8L17.6 -18.4Q19.2 -18.8 21.2 -18.8Q22.4 -18.4 22 -17.6Q22 -16.8 17.6 -16L17.6 -6.8Q18 -7.2 22.4 -7.6Q27.2 -8.4 31.2 -10.8Q28.8 -12.8 25.2 -14Q22.4 -14.4 24 -16.4Q24.8 -17.6 27.6 -16.8Q30.4 -15.2 33.2 -13.2Q37.2 -17.6 34.8 -18.4Q32.4 -19.2 29.2 -19.2Q27.2 -18.8 25.6 -18Q24.4 -18 24.4 -19.2Q24.8 -20 26 -20.8Q27.2 -21.6 29.6 -21.2L29.6 -23.6Q26.8 -24 23.6 -22.8Q22 -22.4 22.4 -24Q23.2 -26 25.2 -26.4Q26.4 -26 29.2 -26L29.2 -30.4Q29.2 -31.6 30.4 -32.4Q33.6 -32.8 34 -30L34 -26L41.6 -26Q43.2 -25.6 43.2 -24.4Q42.8 -23.2 40.8 -23.6L34 -23.6L34 -21.2Q36 -21.6 38 -20.4Q39.6 -19.2 39.2 -16.8Q38.4 -14.4 36 -11.6" />
</g>
<g id="PathID_18" transform="matrix(0.252818, -0.183683, 0.183683, 0.252818, 128.75, 147.5)" opacity="1">
<path style="fill:#005796;fill-opacity:1" d="M24.8 -32Q26.8 -31.6 26.8 -29.6Q26.4 -27.6 26.4 -25.6Q29.2 -25.6 37.2 -25.2Q41.6 -24.8 40.8 -23.2Q40 -22 37.6 -22L26.8 -22Q41.2 -12.4 49.6 -10.4Q44.4 -3.2 40 -6.4L26.4 -18.4L26.4 -3.2Q26.8 -0.4 23.6 -0.4Q21.6 -0.4 21.2 -2.8Q21.6 -7.2 21.6 -17.2Q18.8 -13.6 14.4 -10Q9.6 -6.4 5.6 -6Q3.6 -5.6 1.6 -7.6Q0.4 -8.4 1.6 -9.6Q4.4 -10.8 7.6 -11.6Q10 -12.8 12.8 -14.4Q16 -16.4 20.8 -22.4Q12.4 -22 8 -20.4Q6 -19.6 6.8 -22.4Q8.4 -25.6 10.4 -26Q11.2 -26 12.4 -25.2Q16.4 -25.6 21.6 -25.6Q21.6 -29.2 21.2 -31.2Q22 -33.2 24.8 -32M36.4 -30.8Q38.8 -29.2 37.2 -28Q34.4 -26.8 32 -27.2Q30.8 -27.6 32 -28.8Q35.2 -32.4 36.4 -30.8" />
</g>
<g id="PathID_19" transform="matrix(0.196663, -0.242858, 0.242858, 0.196663, 144.5, 135.2)" opacity="1">
<path style="fill:#005796;fill-opacity:1" d="M25.6 -12.4Q24.4 -14.4 21.2 -15.2Q20 -16.4 22.4 -16.8Q24.8 -16.8 26.8 -15.6Q30.4 -17.2 28 -18Q25.2 -19.2 22 -18Q19.2 -17.2 16.8 -15.6Q14.8 -14.8 14.8 -16.4Q15.6 -18 16.4 -18.8Q18 -20.4 20.4 -19.6Q22.4 -20.4 24.8 -20.8L30.4 -19.6Q31.6 -20 32.8 -20Q34 -20 35.6 -17.6Q36.8 -15.2 33.6 -15.2Q30.8 -15.2 28.8 -14.4Q29.6 -14 30 -12.4Q43.6 -12.4 50 -12Q48 -5.6 42.8 -7.6Q38 -9.6 30.8 -9.6Q31.6 -0.4 20.8 -0.4Q15.6 -1.2 12 -4.4Q12 -4.8 12.4 -4.8Q15.2 -4 17.6 -3.6Q26 -3.6 25.6 -9.6Q12 -9.2 4.4 -7.6Q1.2 -6.4 2.4 -10.4Q3.6 -12.4 5.6 -12.8Q6.4 -12.8 7.2 -12.4Q16.8 -12 25.6 -12.4M13.2 -31.2Q14.8 -31.6 15.6 -30Q16.4 -28 17.2 -24.8Q22.8 -24.4 30.8 -24.8Q32.4 -28 33.2 -31.6Q34 -33.6 36 -32.4Q38.8 -31.2 37.6 -29.2Q36 -26.4 33.2 -24.4Q36.8 -24.4 39.2 -24.8Q40.4 -25.2 42 -25.6Q44.8 -25.6 45.2 -24Q45.6 -21.2 44 -17.6Q42.4 -15.2 41.6 -16.8Q41.2 -18.8 41.2 -21.2Q41.2 -22 40 -22Q32.4 -22.4 24.8 -22.4Q16.8 -22.4 12.4 -22Q9.6 -21.6 9.2 -17.2Q8 -14 6.8 -16.4L6 -20Q5.6 -23.2 6.4 -24Q8 -25.6 9.2 -25.2Q11.6 -24.4 15.2 -24.4Q12.4 -26.8 11.2 -28.4Q10.4 -30 13.2 -31.2M23.2 -32.8Q26 -33.6 26.4 -30.4L26.4 -26.4Q26 -26 26 -25.6Q22.8 -26.8 21.6 -30.4Q21.6 -32.4 23.2 -32.8" />
</g>
<g id="PathID_20" transform="matrix(0.132068, -0.283221, 0.283221, 0.132068, 156.6, 119.2)" opacity="1">
<path style="fill:#005796;fill-opacity:1" d="M9.2 -10.8Q13.6 -12 14.8 -14.4Q15.2 -16.4 11.6 -18Q9.6 -18.8 9.2 -18L9.2 -10.8M9.2 -26L9.2 -20.4Q12 -21.2 13.2 -24.4Q13.6 -26.4 11.2 -26.4Q10.4 -26.4 9.2 -26M17.2 -27.2Q17.6 -25.6 16 -23.6Q14.8 -22 13.2 -20.4Q14.8 -19.6 16.4 -18.4Q18 -17.2 18 -15.6Q18 -12.8 15.2 -10.8Q12 -8.4 9.2 -8.4L9.2 -4.8Q9.6 -1.6 6.8 -0.8Q4.8 -0.8 4.8 -2.4Q5.6 -10 5.6 -25.2Q3.6 -24.4 2.4 -25.2Q1.6 -25.2 1.6 -26.4Q2.4 -29.2 5.6 -29.6Q9.2 -28 14.8 -29.6Q16.4 -29.2 17.2 -27.2M40 -15.6Q37.6 -15.2 34.4 -15.2L34.4 -10.4Q34.4 -8.4 36.8 -7.2Q41.2 -5.2 46 -7.2Q50.4 -8.8 50.4 -8.4Q50 -4 46 -1.6Q41.2 0 36 -2.8Q31.6 -6 31.2 -9.6L31.2 -15.2L28.4 -15.2L28.4 -12.4Q28.4 -8 25.2 -4.8Q22.4 -1.6 18 -1.2Q14.8 -1.2 13.6 -3.6Q18.4 -4 22.4 -6.8Q25.2 -9.2 25.6 -12L25.6 -14.8Q23.6 -14.8 21.6 -14Q20.4 -14 20.4 -15.6Q20.8 -18 22.8 -18.4Q29.6 -17.2 36 -18.4Q41.2 -18.4 41.2 -16.8Q40.8 -16 40 -15.6M33.2 -28Q41.2 -27.6 42.8 -29.2Q44 -29.2 45.2 -28Q46 -26.8 45.6 -24.8Q45.2 -23.2 45.2 -21.2Q45.2 -19.6 44.4 -19.2Q42.8 -18.8 42.8 -20.8Q43.2 -25.6 39.2 -25.6L22.4 -25.6Q20.8 -25.2 20.8 -23.6Q20.4 -21.6 20.4 -19.2Q19.2 -17.6 18.4 -19.2Q18.4 -22.8 18 -24.8Q18 -26.4 18.8 -28Q19.6 -28.8 20.8 -28.8Q22.8 -27.6 28 -28L28 -30Q28.4 -32 30 -32.4Q32 -32.4 32.8 -31.6Q33.6 -30 33.2 -28M35.2 -20.8Q31.2 -20.8 27.2 -20.4Q24.8 -19.6 24.4 -21.2Q24.4 -22.8 26.4 -23.2Q29.2 -22.8 32.8 -23.2Q38 -22.8 38 -21.6Q37.6 -20.4 35.2 -20.8" />
</g>
<g id="PathID_21" transform="matrix(0.269469, 0, 0, 0.302246, 68.6, 69.5)" opacity="1">
<path style="fill:#25ADDA;fill-opacity:1" d="M136.8 36.6L140.3 43.4Q142.15 46.9 138.4 49.65Q134.3 51.65 132.2 47.15L128.7 41.3Q125.6 35.35 129.7 33.45Q133.7 31.25 136.8 36.6M127.45 31.6L121.25 31L116.25 26Q113.15 22.25 116.25 19.4Q119.6 16.3 122.75 19.4L128.1 25Q131.2 29.1 127.45 31.6M102.45 23.5Q113.75 44.05 113.75 75.05Q113.75 105.65 102.45 126.2L99.7 130.95L118.1 118.1Q136.15 100.05 136.15 75.05Q135.9 67.8 142.75 67.8Q150 67.8 150 75.05Q150 105.65 128.1 127.8Q105.55 149.75 74.95 149.75Q43.7 149.75 21.9 127.8Q0 105.65 0 75.05Q0 43.8 21.9 21.9Q43.7 0 74.95 0Q79.65 0 81.3 3.1Q93.35 6.35 102.45 23.5M95.6 30.35Q88.75 15.3 79.65 12.55L79.65 45.9L101.2 45.9L95.6 30.35M102.2 50.25L79.65 50.25L79.65 72.55L104.3 72.55L102.2 50.25M137.4 63.1L135.9 56.6Q134.7 51.9 139.3 50.65Q143.75 49.65 144.65 53.75L146.5 61Q147.5 64.1 143 65.6Q138.65 66.95 137.4 63.1M48.65 45.9L70.3 45.9L70.3 14.05L66.2 14.4Q59.6 18.8 54.4 30.35L48.65 45.9M50.05 19.05Q39.95 23.5 31.85 31.85Q25 38.2 20.9 45.9L39.3 45.9Q42.2 33.45 47.4 23.5L50.05 19.05M13.7 72.55L36.2 72.55L38.45 50.25L18.8 50.25Q14.05 60.6 13.7 72.55M13.7 77.15Q14.05 89.1 18.8 99.45L38.45 99.45L36.2 77.15L13.7 77.15M70.3 72.55L70.3 50.25L47.8 50.25L45.3 72.55L70.3 72.55M45.3 77.15L47.4 99.45L70.3 99.45L70.3 77.15L45.3 77.15M47.4 126.2Q42.2 116.25 39.3 103.8L20.9 103.8L31.85 118.1Q39.95 126.2 50.05 130.95L47.4 126.2M70.3 103.8L48.65 103.8L54.4 119.35Q59.6 130.7 66.2 135.3L70.3 135.65L70.3 103.8M79.65 135.65L83.75 135.3Q90.25 130.7 95.6 119.35L101.2 103.8L79.65 103.8L79.65 135.65M79.65 77.15L79.65 99.45L102.2 99.45L104.3 77.15L79.65 77.15" />
</g>
<g id="PathID_22" transform="matrix(0.110485, -0.110485, 0.110485, 0.110485, 52.7, 44.55)" opacity="1">
<path style="fill:#0366AE;fill-opacity:1" d="M12 -16.9Q6.7 -19.3 4.6 -21.15Q2.55 -23 2.55 -27Q2.55 -30.1 5.1 -32.9Q7.7 -35.75 12.45 -35.75Q14.5 -35.75 16.25 -35.05Q18.05 -34.4 18.75 -34.4Q19.2 -34.4 19.55 -34.6Q19.9 -34.8 21.05 -35.75L22.05 -26.85L20.25 -26.3Q18.3 -30.6 16.55 -32Q14.8 -33.4 12.05 -33.4Q8.65 -33.4 7.4 -31.5Q6.15 -29.6 6.15 -27.4Q6.15 -25.4 7.3 -24.2Q8.45 -23.05 14 -20.55Q18.85 -18.55 21 -15.95Q23.2 -13.4 23.2 -9.9Q23.2 -6.2 20.6 -3.3Q18 -0.4 13 -0.4Q10.95 -0.4 9.25 -1.05Q7.6 -1.75 6.75 -1.75Q6.35 -1.75 5.85 -1.4Q5.35 -1.05 3.85 -0.4L2.15 -10.8L4.2 -11.4Q5.65 -6.25 7.95 -4.5Q10.25 -2.75 13.2 -2.75Q16.3 -2.75 17.85 -4.55Q19.4 -6.35 19.4 -9.9Q19.4 -11.65 17.6 -13.4Q15.85 -15.15 12 -16.9" />
</g>
<g id="PathID_23" transform="matrix(0.119694, -0.100436, 0.100436, 0.119694, 55.5, 41.7)" opacity="1">
<path style="fill:#0366AE;fill-opacity:1" d="M23.8 -12.25Q23.8 -7.15 20.7 -3.75Q17.6 -0.4 13.05 -0.4Q8.3 -0.4 5.3 -3.85Q2.35 -7.35 2.35 -12.25Q2.35 -16.75 5.3 -20.45Q8.25 -24.15 13.05 -24.15Q18 -24.15 20.9 -20.4Q23.8 -16.7 23.8 -12.25M6.55 -12.05Q6.55 -7.1 8.45 -4.85Q10.35 -2.6 13.05 -2.6Q16.1 -2.6 17.85 -5.05Q19.6 -7.5 19.6 -12.05Q19.6 -16.95 17.65 -19.45Q15.7 -21.95 13.05 -21.95Q10.55 -21.95 8.55 -19.45Q6.55 -17 6.55 -12.05" />
</g>
<g id="PathID_24" transform="matrix(0.126409, -0.0918414, 0.0918414, 0.126409, 58.5, 39.05)" opacity="1">
<path style="fill:#0366AE;fill-opacity:1" d="M8.8 -26.55Q8.8 -30.95 11.5 -33.15Q14.2 -35.35 17.5 -35.35Q21 -35.35 22.85 -34Q24.75 -32.7 24.75 -30.9Q24.75 -29.95 24.2 -29.2Q23.7 -28.45 22.2 -28.45Q21.25 -28.45 20.6 -28.95Q19.95 -29.45 19.95 -30.7L20 -31.35L20.1 -31.85Q20.1 -32.4 19.65 -32.75Q19.25 -33.15 17.3 -33.15Q15.2 -33.15 13.9 -31.8Q12.6 -30.5 12.6 -27.15L12.6 -23.75L20.85 -23.75L20.85 -21.55L12.6 -21.55L12.6 -4.05Q12.6 -3.45 12.9 -3.2Q13.2 -3 13.8 -3L19.05 -3L19.05 -0.8L3.7 -0.8L3.7 -3L7.5 -3Q8.3 -3 8.55 -3.2Q8.8 -3.45 8.8 -4.05L8.8 -21.55L2.7 -21.55L2.7 -23.75L8.8 -23.75L8.8 -26.55" />
</g>
<g id="PathID_25" transform="matrix(0.133932, -0.0804747, 0.0804747, 0.133932, 61.75, 36.7)" opacity="1">
<path style="fill:#0366AE;fill-opacity:1" d="M12.8 -7.55Q12.8 -4.95 13.6 -4.15Q14.4 -3.35 16.15 -3.35Q17.9 -3.35 18.95 -4.45Q20 -5.6 20.45 -8.25L22.4 -7.65Q21.95 -4.4 20.15 -2.5Q18.35 -0.6 15.35 -0.6Q12.15 -0.6 10.55 -2.5Q9 -4.4 9 -8.3L9 -21.55L3.1 -21.55L3.1 -23.75L5.15 -23.75Q7.3 -23.75 8.6 -25.05Q9.95 -26.4 10.35 -29.35L10.6 -31.4L12.8 -31.4L12.8 -23.75L20.6 -23.75L20.6 -21.55L12.8 -21.55L12.8 -7.55" />
</g>
<g id="PathID_26" transform="matrix(0.140437, -0.0684955, 0.0684955, 0.140437, 65.2, 34.65)" opacity="1">
<path style="fill:#0366AE;fill-opacity:1" d="M17.4 -7.2L18 -7.2L17.7 -8.5L20.6 -20.55Q20.8 -21.1 20.55 -21.3Q20.3 -21.55 19.7 -21.55L18.25 -21.55L18.25 -23.75L26 -23.75L26 -21.55L24.65 -21.55Q24.1 -21.55 23.6 -21.05Q23.15 -20.6 22.85 -19.5L18 -0.6L15.95 -0.6L12.9 -15.45L9.55 -0.6L7.55 -0.6L2.9 -18.95Q2.75 -20.25 2.25 -20.9Q1.8 -21.55 1.45 -21.55L0.2 -21.55L0.2 -23.75L8.25 -23.75L8.25 -21.55L6.95 -21.55Q6.55 -21.55 6.4 -21.1Q6.3 -20.65 6.5 -19.55L9.15 -8.15L8.95 -7.3L9.35 -7.3L9.15 -8.15L11.75 -18.55Q11.6 -20.1 11.1 -20.8Q10.6 -21.55 10.1 -21.55L9.05 -21.55L9.05 -23.75L16.75 -23.75L16.75 -21.55L15.6 -21.55Q15.25 -21.55 15.1 -21.1Q14.95 -20.65 15.15 -19.55L17.7 -8.5L17.4 -7.2" />
</g>
<g id="PathID_27" transform="matrix(0.145872, -0.055995, 0.055995, 0.145872, 68.75, 32.85)" opacity="1">
<path style="fill:#0366AE;fill-opacity:1" d="M10.1 -0.6Q6.35 -0.6 4.25 -2.4Q2.15 -4.2 2.15 -6.6Q2.15 -10.35 5.3 -12.7Q8.5 -15.1 17.25 -16.05L17.25 -17.95Q17.25 -19.75 16.45 -20.85Q15.7 -21.95 12.85 -21.95Q9.75 -21.95 8.55 -21Q7.35 -20.1 7.7 -19.3Q8.1 -18.35 7.6 -17.3Q7.15 -16.3 5.6 -16.3Q4.6 -16.3 3.95 -16.9Q3.35 -17.55 3.35 -18.75Q3.35 -20.75 6.05 -22.45Q8.8 -24.15 12.65 -24.15Q16.75 -24.15 18.9 -22.5Q21.05 -20.9 21.05 -17.95L21.05 -5Q21.05 -3.6 21.15 -3.45Q21.3 -3.35 21.85 -3.35Q22.45 -3.35 22.75 -4Q23.1 -4.7 23.1 -6.7L25.15 -6.7Q25.15 -3.25 24 -2Q22.9 -0.8 21.05 -0.8Q19.5 -0.8 18.6 -1.45Q17.7 -2.15 17.45 -3.3Q16.05 -2 14.3 -1.3Q12.55 -0.6 10.1 -0.6M6.55 -7.15Q6.55 -5.5 7.45 -4.2Q8.4 -2.95 10.5 -2.95Q12.15 -2.95 13.85 -3.6Q15.55 -4.25 17.25 -5.45L17.25 -13.95Q11.3 -13.15 8.9 -11.4Q6.55 -9.65 6.55 -7.15" />
</g>
<g id="PathID_28" transform="matrix(0.150197, -0.0430683, 0.0430683, 0.150197, 72.5, 31.4)" opacity="1">
<path style="fill:#0366AE;fill-opacity:1" d="M11.05 -17.65Q12.05 -20.65 14.4 -22.4Q16.8 -24.15 19.3 -24.15Q21.45 -24.15 22.7 -23.1Q24 -22.05 24 -20.7Q24 -19.55 23.35 -18.8Q22.7 -18.05 21.45 -18.05Q20.2 -18.05 19.6 -18.8Q19 -19.55 19.2 -20.75Q19.2 -21.15 19.05 -21.35Q18.95 -21.6 18.3 -21.6Q16.95 -21.6 14.8 -19.7Q12.7 -17.85 11.05 -14.5L11.05 -4.05Q11.05 -3.5 11.35 -3.25Q11.65 -3 12.25 -3L17.15 -3L17.15 -0.8L1.55 -0.8L1.55 -3L5.95 -3Q6.75 -3 7 -3.2Q7.25 -3.45 7.25 -4.05L7.25 -20.25Q7.25 -20.85 6.95 -21.2Q6.65 -21.55 5.9 -21.55L1.55 -21.55L1.55 -23.75L3.65 -23.75Q5 -23.75 6.85 -24Q8.75 -24.3 9.8 -24.75L11.05 -24.75L11.05 -17.65" />
</g>
<g id="PathID_29" transform="matrix(0.153379, -0.0298139, 0.0298139, 0.153379, 76.3, 30.25)" opacity="1">
<path style="fill:#0366AE;fill-opacity:1" d="M18.8 -14Q18.95 -17.6 17.4 -19.7Q15.9 -21.8 13.4 -21.8Q10.75 -21.8 9.05 -19.6Q7.35 -17.4 7.35 -14L18.8 -14M7.35 -11.8Q7.35 -7.1 9.25 -5Q11.15 -2.95 14.2 -2.95Q16.55 -2.95 18.2 -4.3Q19.85 -5.65 20.75 -8.05L22.6 -7.4Q21.95 -4.75 19.75 -2.55Q17.55 -0.4 13.8 -0.4Q9.1 -0.4 6.1 -3.45Q3.15 -6.55 3.15 -12.25Q3.15 -17.35 6.1 -20.75Q9.05 -24.15 13.4 -24.15Q17.35 -24.15 20.25 -21.45Q23.2 -18.75 23.2 -11.8L7.35 -11.8" />
</g>
<g id="PathID_30" transform="matrix(0.156155, -0.00545305, 0.00545305, 0.156155, 84.2, 28.9)" opacity="1">
<path style="fill:#0366AE;fill-opacity:1" d="M15.85 -13.3L8.1 -13.3L6.3 -6.15Q5.95 -4.65 6.25 -3.8Q6.55 -3 7.55 -3L8.7 -3L8.7 -0.8L0.4 -0.8L0.4 -3L1.45 -3Q2.05 -3 2.5 -3.35Q2.95 -3.7 3.15 -4.75L10.8 -34.95L14.6 -36.1L22.2 -4.7Q22.55 -3.7 23 -3.35Q23.45 -3 24.05 -3L25.2 -3L25.2 -0.8L15.65 -0.8L15.65 -3L16.95 -3Q17.8 -3 18 -3.4Q18.2 -3.85 17.8 -5.05L15.85 -13.3M12.2 -29.4L8.5 -15.5L15.65 -15.5L12.2 -29.4L12.55 -30.75L11.85 -30.75L12.2 -29.4" />
</g>
<g id="PathID_31" transform="matrix(0.156155, 0.00545305, -0.00545305, 0.156155, 88.2, 28.75)" opacity="1">
<path style="fill:#0366AE;fill-opacity:1" d="M4.9 -17.55Q4.9 -20.75 7.3 -22.45Q9.7 -24.15 13 -24.15Q14.85 -24.15 16.4 -23.65Q18 -23.15 18.5 -23.15Q18.95 -23.15 19.25 -23.3L20.85 -24.15L21.8 -16.75L19.7 -16.5Q18.85 -19.2 17.1 -20.55Q15.35 -21.95 13.2 -21.95Q10.85 -21.95 9.55 -21.05Q8.3 -20.2 8.3 -18.7Q8.3 -17.3 8.85 -16.55Q9.4 -15.8 11.05 -15.45Q12.45 -14.85 14.5 -14.15Q16.6 -13.5 18.35 -12.7Q20.05 -11.85 21.2 -10.45Q22.4 -9.1 22.4 -7.35Q22.4 -4.2 20.15 -2.4Q17.9 -0.6 13.8 -0.6Q11.15 -0.6 9.85 -1.05Q8.6 -1.55 7.9 -1.55Q7.45 -1.55 6.85 -1.3Q6.25 -1.05 4.7 -0.6L4.1 -8.75L6.2 -9.05Q6.85 -5.65 8.65 -4.2Q10.45 -2.8 13.8 -2.8Q16.4 -2.8 17.7 -3.65Q19 -4.5 19 -6.2Q19 -7.35 18.3 -8.1Q17.6 -8.9 16.9 -9.25L12.5 -10.9Q10.2 -11.8 8.5 -12.6Q6.6 -13.4 5.75 -14.7Q4.9 -16 4.9 -17.55" />
</g>
<g id="PathID_32" transform="matrix(0.155085, 0.0190421, -0.0190421, 0.155085, 92.2, 28.9)" opacity="1">
<path style="fill:#0366AE;fill-opacity:1" d="M4.9 -17.55Q4.9 -20.75 7.3 -22.45Q9.7 -24.15 13 -24.15Q14.85 -24.15 16.4 -23.65Q18 -23.15 18.5 -23.15Q18.95 -23.15 19.25 -23.3L20.85 -24.15L21.8 -16.75L19.7 -16.5Q18.85 -19.2 17.1 -20.55Q15.35 -21.95 13.2 -21.95Q10.85 -21.95 9.55 -21.05Q8.3 -20.2 8.3 -18.7Q8.3 -17.3 8.85 -16.55Q9.4 -15.8 11.05 -15.45Q12.45 -14.85 14.5 -14.15Q16.6 -13.5 18.35 -12.7Q20.05 -11.85 21.2 -10.45Q22.4 -9.1 22.4 -7.35Q22.4 -4.2 20.15 -2.4Q17.9 -0.6 13.8 -0.6Q11.15 -0.6 9.85 -1.05Q8.6 -1.55 7.9 -1.55Q7.45 -1.55 6.85 -1.3Q6.25 -1.05 4.7 -0.6L4.1 -8.75L6.2 -9.05Q6.85 -5.65 8.65 -4.2Q10.45 -2.8 13.8 -2.8Q16.4 -2.8 17.7 -3.65Q19 -4.5 19 -6.2Q19 -7.35 18.3 -8.1Q17.6 -8.9 16.9 -9.25L12.5 -10.9Q10.2 -11.8 8.5 -12.6Q6.6 -13.4 5.75 -14.7Q4.9 -16 4.9 -17.55" />
</g>
<g id="PathID_33" transform="matrix(0.152836, 0.0324862, -0.0324862, 0.152836, 96.15, 29.4)" opacity="1">
<path style="fill:#0366AE;fill-opacity:1" d="M23.8 -12.25Q23.8 -7.15 20.7 -3.75Q17.6 -0.4 13.05 -0.4Q8.3 -0.4 5.3 -3.85Q2.35 -7.35 2.35 -12.25Q2.35 -16.75 5.3 -20.45Q8.25 -24.15 13.05 -24.15Q18 -24.15 20.9 -20.4Q23.8 -16.7 23.8 -12.25M6.55 -12.05Q6.55 -7.1 8.45 -4.85Q10.35 -2.6 13.05 -2.6Q16.1 -2.6 17.85 -5.05Q19.6 -7.5 19.6 -12.05Q19.6 -16.95 17.65 -19.45Q15.7 -21.95 13.05 -21.95Q10.55 -21.95 8.55 -19.45Q6.55 -17 6.55 -12.05" />
</g>
<g id="PathID_34" transform="matrix(0.150197, 0.0430683, -0.0430683, 0.150197, 100.05, 30.25)" opacity="1">
<path style="fill:#0366AE;fill-opacity:1" d="M16.85 -17.95Q16.85 -18.65 16.95 -18.85L17.25 -19.6Q17.45 -20.15 16.6 -21.05Q15.75 -21.95 13.65 -21.95Q11 -21.95 9.05 -19.25Q7.15 -16.6 7.15 -12.05Q7.15 -7.85 8.75 -5.4Q10.4 -2.95 14.2 -2.95Q16.75 -2.95 18.5 -4.6Q20.25 -6.25 21.15 -8.85L23 -8.2Q22.15 -4.75 19.85 -2.55Q17.55 -0.4 13.6 -0.4Q8.7 -0.4 5.8 -3.45Q2.95 -6.55 2.95 -12.25Q2.95 -17.35 6 -20.75Q9.1 -24.15 14 -24.15Q17.6 -24.15 19.6 -22.2Q21.65 -20.3 21.65 -18.35Q21.65 -16.95 21 -16.3Q20.35 -15.7 19.1 -15.7Q18.1 -15.7 17.45 -16.3Q16.85 -16.95 16.85 -17.95" />
</g>
<g id="PathID_35" transform="matrix(0.145872, 0.055995, -0.055995, 0.145872, 103.9, 31.4)" opacity="1">
<path style="fill:#0366AE;fill-opacity:1" d="M11.2 -20.25Q11.2 -20.85 10.9 -21.2Q10.65 -21.55 9.9 -21.55L5.3 -21.55L5.3 -23.75L7.75 -23.75Q9.5 -23.75 10.95 -24Q12.45 -24.25 13.9 -25.1L15 -25.1L15 -4.05Q15 -3.5 15.3 -3.25Q15.6 -3 16.2 -3L20.9 -3L20.9 -0.8L5.3 -0.8L5.3 -3L9.9 -3Q10.7 -3 10.95 -3.2Q11.2 -3.45 11.2 -4.05L11.2 -20.25M13.25 -35.75Q14.4 -35.75 15.35 -34.9Q16.35 -34.05 16.35 -32.85Q16.35 -31.7 15.4 -30.75Q14.45 -29.85 13.25 -29.85Q12.05 -29.85 11.1 -30.75Q10.2 -31.65 10.2 -32.85Q10.2 -34.1 11.1 -34.9Q12.05 -35.75 13.25 -35.75" />
</g>
<g id="PathID_36" transform="matrix(0.140437, 0.0684955, -0.0684955, 0.140437, 107.6, 32.9)" opacity="1">
<path style="fill:#0366AE;fill-opacity:1" d="M10.1 -0.6Q6.35 -0.6 4.25 -2.4Q2.15 -4.2 2.15 -6.6Q2.15 -10.35 5.3 -12.7Q8.5 -15.1 17.25 -16.05L17.25 -17.95Q17.25 -19.75 16.45 -20.85Q15.7 -21.95 12.85 -21.95Q9.75 -21.95 8.55 -21Q7.35 -20.1 7.7 -19.3Q8.1 -18.35 7.6 -17.3Q7.15 -16.3 5.6 -16.3Q4.6 -16.3 3.95 -16.9Q3.35 -17.55 3.35 -18.75Q3.35 -20.75 6.05 -22.45Q8.8 -24.15 12.65 -24.15Q16.75 -24.15 18.9 -22.5Q21.05 -20.9 21.05 -17.95L21.05 -5Q21.05 -3.6 21.15 -3.45Q21.3 -3.35 21.85 -3.35Q22.45 -3.35 22.75 -4Q23.1 -4.7 23.1 -6.7L25.15 -6.7Q25.15 -3.25 24 -2Q22.9 -0.8 21.05 -0.8Q19.5 -0.8 18.6 -1.45Q17.7 -2.15 17.45 -3.3Q16.05 -2 14.3 -1.3Q12.55 -0.6 10.1 -0.6M6.55 -7.15Q6.55 -5.5 7.45 -4.2Q8.4 -2.95 10.5 -2.95Q12.15 -2.95 13.85 -3.6Q15.55 -4.25 17.25 -5.45L17.25 -13.95Q11.3 -13.15 8.9 -11.4Q6.55 -9.65 6.55 -7.15" />
</g>
<g id="PathID_37" transform="matrix(0.133932, 0.0804747, -0.0804747, 0.133932, 111.2, 34.65)" opacity="1">
<path style="fill:#0366AE;fill-opacity:1" d="M12.8 -7.55Q12.8 -4.95 13.6 -4.15Q14.4 -3.35 16.15 -3.35Q17.9 -3.35 18.95 -4.45Q20 -5.6 20.45 -8.25L22.4 -7.65Q21.95 -4.4 20.15 -2.5Q18.35 -0.6 15.35 -0.6Q12.15 -0.6 10.55 -2.5Q9 -4.4 9 -8.3L9 -21.55L3.1 -21.55L3.1 -23.75L5.15 -23.75Q7.3 -23.75 8.6 -25.05Q9.95 -26.4 10.35 -29.35L10.6 -31.4L12.8 -31.4L12.8 -23.75L20.6 -23.75L20.6 -21.55L12.8 -21.55L12.8 -7.55" />
</g>
<g id="PathID_38" transform="matrix(0.126409, 0.0918414, -0.0918414, 0.126409, 114.6, 36.75)" opacity="1">
<path style="fill:#0366AE;fill-opacity:1" d="M11.2 -20.25Q11.2 -20.85 10.9 -21.2Q10.65 -21.55 9.9 -21.55L5.3 -21.55L5.3 -23.75L7.75 -23.75Q9.5 -23.75 10.95 -24Q12.45 -24.25 13.9 -25.1L15 -25.1L15 -4.05Q15 -3.5 15.3 -3.25Q15.6 -3 16.2 -3L20.9 -3L20.9 -0.8L5.3 -0.8L5.3 -3L9.9 -3Q10.7 -3 10.95 -3.2Q11.2 -3.45 11.2 -4.05L11.2 -20.25M13.25 -35.75Q14.4 -35.75 15.35 -34.9Q16.35 -34.05 16.35 -32.85Q16.35 -31.7 15.4 -30.75Q14.45 -29.85 13.25 -29.85Q12.05 -29.85 11.1 -30.75Q10.2 -31.65 10.2 -32.85Q10.2 -34.1 11.1 -34.9Q12.05 -35.75 13.25 -35.75" />
</g>
<g id="PathID_39" transform="matrix(0.119694, 0.100436, -0.100436, 0.119694, 117.85, 39.1)" opacity="1">
<path style="fill:#0366AE;fill-opacity:1" d="M23.8 -12.25Q23.8 -7.15 20.7 -3.75Q17.6 -0.4 13.05 -0.4Q8.3 -0.4 5.3 -3.85Q2.35 -7.35 2.35 -12.25Q2.35 -16.75 5.3 -20.45Q8.25 -24.15 13.05 -24.15Q18 -24.15 20.9 -20.4Q23.8 -16.7 23.8 -12.25M6.55 -12.05Q6.55 -7.1 8.45 -4.85Q10.35 -2.6 13.05 -2.6Q16.1 -2.6 17.85 -5.05Q19.6 -7.5 19.6 -12.05Q19.6 -16.95 17.65 -19.45Q15.7 -21.95 13.05 -21.95Q10.55 -21.95 8.55 -19.45Q6.55 -17 6.55 -12.05" />
</g>
<g id="PathID_40" transform="matrix(0.110485, 0.110485, -0.110485, 0.110485, 120.85, 41.7)" opacity="1">
<path style="fill:#0366AE;fill-opacity:1" d="M1.55 -0.8L1.55 -3L3 -3Q3.8 -3 4.05 -3.2Q4.3 -3.45 4.3 -4.05L4.3 -20.85Q4.3 -21.25 4.2 -21.4Q4.1 -21.55 3.7 -21.55L1.55 -21.55L1.55 -23.75L3.45 -23.75Q4.45 -23.75 5.25 -23.9Q6.1 -24.1 6.95 -24.75L8.1 -24.75L8.1 -20.2Q8.95 -22.05 10.8 -23.1Q12.7 -24.15 14.75 -24.15Q18.35 -24.15 20.05 -22.2Q21.8 -20.25 21.8 -16.6L21.8 -4.05Q21.8 -3.5 22.1 -3.25Q22.4 -3 23 -3L24.55 -3L24.55 -0.8L15.25 -0.8L15.25 -3L16.7 -3Q17.5 -3 17.75 -3.2Q18 -3.45 18 -4.05L18 -17.2Q18 -19.35 17.1 -20.45Q16.25 -21.6 14.55 -21.6Q13 -21.6 11.2 -20.45Q9.45 -19.35 8.1 -17.4L8.1 -4.05Q8.1 -3.5 8.4 -3.25Q8.7 -3 9.3 -3L10.85 -3L10.85 -0.8L1.55 -0.8" />
</g>
</svg>
