<?xml version="1.0" standalone="no"?> <!DOCTYPE svg PUBLIC "-//W3C//DTD SVG 1.1//EN" "http://www.w3.org/Graphics/SVG/1.1/DTD/svg11.dtd" > <svg xmlns="http://www.w3.org/2000/svg" xmlns:xlink="http://www.w3.org/1999/xlink" version="1.1" viewBox="0 0 1024 1024">  <g transform="matrix(1 0 0 -1 0 880)">  <path fill="currentColor" d="M540 742q-19 -28 -28 -56v-10q76 19 133 -47q0 -10 -19 -10q-10 10 -10 -9q-47 -67 -19 -152q29 9 62 14t71 -14q-85 19 -133 -38q-9 -85 -9 -171v-28q28 -19 66 -10q48 10 67 -28q-38 -66 -95 -123q38 -19 85 -24t76 -52q-285 28 -550 -38q28 28 66 28q48 19 38 57 q-85 57 -76 143q29 -10 33.5 -43t33.5 -52q19 -10 28 -38q0 -19 19 -38q86 47 133 133q-29 9 -38 28q-19 19 -28 -9q-19 -10 -14.5 -29t14.5 -38l9 -9q-9 -10 -19 -10h-28q-19 29 -10 57q-19 19 -38 9.5t-38 -9.5q0 29 29 29q28 0 47 19q-38 47 -38 99t-19 90l-56.5 -18.5 t-47.5 9.5q19 38 52 38t71 9q19 123 48 247q0 19 9 28q10 10 19.5 5t9.5 -24q19 10 23.5 33.5t13.5 32.5q-9 38 -18 67q18 0 37 -9.5t38 -38.5zM569 648q-76 -10 -133 -57q-28 -76 -38 -171q10 -9 24 -4.5t33 4.5q-9 38 9.5 66.5t9.5 56.5q-19 0 -28 10q-19 9 -10 19 q0 9 10 9q19 19 37.5 9.5t37.5 -28.5q19 -28 5 -61.5t-33 -61.5q28 0 66 10q0 104 10 199zM559 230q19 95 0 181h-19q-38 -10 -66 -29q9 -38 28 -76q-9 -9 -14 -18.5t-14 -19.5q-9 67 -57 105q-9 9 -19 0q-9 -10 -19 -19v-143q10 -18 48 -28q66 19 132 47zM664 174h-86 q-19 -76 -66 -133h47q29 38 57.5 66.5t47.5 66.5z" />  </g> </svg>