<svg xmlns="http://www.w3.org/2000/svg" width="3400" height="520">
 <defs>
  <style type="text/css">
   <![CDATA[
    .fil2 {fill:#373435}
    .fil1 {fill:#718FC8}
    .fil0 {fill:#CA374B}
    .fil3 {fill:#373435;fill-rule:nonzero}
    .fil4 {fill:#AAACAE;fill-rule:nonzero}
   ]]>
  </style>
 </defs>
 <g>
  <title>background</title>
  <rect fill="none" id="canvas_background" height="522" width="3402" y="-1" x="-1"/>
 </g>
 <g>
  <title>Layer 1</title>
  <g id="Í_x00bc__x00b2_ã_x0020_1">
   <metadata transform="translate(0,22) translate(39.5,0) translate(-122,0) translate(0,-830) " id="CorelCorpID_0Corel-Layer"/>
   <g id="_285133440">
    <path id="svg_1" d="m445.5,88c4,7 2,42 2,48c24,45 40,90 44,139c-15,-41 -37,-78 -73,-107c-41,19 -79,42 -116,68c22,-40 43,-80 60,-121c-26,-28 -63,-50 -113,-64c52,-1 100,10 144,34c21,-3 36,-1 53,2l-1,1z" class="fil0"/>
    <path id="svg_2" d="m278.5,23c30,0 58,5 84,15c-22,-8 -46,-12 -71,-12c-122,0 -222,100 -222,222c0,122 100,222 222,222c122,0 222,-100 222,-222c0,-19 -2,-37 -7,-54c6,21 9,43 9,66c0,131 -107,238 -238,238c-131,0 -238,-107 -238,-238c0,-131 107,-238 238,-238l1,1z" class="fil0"/>
    <path id="svg_3" d="m298.5,358l0,46l-11,0l0,-46l11,0zm51,3l0,0l-16,0l0,43l-11,0l0,-43l-15,0l0,-3l42,0l0,3zm5,34l0,0l0,-27c0,-6 3,-9 9,-9l28,0l0,3l-23,0c-2,0 -3,1 -3,3l0,34c0,2 1,3 3,2l23,0l0,3l-28,0c-6,0 -9,-3 -9,-10l0,1zm-131,9l0,0l-32,0l0,-3l28,0c2,0 3,-1 3,-2l0,-13c0,-2 -1,-3 -3,-3l-20,0c-6,0 -9,-3 -9,-10l0,-6c0,-6 3,-9 9,-9l32,0l0,3l-28,0c-2,0 -3,1 -2,3l0,13c0,2 1,3 2,3l19,0c6,0 9,3 9,9l0,6c0,6 -3,9 -9,9l1,0zm17,-10l0,0l0,-27c0,-6 3,-9 9,-9l28,0l0,3l-23,0c-2,0 -3,1 -3,3l0,34c0,2 1,3 3,2l23,0l0,3l-28,0c-6,0 -9,-3 -9,-10l0,1z" class="fil2"/>
   </g>
   <g id="_285134760">
    <path id="svg_4" d="m812.5,305l-10,1c-8,1 -14,2 -17,2c-12,2 -26,3 -42,1c0,8 -3,12 -9,12c-6,-1 -9,-2 -10,-5c-2,-3 -4,-8 -9,-15c-2,-4 -3,-7 -5,-10c-6,-11 -14,-25 -26,-40c0,-1 -1,-2 -2,-5c-2,-6 -4,-10 -4,-13c0,-1 0,-2 1,-2c0,-3 1,-5 2,-5c2,0 6,3 11,10c2,2 3,3 4,4c11,6 19,12 23,20c2,5 6,12 11,21c4,10 7,17 10,22c8,-2 16,-4 23,-6c7,0 11,-1 12,-2c2,-1 4,-4 9,-9c2,-2 3,-3 4,-4c15,-23 23,-43 23,-61c0,-6 -2,-9 -6,-9c-16,2 -32,6 -49,10c4,5 7,10 10,16c7,15 10,27 10,35c-1,1 -1,2 -1,4c-2,7 -5,9 -9,6c-5,-12 -9,-25 -12,-39c0,-1 0,-3 -1,-6c-2,-7 -3,-11 -4,-13c-1,0 -2,0 -4,1c-16,3 -27,5 -34,5c-4,0 -6,-1 -6,-2c0,-2 0,-3 1,-4c2,-1 4,-2 7,-4c6,-3 10,-5 12,-5c3,-1 8,-2 15,-2c15,-3 29,-6 39,-9c29,-7 59,-12 88,-16c18,-2 31,0 38,7c9,7 14,13 16,20c-2,10 -6,20 -12,29c-1,1 -2,2 -2,5c-2,3 -4,7 -5,10c-2,6 -5,14 -11,24c-3,7 -6,11 -7,15c-14,24 -25,36 -33,35c-10,0 -20,-6 -29,-17c-2,-2 -4,-4 -6,-7c-2,-2 -4,-4 -5,-5l1,0zm16,-4l0,0c5,2 10,3 15,4c4,0 8,-2 11,-6c15,-26 24,-46 29,-60c5,-13 7,-23 7,-31c0,-2 0,-3 -1,-4c-5,-2 -10,-4 -16,-4c-24,3 -42,6 -51,9c6,4 9,11 9,21c-6,21 -16,40 -31,58c16,-3 27,-2 31,4l1,1c2,1 2,2 2,2c0,2 -2,4 -6,6z" class="fil0"/>
    <path id="svg_5" d="m969.5,331l1,-1c1,-2 3,-4 6,-4c3,-1 5,-2 6,-4c5,-9 9,-20 11,-33c7,-48 7,-76 0,-84c-1,-2 -2,-3 -4,-5c-3,-3 -5,-7 -5,-10l0,-1c2,-1 4,-1 9,-1l2,0c2,0 6,1 11,2c2,1 4,1 6,1c1,1 2,2 4,4c4,4 6,8 6,12c0,2 0,5 -1,9c-1,3 -1,6 -1,7c0,24 -2,53 -6,86c0,6 -2,13 -5,21c-8,13 -16,20 -24,22c-2,-2 -5,-4 -9,-6c0,-2 0,-3 -1,-5c0,-2 0,-3 -1,-4c0,-1 -1,-2 -2,-2c-2,-2 -2,-3 -2,-4l-1,0zm93,4l0,0c-2,-5 -4,-11 -4,-18c1,-17 2,-43 2,-77c1,-17 1,-30 1,-39c0,-2 0,-4 0,-7c2,-6 2,-11 0,-16c0,-3 2,-5 6,-5c7,1 12,12 13,34c-2,24 -2,60 0,106l0,1c0,5 -2,12 -6,21c-1,2 -2,4 -4,6l-4,-2c-4,-2 -6,-3 -6,-4l2,0zm80,53l0,0c-5,0 -7,-14 -7,-43c2,-23 2,-48 2,-76c0,-24 0,-59 -1,-105c0,-5 0,-9 -1,-13l-1,0c-1,0 -2,1 -2,2c-2,2 -3,2 -5,2c1,-2 1,-3 1,-4c2,-1 3,-3 5,-6c2,-4 6,-6 10,-6c7,-3 11,10 10,39c0,17 0,44 1,80c1,38 1,66 1,84c0,6 -1,16 -4,31c2,-11 2,-9 -1,4l-1,2c-2,6 -4,9 -6,9l-1,0z" class="fil0"/>
    <path id="svg_6" d="m1248.5,386c-2,-6 -4,-11 -5,-15c2,-11 2,-22 2,-34c3,-34 5,-69 5,-105c0,1 -1,3 -4,6c-2,3 -4,5 -5,6c-5,6 -11,9 -17,9c-8,1 -12,-4 -12,-13c1,-5 6,-13 16,-26c5,-6 8,-10 10,-12c12,-15 22,-32 29,-50c1,-1 1,-3 1,-6c1,-5 2,-7 5,-7l1,0c0,1 0,2 1,2c9,6 13,12 13,20c-2,14 -10,32 -22,54c-1,14 -1,36 0,66c0,14 0,24 0,32c0,3 0,8 0,15c1,15 1,27 0,34c-1,13 -2,22 -4,27c-4,4 -8,5 -11,4l-5,-5l2,-2zm25,-178l0,0c1,-4 6,-7 15,-7l1,0c0,2 -1,3 -4,4c-2,1 -4,2 -4,2c10,-2 20,-4 32,-6c70,-12 114,-17 131,-15c8,2 13,4 13,7c-1,6 -5,8 -12,7c-24,-3 -54,-2 -92,5c-11,1 -26,3 -45,7c-10,2 -18,3 -23,4c-8,-1 -12,-4 -12,-9l0,1zm29,70l0,0c0,-2 2,-4 6,-4c1,0 2,0 2,0c7,-1 15,-2 24,-5c20,-7 39,-12 58,-13c11,-2 15,2 15,12l0,1l-9,0c-6,0 -9,0 -11,1c-4,0 -10,1 -18,2c-4,1 -7,1 -10,1c-3,1 -8,2 -15,5c-15,5 -26,7 -33,5c-6,-2 -9,-4 -10,-6l1,1zm6,34l0,0c0,-5 2,-7 6,-7l1,0c5,2 9,4 13,9c2,-2 5,-4 9,-5c3,-1 8,-2 13,-4c23,-7 41,-11 55,-11c5,2 9,6 12,10c5,4 5,8 1,12c-7,16 -15,28 -23,38c7,7 6,11 -1,13c-9,0 -18,0 -26,1c-2,0 -7,0 -12,0c-6,1 -10,1 -13,1c-2,4 -5,7 -7,9c-7,0 -12,-10 -17,-29c-1,-6 -2,-9 -2,-11c-1,-2 -2,-4 -4,-7c-3,-8 -5,-14 -5,-18l0,-1zm12,-75l0,0c0,-2 5,-3 16,-4c13,-6 29,-11 48,-15c9,-2 13,2 11,11c-1,1 -4,2 -11,2c-5,1 -9,2 -11,2c-2,1 -4,2 -9,2c-11,5 -20,7 -27,5c-11,-2 -16,-3 -17,-5l0,2zm18,78l0,0c-2,1 -5,1 -7,1c2,6 5,15 7,27c2,6 3,10 4,13c3,-1 8,-2 13,-2c6,-1 10,-1 13,-1c8,-11 16,-24 24,-42c1,-2 1,-4 0,-4c0,-1 -1,-1 -2,-1c-2,0 -4,0 -9,1c-5,1 -9,1 -11,1c-11,3 -22,5 -33,6l1,1zm26,-140l0,0c-2,0 -3,0 -5,1c-2,1 -3,1 -4,1l0,-2c3,-2 5,-5 5,-7c-4,-9 -12,-18 -23,-27c-1,0 -2,-1 -2,-2l0,-1c14,1 25,4 34,11c6,5 10,11 12,20c1,7 -2,10 -9,10c-2,0 -3,0 -5,-1c-2,-1 -3,-1 -4,-1l1,-2z" class="fil0"/>
    <path id="svg_7" d="m1506.5,369c0,-3 0,-5 1,-6c1,-10 17,-31 48,-64c-16,2 -23,-2 -20,-13l4,-4l1,0c2,2 4,4 6,5c4,0 8,-1 12,-2c-2,-9 -4,-29 -6,-59c-2,-18 -3,-31 -4,-38c0,-2 -1,-6 -2,-10c-2,-4 -2,-8 -1,-11c1,-3 3,-4 6,-4c2,1 5,3 7,6c17,-15 31,-34 40,-56c1,-2 2,-4 5,-4c7,3 11,9 11,17c1,11 -4,21 -15,31c2,-1 6,-2 10,-4c9,-4 16,-7 22,-9c15,2 22,8 23,20c-1,8 -2,18 -2,28c-1,5 -1,9 -1,12c0,14 -1,33 -2,56c-1,11 -1,19 -1,24c-1,10 -4,17 -11,22c-1,2 -4,4 -9,6c-2,1 -4,2 -5,2c-2,3 -5,8 -9,15c-3,7 -7,11 -10,12c-10,0 -18,-8 -23,-24c0,-1 0,-1 -1,-1l0,-2c1,-5 4,-7 9,-7c3,0 7,2 11,7c3,3 6,5 9,5l1,0l9,-5l1,0c0,-1 1,-2 4,-5c-1,-1 -2,-2 -2,-4c-2,-2 -4,-4 -4,-6c-6,-7 -12,-11 -18,-15c-7,1 -16,4 -27,11c-3,2 -8,4 -13,7c-6,2 -9,4 -11,5c0,2 0,3 -1,5c-10,20 -16,37 -18,53c-2,7 -7,11 -15,12c-2,0 -3,-1 -5,-4c-1,0 -1,0 -1,-1l0,-2c-1,-1 -1,-2 -1,-2l-2,1zm186,-10l0,0c7,1 12,4 17,10c4,16 -5,26 -28,29c-32,0 -54,-2 -66,-7c-27,-10 -50,-29 -70,-58l1,-1c4,2 10,6 18,11c22,18 44,29 67,33c20,2 34,0 42,-7c-1,-7 -11,-19 -29,-34l0,-1c5,0 11,3 20,10c2,2 4,4 6,5c1,0 2,0 2,1c2,0 4,1 5,2c5,5 10,7 15,7zm-82,-75l0,0l2,1c7,5 12,4 13,-2c7,-25 11,-62 10,-109l0,-1c1,-9 0,-13 -4,-13c-4,0 -9,1 -16,2c-8,2 -15,2 -20,2c-7,6 -17,11 -29,16l0,5c0,5 0,10 1,16c9,-2 17,-4 24,-7c7,-4 14,-6 22,-6c3,-1 5,0 6,2c1,2 0,5 -2,7c-2,2 -4,4 -9,4c-2,1 -4,2 -6,2c-12,6 -24,9 -34,9c0,3 0,8 1,15c0,7 0,11 1,15c11,-7 25,-12 40,-16c1,0 2,0 2,0c6,-1 9,1 9,5c0,3 -4,7 -11,10c-2,0 -4,0 -5,1c-5,2 -11,4 -18,6c-7,2 -13,4 -16,6c2,9 2,17 2,24c6,-2 12,-5 20,-10c6,-3 10,-5 12,-5c7,0 11,2 11,7c-1,2 -3,5 -6,7c-1,1 -2,2 -4,2l-1,1c1,2 2,2 2,2l3,2zm51,20l0,0l0,-1c2,0 4,0 6,0l-1,-1c0,-1 0,-1 -1,-1c2,0 4,0 7,0c5,-1 9,-1 11,-1c15,0 26,3 35,10c5,4 9,8 11,12c0,9 -4,13 -11,11c-7,-1 -15,-5 -24,-12c-8,-7 -15,-11 -21,-12l-1,-1c-1,-1 -2,-2 -2,-2c-2,0 -5,0 -9,0l0,-2z" class="fil0"/>
    <path id="svg_8" d="m1840.5,347c0,-6 1,-14 2,-26c2,-17 2,-30 2,-39l-1,0c-4,4 -10,10 -17,17c-19,18 -34,31 -45,40c-4,7 -11,11 -21,15c-13,2 -18,-2 -16,-15c1,-3 6,-8 15,-13l-1,6c12,-6 24,-14 34,-24c-2,-5 -4,-9 -5,-13c-4,-49 2,-89 17,-119c-22,-4 -35,-9 -39,-13c4,-2 13,-5 26,-9c9,-1 23,-4 42,-10c17,-7 33,-9 47,-6c9,5 11,9 5,13c-2,2 -6,3 -11,4c-3,1 -6,2 -7,2c-1,13 -2,27 -2,42c0,14 0,33 0,59c1,-2 2,-3 5,-4c0,2 -1,4 -2,7l-1,1c-1,0 -1,0 -1,1c0,28 0,49 0,65c-1,17 -2,33 -2,46c-1,8 -2,13 -4,13c-4,2 -8,3 -12,1c-6,-4 -7,-18 -5,-43l-3,2zm-29,-52l0,0c9,-6 20,-14 34,-24c2,-2 3,-3 4,-4c0,-10 0,-24 1,-42c0,-11 0,-18 0,-22c-1,1 -2,1 -5,1c-2,1 -3,1 -4,1c-16,5 -24,13 -27,26c0,3 2,5 6,5c1,0 3,0 7,0c3,1 5,1 6,1l2,1c4,2 6,3 6,5c1,2 0,4 -2,6c-1,0 -3,0 -6,1l-4,0l-1,1c-2,3 -5,5 -6,6c-3,3 -6,5 -7,5c0,-2 1,-3 2,-5c2,-2 4,-4 4,-6c-1,-2 -4,-2 -9,0c1,16 0,30 -2,43l1,1zm20,-103l0,0c7,-2 14,0 20,6c0,-4 0,-10 0,-18c1,-8 1,-15 1,-20c-2,1 -9,3 -18,7c-5,2 -9,3 -11,4c-4,7 -7,16 -7,24c2,0 6,-1 11,-2c2,-1 4,-1 5,-1l-1,0zm-4,12l0,0c-7,1 -11,2 -12,2l0,13c5,-2 9,-8 12,-16l0,1zm59,95l0,0c0,-1 0,-2 0,-4c-1,-1 -1,-2 -1,-2c-1,-7 1,-12 5,-13c2,0 2,1 2,4c7,7 12,13 13,21l1,0c2,0 5,-3 10,-10c5,-7 9,-10 11,-11l0,1c0,1 -1,2 -4,5l-1,2c-3,6 -6,11 -9,17c0,1 -1,2 -2,4c-2,2 -3,4 -4,5c2,8 -1,13 -11,13c-5,-1 -9,-7 -11,-20l0,-12l1,0zm17,-59l0,0c-3,-10 -7,-20 -11,-32c-1,-1 -2,-2 -2,-5c-5,-8 -6,-15 -2,-20c2,-7 7,-6 16,1c7,6 12,18 17,35c2,8 4,14 6,17c3,-1 7,-2 12,-4c3,-1 5,-1 6,-1c1,-3 2,-8 5,-15c5,-13 9,-22 11,-27c2,-2 2,-5 1,-7c-1,-2 -2,-2 -5,-1c-6,2 -13,3 -21,5c-10,2 -18,4 -23,6c-4,-2 -5,-4 -2,-7c11,-7 30,-13 56,-20c9,-2 17,1 23,7c7,5 8,11 2,20c-2,3 -6,9 -10,18c-5,11 -9,18 -12,20c6,0 9,2 9,6c-3,7 -10,11 -21,12c-10,2 -20,2 -31,2c0,4 -2,6 -6,6c-7,0 -11,-1 -13,-4c-1,-2 -2,-4 -2,-7c-1,-3 -2,-6 -2,-7l-1,2zm61,33l0,0c1,-2 2,-3 2,-2c1,0 4,0 9,1l7,1c13,11 20,24 22,42c-2,5 -5,9 -11,12c-4,0 -7,-1 -7,-2c-2,-2 -5,-7 -7,-13c0,-2 0,-4 -1,-6c-2,-7 -5,-14 -7,-20c0,-2 0,-3 -1,-4c0,-2 -1,-3 -2,-5c-1,-2 -2,-3 -2,-4l-2,0z" class="fil0"/>
    <path id="svg_9" d="m2034.5,337l0,-1l6,-2c7,-2 11,-4 12,-4c14,2 33,0 56,-5c-6,-9 -9,-17 -10,-23c-1,-2 -2,-8 -2,-20c-1,-10 -1,-16 -1,-18c-2,2 -7,6 -13,11c-3,2 -6,4 -7,6c-2,2 -4,4 -6,7c-4,6 -7,9 -10,9l-1,0l-4,-4c-11,-7 -15,-18 -12,-31c0,-1 0,-2 1,-5c5,-19 10,-28 16,-28l1,0c3,2 7,9 11,22c-1,2 -1,4 -1,5c6,0 13,-3 23,-9l0,-1c0,-7 -1,-15 -4,-27c-2,-12 -3,-21 -4,-27c0,-1 -1,-2 -4,-5c-4,-7 -6,-10 -6,-11c1,-2 2,-4 5,-4c7,-2 15,2 24,11c2,2 4,4 6,5c6,7 9,18 11,35c1,7 2,11 2,15l12,-5c-8,5 -12,8 -12,10c0,1 0,2 0,4c1,11 1,27 0,50c0,11 0,18 0,23c7,0 15,-1 24,-4c-1,-1 -2,-2 -2,-5c-3,-7 -6,-10 -9,-11l0,-1l1,0c1,0 2,0 4,0l0,-1c0,-1 -2,-2 -5,-5l-6,-4l0,-1c2,0 4,1 7,4c3,2 6,4 7,4l2,0c2,-1 3,-3 4,-7c0,-4 0,-7 0,-7l-7,5c3,-3 4,-4 4,-4c2,-2 3,-3 4,-4c-1,0 -2,1 -5,2c-2,2 -4,3 -4,2c1,-2 2,-3 5,-5c3,-3 5,-6 6,-9c0,-7 0,-17 1,-32c0,-36 1,-63 4,-82c0,-2 -1,-4 -2,-7c-2,-2 -2,-4 -2,-6c0,-5 3,-7 10,-6c7,-1 13,3 18,11c5,4 7,9 7,16c-1,8 -3,18 -7,31c-1,5 -1,14 -1,27c-1,13 -1,22 -1,28c13,-7 24,-15 34,-24c-1,-2 -3,-4 -7,-6c-2,-2 -3,-3 -4,-4c0,-5 7,-7 20,-7c11,3 18,9 21,18c-1,7 -4,14 -10,20c-7,5 -16,10 -29,16c-6,2 -10,4 -13,6c-3,1 -7,3 -10,6c0,11 -1,24 -4,37c0,2 1,2 2,1c51,-6 76,0 75,17l0,4c-3,5 -8,7 -15,7c-3,-1 -8,-2 -15,-4c-12,-2 -22,-4 -29,-5c-33,-1 -71,4 -111,15c-11,5 -21,6 -29,4c-15,-3 -22,-8 -22,-13z" class="fil0"/>
    <path id="svg_10" d="m2500.5,201c-2,1 -5,1 -6,1c-1,0 -2,0 -4,1c-9,1 -20,4 -32,9c-2,5 -4,12 -7,22c-2,7 -4,13 -5,16c2,0 7,-2 12,-5c7,-3 11,-5 15,-5c2,0 4,2 9,6l1,1c0,3 0,7 0,10c0,1 -1,3 -2,6c-1,2 -1,3 -1,4c-2,15 -7,30 -15,47c28,11 50,25 66,40c7,9 11,17 11,23c0,3 -2,5 -7,6c-2,0 -7,-4 -12,-12c-2,-3 -4,-5 -5,-6c-15,-15 -34,-28 -59,-39c-9,15 -19,26 -29,34c-10,5 -18,7 -26,7c-7,0 -16,-5 -24,-16c-1,-2 -2,-3 -2,-4c0,12 0,19 -1,20c0,16 -4,24 -13,24c-5,0 -11,-5 -20,-15c-2,-2 -4,-6 -7,-10c-4,-3 -10,-10 -17,-21c0,-1 0,-2 -1,-2c-2,-2 -3,-4 -4,-6l1,0c2,2 4,4 4,5c1,1 2,2 4,4c10,12 19,20 27,22l1,0c4,0 7,-2 7,-6c2,-34 4,-66 5,-97c-13,13 -27,29 -42,47c-4,5 -10,9 -17,11l-1,1l0,1c1,1 1,2 1,2c0,1 -1,1 -2,1c-7,0 -11,-4 -11,-11c0,-2 2,-5 6,-7c23,-24 45,-45 67,-61c0,-14 0,-27 1,-39c-14,2 -28,6 -42,10c-7,2 -14,4 -21,5c-8,0 -16,-3 -23,-10c0,-2 6,-4 18,-5c4,-1 7,-1 7,-1c20,-2 40,-6 60,-11l1,-21c1,-13 2,-26 5,-39c2,-6 5,-9 7,-10c4,3 7,9 9,16c0,7 -1,16 -2,28c-2,8 -2,14 -2,18c0,1 0,2 0,4c2,-1 4,-2 6,-2c3,-1 5,-1 6,-1c0,-2 0,-3 -1,-5c-2,-2 -2,-3 -2,-4c14,4 22,8 26,11c-2,4 -7,8 -15,11l-5,0c-2,1 -4,1 -5,1c-1,0 -2,0 -5,0c-2,1 -5,1 -6,1c0,3 0,8 0,15c-1,7 -1,12 -1,16c2,-2 4,-4 6,-6l-6,7l0,1c2,0 4,0 4,1c-1,2 -2,4 -5,6c0,14 0,31 -1,50c3,-6 11,-8 22,-7c7,0 18,3 33,10c2,1 6,2 11,4c4,2 7,3 10,4c9,-20 14,-37 16,-53c0,-2 0,-3 -1,-4c-2,1 -9,3 -20,7c-3,2 -6,3 -7,4c-2,3 -6,5 -10,6c-2,0 -2,0 -2,-1c-1,-3 -2,-7 -5,-10c0,-1 2,-4 5,-10l4,-5c4,-7 7,-16 10,-27c-2,2 -4,2 -7,2c-2,2 -5,2 -9,2c-7,-2 -10,-3 -11,-4l0,-1l1,-1c2,-2 6,-4 10,-5c2,-2 7,-4 15,-6c3,-1 5,-1 6,-1c6,-24 10,-50 12,-80c0,-5 1,-9 4,-12c1,0 2,0 4,-1l2,0c2,1 3,5 4,12c-1,21 -4,47 -11,76c7,-2 14,-4 20,-5c0,-1 0,-2 -1,-4c-2,-2 -2,-3 -2,-4c1,0 2,0 2,0l1,1c0,1 1,2 4,4l2,1l1,0c1,0 2,0 2,-1l2,0c3,0 7,2 11,6c2,2 0,3 -4,5l-3,3zm-79,145l0,0c11,-7 20,-17 27,-31c-2,-1 -7,-2 -12,-5c-11,-5 -19,-8 -24,-10c-3,-2 -10,-4 -20,-5c-9,0 -13,7 -12,21c0,2 0,3 0,4l0,13c2,12 9,19 23,20c7,0 13,-2 18,-7zm-29,-117l0,0c-2,1 -2,1 -2,0c4,-2 7,-4 10,-6c-1,5 -3,8 -6,9l0,-1c0,-1 0,-1 -1,-1l-1,-1z" class="fil0"/>
    <path id="svg_11" d="m2674.5,403c-1,0 -2,0 -5,0c-7,1 -11,0 -13,-2c-10,-2 -20,-9 -29,-20c-3,-4 -5,-7 -6,-9l1,0l1,1c9,4 18,7 26,7l2,0c2,1 3,1 4,1c7,1 13,-4 16,-15c1,-20 1,-42 1,-64c-2,-1 -4,-2 -7,-2c-3,-1 -8,-2 -15,-4c-14,21 -28,38 -43,49c0,1 -1,2 -4,2c-1,0 -2,1 -4,2c-2,1 -3,1 -4,1l-2,0l-1,0l-2,0l-1,0l-1,0c-2,0 -2,0 -2,1c-1,0 -2,-1 -2,-2l-1,-1l-1,0c0,-1 0,-1 -1,-1l-2,0l0,-2l-1,0c0,-5 4,-9 12,-12c2,-2 6,-4 10,-7c2,-1 3,-2 4,-2c20,-20 44,-51 70,-94c-17,2 -30,4 -39,7c-2,2 -5,2 -9,2l-2,0c-2,0 -5,0 -7,-1c-1,-1 -2,-2 -4,-2l-1,0c-2,-1 -4,-2 -7,-4c-1,-1 -2,-1 -2,-1c0,-2 2,-4 6,-6c2,0 5,0 7,-1c7,-1 19,-2 34,-5c11,-2 20,-3 26,-4c1,-7 1,-17 1,-31c1,-14 1,-24 1,-31c0,-1 0,-2 0,-4c-1,-2 -1,-3 -1,-4l-2,-2l0,-2c0,-1 0,-2 -1,-2c-1,-1 -2,-2 -2,-4c-1,-1 -2,-2 -2,-2c0,-2 0,-2 1,-2c1,0 2,0 4,1l1,0c1,0 2,0 2,-1l1,0c1,0 2,0 2,1c1,1 2,1 2,1l1,0c1,-1 2,-1 2,-1c2,1 4,3 9,6l0,1c3,2 5,6 5,10c0,1 0,2 0,4c-1,2 -1,3 -1,4c-2,11 -4,30 -4,58c2,0 6,0 10,0c10,-1 17,-1 22,0c2,-1 3,-2 1,-4l-2,-2c-2,-2 -4,-4 -4,-5l1,0l1,0c5,5 11,8 18,9c6,-1 10,3 13,11c-1,4 -3,7 -6,7c-1,0 -2,0 -5,0c-15,-2 -30,-2 -47,-1c-2,1 -4,2 -5,4c0,20 0,41 0,62c39,12 66,22 80,31c9,6 13,13 12,21c1,2 0,3 -2,5c-1,0 -1,0 -1,1l-1,0c-1,0 -2,0 -4,-1l-1,0c-1,-1 -2,-2 -2,-2c-2,-1 -3,-1 -4,-1c-2,-2 -7,-4 -12,-7c-2,-2 -5,-3 -6,-4c-3,-2 -8,-4 -15,-6c-20,-9 -34,-15 -43,-20c0,21 0,44 0,67c-2,15 -7,24 -16,24l-3,-1zm1,-140l0,0c-5,10 -11,19 -17,28c2,0 5,0 9,1c4,0 7,0 9,1c0,-11 0,-21 0,-31l-1,1zm49,-100l0,0c-5,-3 -8,-6 -9,-7c0,-2 2,-2 7,-2c15,-1 25,4 31,13c2,8 2,13 -1,16c-1,0 -2,0 -4,0l-2,0c-1,0 -2,0 -4,0c-1,-1 -2,-2 -2,-2c-2,0 -3,-1 -5,-2c-2,-4 -5,-9 -11,-15l0,-1z" class="fil0"/>
    <path id="svg_12" d="m2901.5,378c-3,-5 -3,-5 1,-1c-1,0 -1,0 0,0c11,9 21,13 31,13c7,0 11,-2 15,-7c10,-15 13,-36 10,-65c-25,5 -44,10 -56,16c-2,1 -4,3 -6,6c-2,2 -3,4 -4,4c0,-2 0,-3 1,-5c1,-1 1,-2 1,-2c0,-1 0,-1 -1,-1c-1,0 -2,1 -5,2c0,1 0,2 -1,2l0,-1c-1,-2 -1,-3 0,-5c0,-1 1,-2 2,-5c1,-1 1,-2 1,-2c8,-6 30,-13 65,-23c0,-8 -2,-15 -7,-21c-2,-2 -4,-4 -7,-5c-1,-1 -2,0 -4,2c-1,-1 -2,-1 -4,-1c-3,-2 -5,-4 -5,-6l0,-2c2,-1 4,-1 7,-1c4,0 7,0 7,0c11,-7 20,-17 28,-32c-6,2 -15,6 -28,10c-2,1 -5,2 -6,2c-5,2 -11,4 -18,9c-10,4 -16,2 -17,-5c1,-9 5,-14 12,-15c3,2 7,2 12,1c6,-1 14,-3 26,-6c9,-2 16,-4 21,-5c3,-2 6,-2 9,-2c7,0 10,3 11,9c12,-6 24,-14 35,-24l-1,0c-2,-3 -13,-5 -34,-6c-50,4 -89,14 -116,31c-2,2 -4,7 -7,15c-1,2 -2,4 -2,5c-9,14 -17,15 -23,4c-1,-7 2,-17 10,-28c1,-2 2,-4 4,-6c3,-6 6,-10 7,-12c1,-1 2,-2 5,-5c4,-4 7,-7 7,-10c1,0 2,0 2,1c2,1 3,3 1,6c0,2 0,4 1,9c1,4 1,7 1,7c8,-4 20,-9 37,-13c24,-20 47,-41 67,-65c1,-1 2,-2 2,-4c6,-7 9,-11 9,-13c-2,-5 -7,-7 -12,-6c-2,0 -4,0 -6,0l-1,0l0,-1c6,-2 11,-4 17,-4c14,2 22,8 26,16c0,4 -1,7 -4,10c0,1 0,2 -1,2c-21,23 -45,43 -71,60c38,-9 67,-11 86,-6c15,6 26,13 32,22c-1,5 -5,9 -13,13c-8,5 -21,7 -38,6c0,-1 0,-2 -1,-2l-4,0c-1,-1 -2,-1 -2,-1c-5,1 -9,2 -12,5c-2,7 -10,16 -23,28c-6,3 -11,5 -16,5c9,7 14,17 16,29c3,-1 8,-1 15,-1c5,-1 8,-1 10,-1c13,2 20,5 21,9c-1,6 -6,9 -16,10c-2,0 -4,0 -7,-1c-7,-1 -14,-1 -20,0c4,24 3,47 -2,67c-4,14 -13,22 -28,26c-5,0 -10,-2 -16,-6c-9,-9 -16,-17 -22,-24l-4,-5zm16,-185l0,0c-1,0 -2,0 -2,0c-3,-1 -5,-2 -5,-2c-1,-2 -4,-9 -10,-22c-7,-10 -11,-18 -12,-24c2,0 3,0 4,0l1,0c11,-2 22,2 32,12c3,4 6,11 7,20c0,2 0,4 0,6c2,7 -1,12 -7,15c-2,0 -3,-1 -5,-2c-1,-1 -2,-1 -2,-1l-1,-2zm17,-62l0,0c1,-3 4,-5 9,-6c3,1 7,3 11,7c3,2 6,4 7,6c2,4 4,11 5,21c-3,11 -10,13 -20,6c-1,-1 -2,-2 -2,-5c-1,-3 -3,-9 -6,-16c-2,-2 -4,-7 -4,-13z" class="fil0"/>
    <path id="svg_13" d="m3125.5,403c-5,-1 -8,-13 -9,-35c2,-34 4,-71 6,-111c0,-21 2,-43 6,-65c0,-2 0,-4 1,-9c1,-3 1,-5 1,-6c-1,0 -2,0 -4,0c-2,1 -3,1 -5,1c-17,-1 -26,-4 -27,-10c0,-2 2,-4 5,-4c15,-4 29,-9 40,-13c2,-1 4,-2 7,-4c10,-6 17,-9 22,-10c11,-2 17,2 18,10c0,10 -6,27 -18,51c0,1 0,2 -1,4c-1,2 -1,3 -1,5c0,2 2,6 5,12c6,9 9,17 11,23c1,3 1,9 1,18c-1,13 -5,20 -13,21c-8,0 -16,-4 -24,-12c-2,-2 -3,-3 -4,-4l-1,-1c-1,-2 -2,-2 -2,-2c0,38 0,74 0,109c2,13 0,22 -4,27c-2,4 -6,6 -11,5l1,0zm14,-165l0,0l0,2c0,1 0,2 0,4c0,5 3,8 9,10c7,3 11,5 12,5c3,0 5,-4 5,-11c1,-8 -1,-18 -6,-29c-1,-2 -2,-4 -2,-7c-2,-3 -3,-7 -4,-10c5,-20 9,-33 11,-39l-1,0c-2,2 -7,4 -12,7c-4,2 -7,3 -9,4c1,2 1,5 1,9c0,2 0,4 0,9c-1,4 -1,7 -1,10c-2,12 -2,25 -2,38l-1,-2zm43,-11l0,0c-3,-1 -6,-4 -9,-10c-1,-2 -1,-3 -1,-4c0,-2 2,-4 6,-9c8,-8 15,-16 20,-23c6,-9 10,-14 12,-15c2,0 4,4 5,11c0,1 0,2 0,4c-1,2 -1,4 -1,5c11,-2 20,-5 29,-9l-1,-1c-2,0 -2,0 -1,-1c0,-1 1,-1 2,-1c1,-1 1,-2 1,-2c0,-7 -5,-18 -16,-32c-2,-2 -2,-5 -2,-7c3,-2 10,0 21,6c8,7 14,18 18,35c2,0 6,0 11,-1c14,-2 24,-2 31,-2c10,0 19,2 28,5c6,5 9,9 10,12c0,3 0,5 -1,6c-4,4 -17,10 -39,18l0,-2c0,-1 0,-1 -1,-1l-1,0l-1,1c0,1 0,1 -1,1l-1,-1c0,-1 0,-1 -1,-1c-2,0 -5,1 -11,4c-3,2 -5,2 -6,2l-1,0c1,-2 9,-9 24,-21c9,-7 14,-11 16,-12c-3,-2 -8,-2 -13,-1c-2,0 -4,0 -5,0c-12,0 -24,1 -37,4c-3,2 -7,2 -12,1c-27,6 -42,12 -46,18c-1,0 -1,0 -1,1l-1,1c-7,13 -14,20 -21,21l-3,0zm-6,140l0,0l1,-1l0,-2c0,-1 0,-2 -1,-2c-1,-1 -1,-2 -1,-2l0,-2c2,-2 4,-4 9,-9c7,-6 11,-10 15,-13c15,-20 28,-40 37,-60c-15,8 -29,12 -42,12c-3,0 -5,-1 -6,-4c0,-2 0,-3 0,-4c-1,-1 -2,-2 -2,-2c0,-3 2,-6 7,-9c2,-1 4,-2 5,-2c6,-5 11,-9 16,-13c1,-1 2,-2 5,-4c5,-3 9,-8 13,-13c1,-1 2,-2 2,-2l2,-1l-1,-1l-1,0c-1,0 -2,0 -2,0c-8,-1 -12,-4 -12,-11c0,-3 2,-5 6,-5c2,0 3,0 5,0c2,1 4,1 5,1c4,0 9,-1 16,-2c7,-2 11,-2 15,-2c7,-1 9,2 9,10c-2,3 -8,7 -17,10c0,-1 0,-1 -1,-1c-1,0 -3,0 -6,1c-3,2 -5,2 -6,2c-1,1 -3,2 -7,4c-1,0 -2,0 -4,1l-1,1c-5,5 -9,9 -13,13c-1,1 -2,2 -5,4c-5,4 -7,7 -7,7l1,0c0,1 0,1 -1,1c-1,1 -1,2 -1,4c7,1 27,-7 60,-22c7,-4 13,-4 18,0c4,2 7,5 7,7c0,7 -7,10 -21,10l-1,0c-6,1 -10,2 -12,4c-3,3 -7,9 -11,17c-2,2 -3,4 -4,6c-6,15 -13,29 -23,44c-1,1 -2,2 -4,5c-10,16 -19,25 -27,29c-1,0 -2,0 -4,0c-4,0 -7,0 -7,-1l-3,-3zm65,-23l0,0c0,-1 0,-2 1,-4l0,-2c4,-17 8,-34 11,-50c0,-2 0,-4 0,-6c7,-1 11,4 10,13c-1,2 -2,6 -2,11c-4,16 -7,29 -7,38c-2,13 8,21 28,23c24,1 41,-2 53,-9c5,-2 8,-9 10,-21c0,-2 0,-3 0,-4l0,-2c-1,-12 -1,-19 0,-21c1,-2 2,-2 2,0c0,2 2,6 6,12c1,1 1,2 1,2c1,2 2,5 2,9c2,10 4,18 4,23c0,6 -1,9 -2,10c-2,1 -3,1 -5,1c-2,1 -3,2 -5,2c-18,4 -37,6 -56,6c-23,-2 -38,-6 -45,-13c-3,-4 -5,-11 -5,-20l-1,2z" class="fil0"/>
   </g>
  </g>
 </g>
</svg>