<?xml version="1.0" standalone="no"?> <!DOCTYPE svg PUBLIC "-//W3C//DTD SVG 1.1//EN" "http://www.w3.org/Graphics/SVG/1.1/DTD/svg11.dtd" > <svg xmlns="http://www.w3.org/2000/svg" xmlns:xlink="http://www.w3.org/1999/xlink" version="1.1" viewBox="0 0 1024 1024">  <g transform="matrix(1 0 0 -1 0 880)">  <path fill="currentColor" d="M548 719q9 -28 -19 -57q-10 0 -14.5 -4.5t4.5 -14.5q57 19 123.5 28.5t123.5 -47.5v-19q-123 -47 -237 -76v10q76 38 152 85l-19 19q-152 -28 -285 -85q10 38 48 47q38 10 38 38q9 29 28 48q19 28 0 47q-19 10 -33 24t14 23q47 -9 76 -66zM292 653q-19 -86 0 -171 q-19 -9 -29 0q-9 19 -19 28q-19 86 29 152zM500 558q0 -19 -14 -38t-5 -47q29 0 62 14t71 -14q-9 -38 -47 -66.5t-67 -57.5q67 -113 195 -141.5t213 -133.5l-199 95q-190 38 -265 199l-57 -114v-18q9 -10 14 -29t14 -38q48 19 109.5 33.5t89.5 -52.5q-28 -9 -52 -23.5 t-24 -52.5q29 10 48 -19q-29 -28 -76 -28t-38 -47q-28 -10 -52 -0.5t-14 28.5q-48 85 -19 171q-10 9 -29 -5t-52 -52t-71 -57q114 133 161 284q-28 0 -56.5 -14t-47.5 -5q-19 19 -9.5 38t18.5 29q10 9 19 9h10q-10 -9 -10 -18.5t19 -19.5q57 29 81 85.5t52 113.5zM491 378 l76 76q-29 9 -52.5 -5t-42.5 -24q-9 -9 -4.5 -23.5t23.5 -23.5zM500 150q-47 0 -85 -19q-19 -38 10 -76q56 29 75 95z" />  </g> </svg>