<?xml version="1.0" standalone="no"?> <!DOCTYPE svg PUBLIC "-//W3C//DTD SVG 1.1//EN" "http://www.w3.org/Graphics/SVG/1.1/DTD/svg11.dtd" > <svg xmlns="http://www.w3.org/2000/svg" xmlns:xlink="http://www.w3.org/1999/xlink" version="1.1" viewBox="0 0 1024 1024">  <g transform="matrix(1 0 0 -1 0 880)">  <path fill="currentColor" d="M505 594q0 -28 -4 -58.5t-6 -74.5q57 19 93 -29q8 -40 -47 -86t-65 -112q142 85 294 38q38 -57 -4.5 -109t-71.5 -109q-85 -57 -170 -19q-19 19 -29 38q95 -38 180 19q57 57 67 132q-29 38 -71.5 33.5t-71.5 -23.5q-47 -19 -89.5 -38t-52.5 -76q-38 10 -66 -9 q-48 -10 -48 28q29 47 67 94.5t19 104.5q-29 -9 -62 -23.5t-52 4.5q9 29 37.5 38.5l57.5 18.5q66 95 47 209q-19 19 -33 28.5t-5 28.5q19 9 43 -5t43 -43zM780 566q0 -19 -14.5 -43t-23.5 -43q9 95 -67 124q-9 9 -14 9t5 0q19 29 57 10q28 -19 57 -57zM496 408l4 -36 q73 58 -4 36zM428 204l-36 -52l40 16z" />  </g> </svg>