<?xml version="1.0" standalone="no"?> <!DOCTYPE svg PUBLIC "-//W3C//DTD SVG 1.1//EN" "http://www.w3.org/Graphics/SVG/1.1/DTD/svg11.dtd" > <svg xmlns="http://www.w3.org/2000/svg" xmlns:xlink="http://www.w3.org/1999/xlink" version="1.1" viewBox="0 0 1024 1024">  <g transform="matrix(1 0 0 -1 0 880)">  <path fill="currentColor" d="M493 590q38 10 80.5 19.5t80.5 -28.5q-38 -57 -95 -114q0 -38 47 -57q19 0 38 10q19 9 29 -19q-19 -19 -52.5 -28.5t-52.5 -38.5q-75 -19 -103.5 -85t-57.5 -123l19 142q-47 -28 -104 -38q-19 19 -10 28q124 76 190 209q-19 29 0 57q10 -19 33.5 -9.5t42.5 28.5v9 q-47 0 -90 -14t-71 14q-19 19 -33.5 38t4.5 38q19 -9 43 -28t62 -10zM568 401q-9 9 -28 19h-9v-57q9 9 18 19q19 9 19 19zM701 173q29 -95 -9 -189h-19.5t-9.5 -10q-19 28 -4.5 42.5l23.5 23.5q-9 48 -9 100t-29 81q-38 19 -66 28q38 28 71 0t52 -76z" />  </g> </svg>