<?xml version="1.0" standalone="no"?> <!DOCTYPE svg PUBLIC "-//W3C//DTD SVG 1.1//EN" "http://www.w3.org/Graphics/SVG/1.1/DTD/svg11.dtd" > <svg xmlns="http://www.w3.org/2000/svg" xmlns:xlink="http://www.w3.org/1999/xlink" version="1.1" viewBox="0 0 1024 1024">  <g transform="matrix(1 0 0 -1 0 880)">  <path fill="currentColor" d="M839 610l-94.5 18.5t-66.5 -47.5l-18.5 -56.5t18.5 -56.5q48 9 76 -38v-10q-66 29 -114 -9q-19 -162 -9 -332h-10q-38 208 10 398v66.5t-19 47.5q-180 -67 -370 -86q-28 19 -42.5 38t14.5 38q0 29 19 29h38q-19 -19 -29 -38v-10q66 -28 152 -9q142 57 303 95q38 9 80.5 9 t61.5 -47z" />  </g> </svg>