<svg xmlns="http://www.w3.org/2000/svg" width="1920" height="1080"><path d="M-441,-413L-197,-373L535,-369Z" fill="#79e9cc" stroke="#79e9cc" stroke-width="1.51"/><path d="M-441,-413L535,-369L848,-387Z" fill="#90ecd3" stroke="#90ecd3" stroke-width="1.51"/><path d="M1305,1438L221,1474L1492,1470Z" fill="#b0c6f1" stroke="#b0c6f1" stroke-width="1.51"/><path d="M1324,-367L1605,-285L1917,-329Z" fill="#96d9de" stroke="#96d9de" stroke-width="1.51"/><path d="M2097,-39L2085,202L2200,292Z" fill="#a0cce8" stroke="#a0cce8" stroke-width="1.51"/><path d="M848,-387L1324,-367L2337,-346Z" fill="#99dddd" stroke="#99dddd" stroke-width="1.51"/><path d="M1324,-367L1917,-329L2337,-346Z" fill="#85cfdb" stroke="#85cfdb" stroke-width="1.51"/><path d="M1917,-329L2118,-277L2337,-346Z" fill="#76c5d9" stroke="#76c5d9" stroke-width="1.51"/><path d="M2038,1479L1492,1470L2337,1495Z" fill="#71a1e8" stroke="#71a1e8" stroke-width="1.51"/><path d="M2290,1218L2038,1479L2337,1495Z" fill="#679ce6" stroke="#679ce6" stroke-width="1.51"/><path d="M2097,-39L2200,292L2340,-161Z" fill="#90c7e3" stroke="#90c7e3" stroke-width="1.51"/><path d="M2337,-346L2118,-277L2340,-161Z" fill="#72c1d9" stroke="#72c1d9" stroke-width="1.51"/><path d="M2200,292L2241,428L2340,-161Z" fill="#9bc7e7" stroke="#9bc7e7" stroke-width="1.51"/><path d="M2241,428L2137,460L2346,735Z" fill="#b8ccf3" stroke="#b8ccf3" stroke-width="1.51"/><path d="M2137,460L2056,677L2346,735Z" fill="#b4c9f2" stroke="#b4c9f2" stroke-width="1.51"/><path d="M2340,-161L2241,428L2346,735Z" fill="#a4c7ec" stroke="#a4c7ec" stroke-width="1.51"/><path d="M2346,735L2132,944L2376,949Z" fill="#98b6ee" stroke="#98b6ee" stroke-width="1.51"/><path d="M2132,944L2290,1218L2376,949Z" fill="#8aafeb" stroke="#8aafeb" stroke-width="1.51"/><path d="M2290,1218L2337,1495L2376,949Z" fill="#72a2e7" stroke="#72a2e7" stroke-width="1.51"/><path d="M2340,-161L2346,735L2376,949Z" fill="#afc7f1" stroke="#afc7f1" stroke-width="1.51"/><path d="M2056,677L2132,944L2346,735Z" fill="#a6c0f0" stroke="#a6c0f0" stroke-width="1.51"/><path d="M2118,-277L2097,-39L2340,-161Z" fill="#81c6dd" stroke="#81c6dd" stroke-width="1.51"/><path d="M2132,944L1999,1235L2290,1218Z" fill="#89aeeb" stroke="#89aeeb" stroke-width="1.51"/><path d="M1999,1235L2038,1479L2290,1218Z" fill="#79a5e8" stroke="#79a5e8" stroke-width="1.51"/><path d="M396,1411L221,1474L1305,1438Z" fill="#a3c7eb" stroke="#a3c7eb" stroke-width="1.51"/><path d="M2200,292L2137,460L2241,428Z" fill="#b0ccef" stroke="#b0ccef" stroke-width="1.51"/><path d="M2085,202L2137,460L2200,292Z" fill="#adcded" stroke="#adcded" stroke-width="1.51"/><path d="M1917,-329L1786,-141L2097,-39Z" fill="#90cfdf" stroke="#90cfdf" stroke-width="1.51"/><path d="M1917,-329L2097,-39L2118,-277Z" fill="#85cadd" stroke="#85cadd" stroke-width="1.51"/><path d="M2056,677L1846,1082L2132,944Z" fill="#a6c0f0" stroke="#a6c0f0" stroke-width="1.51"/><path d="M1846,1082L1999,1235L2132,944Z" fill="#96b6ed" stroke="#96b6ed" stroke-width="1.51"/><path d="M1836,619L2056,677L2137,460Z" fill="#c2d2f4" stroke="#c2d2f4" stroke-width="1.51"/><path d="M1823,311L1836,619L2137,460Z" fill="#c4d7f3" stroke="#c4d7f3" stroke-width="1.51"/><path d="M2085,202L1823,311L2137,460Z" fill="#b4d2ee" stroke="#b4d2ee" stroke-width="1.51"/><path d="M1695,972L1846,1082L2056,677Z" fill="#aec4f1" stroke="#aec4f1" stroke-width="1.51"/><path d="M1734,1350L1492,1470L2038,1479Z" fill="#84abea" stroke="#84abea" stroke-width="1.51"/><path d="M1836,619L1695,972L2056,677Z" fill="#bbcef4" stroke="#bbcef4" stroke-width="1.51"/><path d="M1744,242L2085,202L2097,-39Z" fill="#a7d1e8" stroke="#a7d1e8" stroke-width="1.51"/><path d="M1786,-141L1744,242L2097,-39Z" fill="#a4d4e6" stroke="#a4d4e6" stroke-width="1.51"/><path d="M1744,242L1823,311L2085,202Z" fill="#b6d6ed" stroke="#b6d6ed" stroke-width="1.51"/><path d="M1999,1235L1734,1350L2038,1479Z" fill="#81a9ea" stroke="#81a9ea" stroke-width="1.51"/><path d="M1640,-17L1744,242L1786,-141Z" fill="#add9e7" stroke="#add9e7" stroke-width="1.51"/><path d="M1846,1082L1734,1350L1999,1235Z" fill="#92b3ed" stroke="#92b3ed" stroke-width="1.51"/><path d="M1605,-285L1786,-141L1917,-329Z" fill="#93d4de" stroke="#93d4de" stroke-width="1.51"/><path d="M1744,242L1458,349L1823,311Z" fill="#c6dff0" stroke="#c6dff0" stroke-width="1.51"/><path d="M1823,311L1458,349L1836,619Z" fill="#cee0f5" stroke="#cee0f5" stroke-width="1.51"/><path d="M1458,349L1506,731L1836,619Z" fill="#dae4f9" stroke="#dae4f9" stroke-width="1.51"/><path d="M1506,731L1695,972L1836,619Z" fill="#c4d4f5" stroke="#c4d4f5" stroke-width="1.51"/><path d="M1695,972L1734,1350L1846,1082Z" fill="#a1bcef" stroke="#a1bcef" stroke-width="1.51"/><path d="M1695,972L1452,1069L1734,1350Z" fill="#a8c1f0" stroke="#a8c1f0" stroke-width="1.51"/><path d="M1458,349L1369,503L1506,731Z" fill="#e4ebfa" stroke="#e4ebfa" stroke-width="1.51"/><path d="M1581,213L1458,349L1744,242Z" fill="#c8e2f0" stroke="#c8e2f0" stroke-width="1.51"/><path d="M1640,-17L1581,213L1744,242Z" fill="#bbdeec" stroke="#bbdeec" stroke-width="1.51"/><path d="M1605,-285L1640,-17L1786,-141Z" fill="#a1d9e2" stroke="#a1d9e2" stroke-width="1.51"/><path d="M1506,731L1458,862L1695,972Z" fill="#c5d4f5" stroke="#c5d4f5" stroke-width="1.51"/><path d="M1452,1069L1492,1470L1734,1350Z" fill="#9ebaef" stroke="#9ebaef" stroke-width="1.51"/><path d="M1452,1069L1413,1086L1492,1470Z" fill="#acc3f1" stroke="#acc3f1" stroke-width="1.51"/><path d="M1458,862L1452,1069L1695,972Z" fill="#bccef4" stroke="#bccef4" stroke-width="1.51"/><path d="M1412,109L1581,213L1640,-17Z" fill="#bde2ec" stroke="#bde2ec" stroke-width="1.51"/><path d="M1605,-285L1358,-28L1640,-17Z" fill="#addfe5" stroke="#addfe5" stroke-width="1.51"/><path d="M1358,-28L1412,109L1640,-17Z" fill="#bbe4ea" stroke="#bbe4ea" stroke-width="1.51"/><path d="M1425,889L1452,1069L1458,862Z" fill="#c4d3f5" stroke="#c4d3f5" stroke-width="1.51"/><path d="M1413,1086L1305,1438L1492,1470Z" fill="#a4bef0" stroke="#a4bef0" stroke-width="1.51"/><path d="M1324,-367L1358,-28L1605,-285Z" fill="#a9e2e2" stroke="#a9e2e2" stroke-width="1.51"/><path d="M1026,1301L396,1411L1305,1438Z" fill="#b7ccf2" stroke="#b7ccf2" stroke-width="1.51"/><path d="M1369,503L1399,726L1506,731Z" fill="#dde5f9" stroke="#dde5f9" stroke-width="1.51"/><path d="M1412,109L1458,349L1581,213Z" fill="#cae6f0" stroke="#cae6f0" stroke-width="1.51"/><path d="M654,1293L396,1411L1026,1301Z" fill="#afcdee" stroke="#afcdee" stroke-width="1.51"/><path d="M1399,726L1458,862L1506,731Z" fill="#d1ddf8" stroke="#d1ddf8" stroke-width="1.51"/><path d="M1425,889L1413,1086L1452,1069Z" fill="#becff4" stroke="#becff4" stroke-width="1.51"/><path d="M1150,1030L1305,1438L1413,1086Z" fill="#b7cbf3" stroke="#b7cbf3" stroke-width="1.51"/><path d="M1183,411L1369,503L1458,349Z" fill="#e2eef8" stroke="#e2eef8" stroke-width="1.51"/><path d="M1412,109L1124,248L1458,349Z" fill="#d4ecf2" stroke="#d4ecf2" stroke-width="1.51"/><path d="M1124,248L1183,411L1458,349Z" fill="#e0f1f6" stroke="#e0f1f6" stroke-width="1.51"/><path d="M1399,726L1425,889L1458,862Z" fill="#cedaf7" stroke="#cedaf7" stroke-width="1.51"/><path d="M1150,1030L1413,1086L1425,889Z" fill="#c5d4f5" stroke="#c5d4f5" stroke-width="1.51"/><path d="M1150,1030L1026,1301L1305,1438Z" fill="#b8ccf3" stroke="#b8ccf3" stroke-width="1.51"/><path d="M1324,-367L1055,-188L1358,-28Z" fill="#b6eae5" stroke="#b6eae5" stroke-width="1.51"/><path d="M1399,726L1195,840L1425,889Z" fill="#d4def8" stroke="#d4def8" stroke-width="1.51"/><path d="M1195,840L1150,1030L1425,889Z" fill="#d0dcf7" stroke="#d0dcf7" stroke-width="1.51"/><path d="M1369,503L1032,708L1399,726Z" fill="#e6ecfb" stroke="#e6ecfb" stroke-width="1.51"/><path d="M1032,708L1195,840L1399,726Z" fill="#e0e8fa" stroke="#e0e8fa" stroke-width="1.51"/><path d="M1358,-28L1076,20L1412,109Z" fill="#c7ebec" stroke="#c7ebec" stroke-width="1.51"/><path d="M1076,20L1124,248L1412,109Z" fill="#d2f0f0" stroke="#d2f0f0" stroke-width="1.51"/><path d="M1055,-188L1076,20L1358,-28Z" fill="#c5eee9" stroke="#c5eee9" stroke-width="1.51"/><path d="M1183,411L1032,708L1369,503Z" fill="#f3f5fd" stroke="#f3f5fd" stroke-width="1.51"/><path d="M-197,-373L321,-322L535,-369Z" fill="#8decd2" stroke="#8decd2" stroke-width="1.51"/><path d="M848,-387L1055,-188L1324,-367Z" fill="#b6efe3" stroke="#b6efe3" stroke-width="1.51"/><path d="M954,1267L654,1293L1026,1301Z" fill="#bdd1f2" stroke="#bdd1f2" stroke-width="1.51"/><path d="M954,1267L1026,1301L1150,1030Z" fill="#c4d4f5" stroke="#c4d4f5" stroke-width="1.51"/><path d="M827,379L1032,708L1183,411Z" fill="#f9fdfd" stroke="#f9fdfd" stroke-width="1.51"/><path d="M855,954L1150,1030L1195,840Z" fill="#d8e2f9" stroke="#d8e2f9" stroke-width="1.51"/><path d="M1032,708L855,954L1195,840Z" fill="#e4eafb" stroke="#e4eafb" stroke-width="1.51"/><path d="M1076,20L956,107L1124,248Z" fill="#daf6f0" stroke="#daf6f0" stroke-width="1.51"/><path d="M1124,248L827,379L1183,411Z" fill="#ecf9f7" stroke="#ecf9f7" stroke-width="1.51"/><path d="M859,1149L954,1267L1150,1030Z" fill="#ccd9f6" stroke="#ccd9f6" stroke-width="1.51"/><path d="M855,954L859,1149L1150,1030Z" fill="#d5e1f8" stroke="#d5e1f8" stroke-width="1.51"/><path d="M956,107L827,379L1124,248Z" fill="#e8fbf5" stroke="#e8fbf5" stroke-width="1.51"/><path d="M827,379L831,723L1032,708Z" fill="#f7fafd" stroke="#f7fafd" stroke-width="1.51"/><path d="M831,723L855,954L1032,708Z" fill="#e8effb" stroke="#e8effb" stroke-width="1.51"/><path d="M1055,-188L816,-7L1076,20Z" fill="#d0f6ec" stroke="#d0f6ec" stroke-width="1.51"/><path d="M816,-7L956,107L1076,20Z" fill="#d8f9ef" stroke="#d8f9ef" stroke-width="1.51"/><path d="M848,-387L816,-7L1055,-188Z" fill="#c3f5e6" stroke="#c3f5e6" stroke-width="1.51"/><path d="M667,-172L816,-7L848,-387Z" fill="#bdf4e3" stroke="#bdf4e3" stroke-width="1.51"/><path d="M717,156L827,379L956,107Z" fill="#e0faf2" stroke="#e0faf2" stroke-width="1.51"/><path d="M816,-7L717,156L956,107Z" fill="#d6f8ed" stroke="#d6f8ed" stroke-width="1.51"/><path d="M859,1149L654,1293L954,1267Z" fill="#bfd4f2" stroke="#bfd4f2" stroke-width="1.51"/><path d="M827,379L536,528L831,723Z" fill="#f3fdfa" stroke="#f3fdfa" stroke-width="1.51"/><path d="M536,528L605,750L831,723Z" fill="#e5f5f7" stroke="#e5f5f7" stroke-width="1.51"/><path d="M831,723L605,750L855,954Z" fill="#dfedf7" stroke="#dfedf7" stroke-width="1.51"/><path d="M855,954L543,1110L859,1149Z" fill="#c9def3" stroke="#c9def3" stroke-width="1.51"/><path d="M543,1110L654,1293L859,1149Z" fill="#bcd6f0" stroke="#bcd6f0" stroke-width="1.51"/><path d="M535,-369L667,-172L848,-387Z" fill="#adf1de" stroke="#adf1de" stroke-width="1.51"/><path d="M605,750L500,967L855,954Z" fill="#d3e7f4" stroke="#d3e7f4" stroke-width="1.51"/><path d="M500,967L543,1110L855,954Z" fill="#c8e0f2" stroke="#c8e0f2" stroke-width="1.51"/><path d="M717,156L475,458L827,379Z" fill="#e1faf2" stroke="#e1faf2" stroke-width="1.51"/><path d="M475,458L536,528L827,379Z" fill="#e7fbf4" stroke="#e7fbf4" stroke-width="1.51"/><path d="M667,-172L717,156L816,-7Z" fill="#c9f6e8" stroke="#c9f6e8" stroke-width="1.51"/><path d="M269,-145L445,225L667,-172Z" fill="#b8f3e1" stroke="#b8f3e1" stroke-width="1.51"/><path d="M445,225L475,458L717,156Z" fill="#d6f8ed" stroke="#d6f8ed" stroke-width="1.51"/><path d="M667,-172L445,225L717,156Z" fill="#c8f6e8" stroke="#c8f6e8" stroke-width="1.51"/><path d="M456,835L500,967L605,750Z" fill="#cfe8f1" stroke="#cfe8f1" stroke-width="1.51"/><path d="M543,1110L421,1246L654,1293Z" fill="#b1d3ec" stroke="#b1d3ec" stroke-width="1.51"/><path d="M535,-369L269,-145L667,-172Z" fill="#a9f0dc" stroke="#a9f0dc" stroke-width="1.51"/><path d="M321,-322L269,-145L535,-369Z" fill="#9eefd8" stroke="#9eefd8" stroke-width="1.51"/><path d="M421,1246L396,1411L654,1293Z" fill="#a6cdea" stroke="#a6cdea" stroke-width="1.51"/><path d="M536,528L456,835L605,750Z" fill="#dcf2f4" stroke="#dcf2f4" stroke-width="1.51"/><path d="M475,458L245,728L536,528Z" fill="#e1f9f3" stroke="#e1f9f3" stroke-width="1.51"/><path d="M245,728L456,835L536,528Z" fill="#d6f1f1" stroke="#d6f1f1" stroke-width="1.51"/><path d="M500,967L421,1246L543,1110Z" fill="#b8d9ed" stroke="#b8d9ed" stroke-width="1.51"/><path d="M269,-145L145,-37L445,225Z" fill="#b3f2df" stroke="#b3f2df" stroke-width="1.51"/><path d="M445,225L214,318L475,458Z" fill="#d2f8ec" stroke="#d2f8ec" stroke-width="1.51"/><path d="M216,1205L421,1246L500,967Z" fill="#b0d6ea" stroke="#b0d6ea" stroke-width="1.51"/><path d="M456,835L93,974L500,967Z" fill="#c0e3ed" stroke="#c0e3ed" stroke-width="1.51"/><path d="M93,974L216,1205L500,967Z" fill="#b2dae9" stroke="#b2dae9" stroke-width="1.51"/><path d="M145,-37L79,137L445,225Z" fill="#b7f3e1" stroke="#b7f3e1" stroke-width="1.51"/><path d="M245,728L93,974L456,835Z" fill="#c2e7ec" stroke="#c2e7ec" stroke-width="1.51"/><path d="M214,318L245,728L475,458Z" fill="#dbf9ef" stroke="#dbf9ef" stroke-width="1.51"/><path d="M79,137L214,318L445,225Z" fill="#c2f5e5" stroke="#c2f5e5" stroke-width="1.51"/><path d="M214,318L120,691L245,728Z" fill="#d5f6ee" stroke="#d5f6ee" stroke-width="1.51"/><path d="M216,1205L396,1411L421,1246Z" fill="#a1cde8" stroke="#a1cde8" stroke-width="1.51"/><path d="M-197,-373L179,-233L321,-322Z" fill="#8aebd1" stroke="#8aebd1" stroke-width="1.51"/><path d="M216,1205L221,1474L396,1411Z" fill="#96c8e5" stroke="#96c8e5" stroke-width="1.51"/><path d="M179,-233L269,-145L321,-322Z" fill="#9aeed7" stroke="#9aeed7" stroke-width="1.51"/><path d="M216,1205L-116,1270L221,1474Z" fill="#91c9e2" stroke="#91c9e2" stroke-width="1.51"/><path d="M120,691L93,974L245,728Z" fill="#c0e8ea" stroke="#c0e8ea" stroke-width="1.51"/><path d="M179,-233L145,-37L269,-145Z" fill="#a0efd9" stroke="#a0efd9" stroke-width="1.51"/><path d="M-235,311L120,691L214,318Z" fill="#c7f6e8" stroke="#c7f6e8" stroke-width="1.51"/><path d="M-235,311L-58,733L120,691Z" fill="#c7f4e9" stroke="#c7f4e9" stroke-width="1.51"/><path d="M93,974L-116,1270L216,1205Z" fill="#9dd3e3" stroke="#9dd3e3" stroke-width="1.51"/><path d="M-116,1270L-282,1476L221,1474Z" fill="#7ec2dd" stroke="#7ec2dd" stroke-width="1.51"/><path d="M-1,137L-235,311L214,318Z" fill="#b6f3e1" stroke="#b6f3e1" stroke-width="1.51"/><path d="M79,137L-1,137L214,318Z" fill="#b7f3e1" stroke="#b7f3e1" stroke-width="1.51"/><path d="M-58,733L93,974L120,691Z" fill="#bbe7e8" stroke="#bbe7e8" stroke-width="1.51"/><path d="M-197,-373L-232,8L145,-37Z" fill="#8eecd3" stroke="#8eecd3" stroke-width="1.51"/><path d="M-197,-373L145,-37L179,-233Z" fill="#8fecd3" stroke="#8fecd3" stroke-width="1.51"/><path d="M-205,1061L-116,1270L93,974Z" fill="#9ad4e1" stroke="#9ad4e1" stroke-width="1.51"/><path d="M-232,8L-1,137L145,-37Z" fill="#a2efda" stroke="#a2efda" stroke-width="1.51"/><path d="M-1,137L79,137L145,-37Z" fill="#acf1dd" stroke="#acf1dd" stroke-width="1.51"/><path d="M-235,311L-332,521L-58,733Z" fill="#c1f5e5" stroke="#c1f5e5" stroke-width="1.51"/><path d="M-322,-113L-232,8L-197,-373Z" fill="#81eacf" stroke="#81eacf" stroke-width="1.51"/><path d="M-58,733L-233,838L93,974Z" fill="#b0e4e5" stroke="#b0e4e5" stroke-width="1.51"/><path d="M-233,838L-205,1061L93,974Z" fill="#a4dce2" stroke="#a4dce2" stroke-width="1.51"/><path d="M-232,8L-235,311L-1,137Z" fill="#a5f0da" stroke="#a5f0da" stroke-width="1.51"/><path d="M-332,521L-233,838L-58,733Z" fill="#b5ebe4" stroke="#b5ebe4" stroke-width="1.51"/><path d="M-205,1061L-467,1121L-116,1270Z" fill="#8ad0dc" stroke="#8ad0dc" stroke-width="1.51"/><path d="M-467,1121L-282,1476L-116,1270Z" fill="#7cc7da" stroke="#7cc7da" stroke-width="1.51"/><path d="M-332,521L-439,612L-233,838Z" fill="#b2ece2" stroke="#b2ece2" stroke-width="1.51"/><path d="M-433,204L-235,311L-232,8Z" fill="#9eeed8" stroke="#9eeed8" stroke-width="1.51"/><path d="M-233,838L-431,892L-205,1061Z" fill="#9ddcdf" stroke="#9ddcdf" stroke-width="1.51"/><path d="M-441,-413L-322,-113L-197,-373Z" fill="#6ee7c9" stroke="#6ee7c9" stroke-width="1.51"/><path d="M-431,892L-467,1121L-205,1061Z" fill="#8fd6dc" stroke="#8fd6dc" stroke-width="1.51"/><path d="M-433,204L-332,521L-235,311Z" fill="#abf1dd" stroke="#abf1dd" stroke-width="1.51"/><path d="M-439,612L-431,892L-233,838Z" fill="#a5e5df" stroke="#a5e5df" stroke-width="1.51"/><path d="M-322,-113L-433,204L-232,8Z" fill="#8fecd3" stroke="#8fecd3" stroke-width="1.51"/><path d="M-433,204L-439,612L-332,521Z" fill="#b0f2df" stroke="#b0f2df" stroke-width="1.51"/><path d="M-441,-413L-433,204L-322,-113Z" fill="#7de9cd" stroke="#7de9cd" stroke-width="1.51"/><path d="M-439,612L-467,1121L-431,892Z" fill="#98dfdc" stroke="#98dfdc" stroke-width="1.51"/><path d="M-467,1121L-439,612L-433,204Z" fill="#adecdf" stroke="#adecdf" stroke-width="1.51"/><path d="M-441,-413L-467,1121L-433,204Z" fill="#a1efd9" stroke="#a1efd9" stroke-width="1.51"/></svg>